{
.appVersion = "1356";
DisplayStrings = (
"%"
);
copyright = "Copyright © 2020 by Éléonore Fines.";
customParameters = (
{
name = trademark;
value = "Éléonore Fines";
},
{
name = license;
value = "SIL OFL 1.1\012";
},
{
name = Axes;
value = (
{
Name = Weight;
Tag = wght;
},
{
Name = Contrast;
Tag = ctst;
}
);
},
{
name = note;
value = "Facade is designed by Éléonore Fines, created from the architectural grid of the ÉSAD Orléans facade. Initially reated for the visual identity of the ÉSAD Orléans 2020 open days by Antoine Buon, Laëtitia Cuchet, Hugo du Roure, Éléonore Fines, Mégane Lazou and Lucie Sahuquet.\012\012\012Facade est conçue par Éléonore Fines à partir de la grille architecturale de la façade de l’ÉSAD Orléans. Initialement créée pour l’identité visuelle des journées portes ouvertes de l’ÉSAD Orléans 2020 par Antoine Buon, Laëtitia Cuchet, Hugo du Roure, Éléonore Fines, Mégane Lazou et Lucie Sahuquet.\012";
}
);
date = "2020-07-17 10:19:56 +0000";
designer = "Éléonore Fines";
designerURL = eleonorefines.fr;
familyName = Facade;
featurePrefixes = (
{
automatic = 1;
code = "languagesystem DFLT dflt;\012";
name = Languagesystems;
}
);
features = (
{
automatic = 1;
code = "feature salt;\012feature ss01;\012";
name = aalt;
},
{
automatic = 1;
code = "lookupflag IgnoreMarks;\012sub f f iacute by f_f_iacute;\012sub f f icircumflex by f_f_icircumflex;\012sub f f idieresis by f_f_idieresis;\012sub f f igrave by f_f_igrave;\012sub f iacute by f_iacute;\012sub f icircumflex by f_icircumflex;\012sub f idieresis by f_idieresis;\012sub f igrave by f_igrave;\012sub t t by t_t;\012";
name = dlig;
},
{
automatic = 1;
code = "lookupflag IgnoreMarks;\012sub f f i by f_f_i;\012sub f f by f_f;\012sub f i by f_i;\012";
name = liga;
},
{
automatic = 1;

glyphs = (
{
glyphname = A;
lastChange = "2021-07-18 16:10:05 +0000";
layers = (
{
layerId = "8A89AD82-2B0C-40F6-97CA-3AF9ED9FF3A8";
paths = (
{
closed = 1;
nodes = (
"153 0 LINE",
"153 522 LINE",
"400 522 LINE",
"400 0 LINE",
"450 0 LINE",
"450 784 LINE",
"70 784 LINE",
"70 0 LINE"
);
},
{
closed = 1;
nodes = (
"153 736 LINE",
"400 736 LINE",
"400 570 LINE",
"153 570 LINE"
);
}
);
width = 520;
},
{
layerId = "18468F94-9FC9-4171-B83A-16111EF84EF0";
paths = (
{
closed = 1;
nodes = (
"155 0 LINE",
"155 520 LINE",
"400 520 LINE",
"400 0 LINE",
"450 0 LINE",
"450 784 LINE",
"70 784 LINE",
"70 0 LINE"
);
},
{
closed = 1;
nodes = (
"155 734 LINE",
"400 734 LINE",
"400 570 LINE",
"155 570 LINE"
);
}
);
width = 520;
},
{
associatedMasterId = "8A89AD82-2B0C-40F6-97CA-3AF9ED9FF3A8";
layerId = "0E3C4C3F-E86A-4E48-BA02-70EE699FECFC";
width = 600;
},
{
associatedMasterId = "8A89AD82-2B0C-40F6-97CA-3AF9ED9FF3A8";
layerId = "8877225F-9A4F-4FE9-9298-E786CE3C091C";
width = 600;
},
{
layerId = "5AF9D2C4-93A9-4350-9D2E-611822E0073C";
paths = (
{
closed = 1;
nodes = (
"155 0 LINE",
"155 500 LINE",
"380 500 LINE",
"380 0 LINE",
"450 0 LINE",
"450 784 LINE",
"70 784 LINE",
"70 0 LINE"
);
},
{
closed = 1;
nodes = (
"155 714 LINE",
"380 714 LINE",
"380 570 LINE",
"155 570 LINE"
);
}
);
width = 520;
},
{
associatedMasterId = "8A89AD82-2B0C-40F6-97CA-3AF9ED9FF3A8";
layerId = "175EC1D6-1DFB-48D4-8635-0B6059DF0927";
paths = (
{
closed = 1;
nodes = (
"120 0 LINE",
"120 520 LINE",
"400 520 LINE",
"400 0 LINE",
"450 0 LINE",
"450 784 LINE",
"70 784 LINE",
"70 0 LINE"
);
},
{
closed = 1;
nodes = (
"120 734 LINE",
"400 734 LINE",
"400 570 LINE",
"120 570 LINE"
);
}
);
width = 520;
},
{
associatedMasterId = "8A89AD82-2B0C-40F6-97CA-3AF9ED9FF3A8";
layerId = "2CD66A9C-B153-4A14-8403-503AAB71A842";
width = 600;
},
{
associatedMasterId = "8A89AD82-2B0C-40F6-97CA-3AF9ED9FF3A8";
layerId = "D5A259FC-BD70-44C4-B3C5-408723CBA272";
paths = (
{
closed = 1;
nodes = (
"143 0 LINE",
"143 520 LINE",
"400 520 LINE",
"400 0 LINE",
"450 0 LINE",
"450 784 LINE",
"70 784 LINE",
"70 0 LINE"
);
},
{
closed = 1;
nodes = (
"143 734 LINE",
"400 734 LINE",
"400 570 LINE",
"143 570 LINE"
);
}
);
width = 520;
},
{
layerId = "AE502CCD-A4D0-4FF0-92B5-8B29CDC657FD";
paths = (
{
closed = 1;
nodes = (
"235 0 LINE",
"235 522 LINE",
"400 522 LINE",
"400 0 LINE",
"450 0 LINE",
"450 784 LINE",
"70 784 LINE",
"70 0 LINE"
);
},
{
closed = 1;
nodes = (
"235 736 LINE",
"400 736 LINE",
"400 570 LINE",
"235 570 LINE"
);
}
);
width = 520;
},
{
associatedMasterId = "AE502CCD-A4D0-4FF0-92B5-8B29CDC657FD";
layerId = "B8222492-1C30-42EA-9505-28CFC8747084";
width = 600;
},
{
associatedMasterId = "AE502CCD-A4D0-4FF0-92B5-8B29CDC657FD";
layerId = "B5F9D3B0-413C-4D77-9448-6E22BC19C12A";
width = 600;
},
{
associatedMasterId = "AE502CCD-A4D0-4FF0-92B5-8B29CDC657FD";
layerId = "BE665E6C-05AE-48BE-8DAD-8C1E29CC284B";
paths = (
{
closed = 1;
nodes = (
"120 0 LINE",
"120 520 LINE",
"400 520 LINE",
"400 0 LINE",
"450 0 LINE",
"450 784 LINE",
"70 784 LINE",
"70 0 LINE"
);
},
{
closed = 1;
nodes = (
"120 734 LINE",
"400 734 LINE",
"400 570 LINE",
"120 570 LINE"
);
}
);
width = 520;
},
{
associatedMasterId = "AE502CCD-A4D0-4FF0-92B5-8B29CDC657FD";
layerId = "76977FFC-AA9C-4764-A516-13592B7C7E32";
width = 600;
},
{
associatedMasterId = "AE502CCD-A4D0-4FF0-92B5-8B29CDC657FD";
layerId = "B00C8CC6-AFFF-4EDE-9DEA-B9A3D69D8104";
paths = (
{
closed = 1;
nodes = (
"143 0 LINE",
"143 520 LINE",
"400 520 LINE",
"400 0 LINE",
"450 0 LINE",
"450 784 LINE",
"70 784 LINE",
"70 0 LINE"
);
},
{
closed = 1;
nodes = (
"143 734 LINE",
"400 734 LINE",
"400 570 LINE",
"143 570 LINE"
);
}
);
width = 520;
},
{
associatedMasterId = "8A89AD82-2B0C-40F6-97CA-3AF9ED9FF3A8";
layerId = "909388F7-88C2-4DA9-AB96-B13A0726FCBB";
paths = (
{
closed = 1;
nodes = (
"153 0 LINE",
"153 487 LINE",
"365 487 LINE",
"365 0 LINE",
"450 0 LINE",
"450 784 LINE",
"70 784 LINE",
"70 0 LINE"
);
},
{
closed = 1;
nodes = (
"153 701 LINE",
"365 701 LINE",
"365 570 LINE",
"153 570 LINE"
);
}
);
width = 520;
},
{
associatedMasterId = "8A89AD82-2B0C-40F6-97CA-3AF9ED9FF3A8";
layerId = "F87D14C9-5903-481B-804C-33DC195335B4";
paths = (
{
closed = 1;
nodes = (
"235 0 LINE",
"235 482 LINE",
"380 482 LINE",
"380 0 LINE",
"450 0 LINE",
"450 784 LINE",
"70 784 LINE",
"70 0 LINE"
);
},
{
closed = 1;
nodes = (
"235 696 LINE",
"380 696 LINE",
"380 570 LINE",
"235 570 LINE"
);
}
);
width = 520;
},
{
associatedMasterId = "8A89AD82-2B0C-40F6-97CA-3AF9ED9FF3A8";
layerId = "23422B55-8E5F-462A-A151-E371EAE2CD37";
width = 600;
},
{
associatedMasterId = "8A89AD82-2B0C-40F6-97CA-3AF9ED9FF3A8";
layerId = "8FB96A4E-229E-4098-A78A-4F2B3CDE8744";
width = 600;
},
{
associatedMasterId = "8A89AD82-2B0C-40F6-97CA-3AF9ED9FF3A8";
layerId = "01CD86E2-79E2-4EB2-AFCC-7332063034AB";
paths = (
{
closed = 1;
nodes = (
"235 0 LINE",
"235 482 LINE",
"360 482 LINE",
"360 0 LINE",
"450 0 LINE",
"450 784 LINE",
"70 784 LINE",
"70 0 LINE"
);
},
{
closed = 1;
nodes = (
"235 696 LINE",
"360 696 LINE",
"360 570 LINE",
"235 570 LINE"
);
}
);
width = 520;
}
);
unicode = 0041;
},
{
glyphname = Aacute;
lastChange = "2021-07-18 16:11:37 +0000";
layers = (
{
layerId = "8A89AD82-2B0C-40F6-97CA-3AF9ED9FF3A8";
paths = (
{
closed = 1;
nodes = (
"153 0 LINE",
"153 522 LINE",
"400 522 LINE",
"400 0 LINE",
"450 0 LINE",
"450 784 LINE",
"70 784 LINE",
"70 0 LINE"
);
},
{
closed = 1;
nodes = (
"153 736 LINE",
"400 736 LINE",
"400 570 LINE",
"153 570 LINE"
);
},
{
closed = 1;
nodes = (
"450 950 LINE",
"450 998 LINE",
"260 998 LINE",
"260 950 LINE"
);
}
);
width = 520;
},
{
layerId = "18468F94-9FC9-4171-B83A-16111EF84EF0";
paths = (
{
closed = 1;
nodes = (
"155 0 LINE",
"155 520 LINE",
"400 520 LINE",
"400 0 LINE",
"450 0 LINE",
"450 784 LINE",
"70 784 LINE",
"70 0 LINE"
);
},
{
closed = 1;
nodes = (
"155 734 LINE",
"400 734 LINE",
"400 570 LINE",
"155 570 LINE"
);
},
{
closed = 1;
nodes = (
"450 948 LINE",
"450 998 LINE",
"260 998 LINE",
"260 948 LINE"
);
}
);
width = 520;
},
{
associatedMasterId = "8A89AD82-2B0C-40F6-97CA-3AF9ED9FF3A8";
layerId = "0E3C4C3F-E86A-4E48-BA02-70EE699FECFC";
width = 600;
},
{
associatedMasterId = "8A89AD82-2B0C-40F6-97CA-3AF9ED9FF3A8";
layerId = "8877225F-9A4F-4FE9-9298-E786CE3C091C";
width = 600;
},
{
layerId = "5AF9D2C4-93A9-4350-9D2E-611822E0073C";
paths = (
{
closed = 1;
nodes = (
"155 0 LINE",
"155 500 LINE",
"380 500 LINE",
"380 0 LINE",
"450 0 LINE",
"450 784 LINE",
"70 784 LINE",
"70 0 LINE"
);
},
{
closed = 1;
nodes = (
"155 714 LINE",
"380 714 LINE",
"380 570 LINE",
"155 570 LINE"
);
},
{
closed = 1;
nodes = (
"450 928 LINE",
"450 998 LINE",
"260 998 LINE",
"260 928 LINE"
);
}
);
width = 520;
},
{
associatedMasterId = "8A89AD82-2B0C-40F6-97CA-3AF9ED9FF3A8";
layerId = "175EC1D6-1DFB-48D4-8635-0B6059DF0927";
paths = (
{
closed = 1;
nodes = (
"120 0 LINE",
"120 520 LINE",
"400 520 LINE",
"400 0 LINE",
"450 0 LINE",
"450 784 LINE",
"70 784 LINE",
"70 0 LINE"
);
},
{
closed = 1;
nodes = (
"120 734 LINE",
"400 734 LINE",
"400 570 LINE",
"120 570 LINE"
);
},
{
closed = 1;
nodes = (
"450 948 LINE",
"450 998 LINE",
"260 998 LINE",
"260 948 LINE"
);
}
);
width = 520;
},
{
associatedMasterId = "8A89AD82-2B0C-40F6-97CA-3AF9ED9FF3A8";
layerId = "2CD66A9C-B153-4A14-8403-503AAB71A842";
width = 600;
},
{
associatedMasterId = "8A89AD82-2B0C-40F6-97CA-3AF9ED9FF3A8";
layerId = "D5A259FC-BD70-44C4-B3C5-408723CBA272";
paths = (
{
closed = 1;
nodes = (
"143 0 LINE",
"143 520 LINE",
"400 520 LINE",
"400 0 LINE",
"450 0 LINE",
"450 784 LINE",
"70 784 LINE",
"70 0 LINE"
);
},
{
closed = 1;
nodes = (
"143 734 LINE",
"400 734 LINE",
"400 570 LINE",
"143 570 LINE"
);
},
{
closed = 1;
nodes = (
"450 948 LINE",
"450 998 LINE",
"260 998 LINE",
"260 948 LINE"
);
}
);
width = 520;
},
{
layerId = "AE502CCD-A4D0-4FF0-92B5-8B29CDC657FD";
paths = (
{
closed = 1;
nodes = (
"235 0 LINE",
"235 522 LINE",
"400 522 LINE",
"400 0 LINE",
"450 0 LINE",
"450 784 LINE",
"70 784 LINE",
"70 0 LINE"
);
},
{
closed = 1;
nodes = (
"235 736 LINE",
"400 736 LINE",
"400 570 LINE",
"235 570 LINE"
);
},
{
closed = 1;
nodes = (
"450 950 LINE",
"450 998 LINE",
"260 998 LINE",
"260 950 LINE"
);
}
);
width = 520;
},
{
associatedMasterId = "AE502CCD-A4D0-4FF0-92B5-8B29CDC657FD";
layerId = "0BAFE54D-8A4E-41EF-A122-C522A33C3304";
width = 600;
},
{
associatedMasterId = "AE502CCD-A4D0-4FF0-92B5-8B29CDC657FD";
layerId = "49060201-BD43-4706-ACE8-A4F2516F5EBC";
width = 600;
},
{
associatedMasterId = "AE502CCD-A4D0-4FF0-92B5-8B29CDC657FD";
layerId = "BEE5EDA6-4EB8-45CF-9F03-D449C3091B61";
paths = (
{
closed = 1;
nodes = (
"120 0 LINE",
"120 520 LINE",
"400 520 LINE",
"400 0 LINE",
"450 0 LINE",
"450 784 LINE",
"70 784 LINE",
"70 0 LINE"
);
},
{
closed = 1;
nodes = (
"120 734 LINE",
"400 734 LINE",
"400 570 LINE",
"120 570 LINE"
);
},
{
closed = 1;
nodes = (
"450 948 LINE",
"450 998 LINE",
"260 998 LINE",
"260 948 LINE"
);
}
);
width = 520;
},
{
associatedMasterId = "AE502CCD-A4D0-4FF0-92B5-8B29CDC657FD";
layerId = "02ADCC5E-7C45-4737-8B0C-3B21AC6A1831";
width = 600;
},
{
associatedMasterId = "AE502CCD-A4D0-4FF0-92B5-8B29CDC657FD";
layerId = "7F648A1A-5379-4D45-9604-05B5685F0793";
paths = (
{
closed = 1;
nodes = (
"143 0 LINE",
"143 520 LINE",
"400 520 LINE",
"400 0 LINE",
"450 0 LINE",
"450 784 LINE",
"70 784 LINE",
"70 0 LINE"
);
},
{
closed = 1;
nodes = (
"143 734 LINE",
"400 734 LINE",
"400 570 LINE",
"143 570 LINE"
);
},
{
closed = 1;
nodes = (
"450 948 LINE",
"450 998 LINE",
"260 998 LINE",
"260 948 LINE"
);
}
);
width = 520;
},
{
associatedMasterId = "8A89AD82-2B0C-40F6-97CA-3AF9ED9FF3A8";
layerId = "909388F7-88C2-4DA9-AB96-B13A0726FCBB";
width = 910;
},
{
associatedMasterId = "8A89AD82-2B0C-40F6-97CA-3AF9ED9FF3A8";
layerId = "F87D14C9-5903-481B-804C-33DC195335B4";
width = 600;
},
{
associatedMasterId = "8A89AD82-2B0C-40F6-97CA-3AF9ED9FF3A8";
layerId = "8FB96A4E-229E-4098-A78A-4F2B3CDE8744";
width = 600;
},
{
associatedMasterId = "8A89AD82-2B0C-40F6-97CA-3AF9ED9FF3A8";
layerId = "01CD86E2-79E2-4EB2-AFCC-7332063034AB";
paths = (
{
closed = 1;
nodes = (
"235 0 LINE",
"235 482 LINE",
"360 482 LINE",
"360 0 LINE",
"450 0 LINE",
"450 784 LINE",
"70 784 LINE",
"70 0 LINE"
);
},
{
closed = 1;
nodes = (
"235 696 LINE",
"360 696 LINE",
"360 570 LINE",
"235 570 LINE"
);
},
{
closed = 1;
nodes = (
"450 910 LINE",
"450 998 LINE",
"260 998 LINE",
"260 910 LINE"
);
}
);
width = 520;
}
);
unicode = 00C1;
},
{
glyphname = Acircumflex;
lastChange = "2021-07-18 16:05:34 +0000";
layers = (
{
layerId = "8A89AD82-2B0C-40F6-97CA-3AF9ED9FF3A8";
paths = (
{
closed = 1;
nodes = (
"153 0 LINE",
"153 522 LINE",
"400 522 LINE",
"400 0 LINE",
"450 0 LINE",
"450 784 LINE",
"70 784 LINE",
"70 0 LINE"
);
},
{
closed = 1;
nodes = (
"153 736 LINE",
"400 736 LINE",
"400 570 LINE",
"153 570 LINE"
);
},
{
closed = 1;
nodes = (
"450 950 LINE",
"450 998 LINE",
"70 998 LINE",
"70 950 LINE"
);
}
);
width = 520;
},
{
layerId = "18468F94-9FC9-4171-B83A-16111EF84EF0";
paths = (
{
closed = 1;
nodes = (
"155 0 LINE",
"155 520 LINE",
"400 520 LINE",
"400 0 LINE",
"450 0 LINE",
"450 784 LINE",
"70 784 LINE",
"70 0 LINE"
);
},
{
closed = 1;
nodes = (
"155 734 LINE",
"400 734 LINE",
"400 570 LINE",
"155 570 LINE"
);
},
{
closed = 1;
nodes = (
"450 948 LINE",
"450 998 LINE",
"70 998 LINE",
"70 948 LINE"
);
}
);
width = 520;
},
{
associatedMasterId = "8A89AD82-2B0C-40F6-97CA-3AF9ED9FF3A8";
layerId = "0E3C4C3F-E86A-4E48-BA02-70EE699FECFC";
width = 600;
},
{
associatedMasterId = "8A89AD82-2B0C-40F6-97CA-3AF9ED9FF3A8";
layerId = "8877225F-9A4F-4FE9-9298-E786CE3C091C";
width = 600;
},
{
layerId = "5AF9D2C4-93A9-4350-9D2E-611822E0073C";
paths = (
{
closed = 1;
nodes = (
"155 0 LINE",
"155 500 LINE",
"380 500 LINE",
"380 0 LINE",
"450 0 LINE",
"450 784 LINE",
"70 784 LINE",
"70 0 LINE"
);
},
{
closed = 1;
nodes = (
"155 714 LINE",
"380 714 LINE",
"380 570 LINE",
"155 570 LINE"
);
},
{
closed = 1;
nodes = (
"450 928 LINE",
"450 998 LINE",
"70 998 LINE",
"70 928 LINE"
);
}
);
width = 520;
},
{
associatedMasterId = "8A89AD82-2B0C-40F6-97CA-3AF9ED9FF3A8";
layerId = "175EC1D6-1DFB-48D4-8635-0B6059DF0927";
paths = (
{
closed = 1;
nodes = (
"120 0 LINE",
"120 520 LINE",
"400 520 LINE",
"400 0 LINE",
"450 0 LINE",
"450 784 LINE",
"70 784 LINE",
"70 0 LINE"
);
},
{
closed = 1;
nodes = (
"120 734 LINE",
"400 734 LINE",
"400 570 LINE",
"120 570 LINE"
);
},
{
closed = 1;
nodes = (
"450 948 LINE",
"450 998 LINE",
"70 998 LINE",
"70 948 LINE"
);
}
);
width = 520;
},
{
associatedMasterId = "8A89AD82-2B0C-40F6-97CA-3AF9ED9FF3A8";
layerId = "2CD66A9C-B153-4A14-8403-503AAB71A842";
width = 600;
},
{
associatedMasterId = "8A89AD82-2B0C-40F6-97CA-3AF9ED9FF3A8";
layerId = "D5A259FC-BD70-44C4-B3C5-408723CBA272";
paths = (
{
closed = 1;
nodes = (
"143 0 LINE",
"143 520 LINE",
"400 520 LINE",
"400 0 LINE",
"450 0 LINE",
"450 784 LINE",
"70 784 LINE",
"70 0 LINE"
);
},
{
closed = 1;
nodes = (
"143 734 LINE",
"400 734 LINE",
"400 570 LINE",
"143 570 LINE"
);
},
{
closed = 1;
nodes = (
"450 948 LINE",
"450 998 LINE",
"70 998 LINE",
"70 948 LINE"
);
}
);
width = 520;
},
{
layerId = "AE502CCD-A4D0-4FF0-92B5-8B29CDC657FD";
paths = (
{
closed = 1;
nodes = (
"235 0 LINE",
"235 522 LINE",
"400 522 LINE",
"400 0 LINE",
"450 0 LINE",
"450 784 LINE",
"70 784 LINE",
"70 0 LINE"
);
},
{
closed = 1;
nodes = (
"235 736 LINE",
"400 736 LINE",
"400 570 LINE",
"235 570 LINE"
);
},
{
closed = 1;
nodes = (
"450 950 LINE",
"450 998 LINE",
"70 998 LINE",
"70 950 LINE"
);
}
);
width = 520;
},
{
associatedMasterId = "AE502CCD-A4D0-4FF0-92B5-8B29CDC657FD";
layerId = "B7365AE9-58B8-42E9-B0C0-68E3AED46EB3";
width = 600;
},
{
associatedMasterId = "AE502CCD-A4D0-4FF0-92B5-8B29CDC657FD";
layerId = "0275F221-FC2B-4176-8B99-BEE46F1F253D";
width = 600;
},
{
associatedMasterId = "AE502CCD-A4D0-4FF0-92B5-8B29CDC657FD";
layerId = "05BD849F-5367-478F-BCF6-6BF158D3A014";
paths = (
{
closed = 1;
nodes = (
"120 0 LINE",
"120 520 LINE",
"400 520 LINE",
"400 0 LINE",
"450 0 LINE",
"450 784 LINE",
"70 784 LINE",
"70 0 LINE"
);
},
{
closed = 1;
nodes = (
"120 734 LINE",
"400 734 LINE",
"400 570 LINE",
"120 570 LINE"
);
},
{
closed = 1;
nodes = (
"450 948 LINE",
"450 998 LINE",
"70 998 LINE",
"70 948 LINE"
);
}
);
width = 520;
},
{
associatedMasterId = "AE502CCD-A4D0-4FF0-92B5-8B29CDC657FD";
layerId = "B87A9B11-F28B-4640-A847-D9C7EF8706D2";
width = 600;
},
{
associatedMasterId = "AE502CCD-A4D0-4FF0-92B5-8B29CDC657FD";
layerId = "FDA82DE9-26E0-41BC-BE1F-811EE674CF4C";
paths = (
{
closed = 1;
nodes = (
"143 0 LINE",
"143 520 LINE",
"400 520 LINE",
"400 0 LINE",
"450 0 LINE",
"450 784 LINE",
"70 784 LINE",
"70 0 LINE"
);
},
{
closed = 1;
nodes = (
"143 734 LINE",
"400 734 LINE",
"400 570 LINE",
"143 570 LINE"
);
},
{
closed = 1;
nodes = (
"450 948 LINE",
"450 998 LINE",
"70 998 LINE",
"70 948 LINE"
);
}
);
width = 520;
},
{
associatedMasterId = "8A89AD82-2B0C-40F6-97CA-3AF9ED9FF3A8";
layerId = "909388F7-88C2-4DA9-AB96-B13A0726FCBB";
width = 910;
},
{
associatedMasterId = "8A89AD82-2B0C-40F6-97CA-3AF9ED9FF3A8";
layerId = "F87D14C9-5903-481B-804C-33DC195335B4";
width = 600;
},
{
associatedMasterId = "8A89AD82-2B0C-40F6-97CA-3AF9ED9FF3A8";
layerId = "8FB96A4E-229E-4098-A78A-4F2B3CDE8744";
width = 600;
},
{
associatedMasterId = "8A89AD82-2B0C-40F6-97CA-3AF9ED9FF3A8";
layerId = "01CD86E2-79E2-4EB2-AFCC-7332063034AB";
paths = (
{
closed = 1;
nodes = (
"235 0 LINE",
"235 482 LINE",
"360 482 LINE",
"360 0 LINE",
"450 0 LINE",
"450 784 LINE",
"70 784 LINE",
"70 0 LINE"
);
},
{
closed = 1;
nodes = (
"235 696 LINE",
"360 696 LINE",
"360 570 LINE",
"235 570 LINE"
);
},
{
closed = 1;
nodes = (
"450 910 LINE",
"450 998 LINE",
"70 998 LINE",
"70 910 LINE"
);
}
);
width = 520;
}
);
unicode = 00C2;
},
{
glyphname = Adieresis;
lastChange = "2021-07-18 16:05:34 +0000";
layers = (
{
layerId = "8A89AD82-2B0C-40F6-97CA-3AF9ED9FF3A8";
paths = (
{
closed = 1;
nodes = (
"153 0 LINE",
"153 522 LINE",
"400 522 LINE",
"400 0 LINE",
"450 0 LINE",
"450 784 LINE",
"70 784 LINE",
"70 0 LINE"
);
},
{
closed = 1;
nodes = (
"153 736 LINE",
"400 736 LINE",
"400 570 LINE",
"153 570 LINE"
);
},
{
closed = 1;
nodes = (
"218 950 LINE",
"218 998 LINE",
"135 998 LINE",
"135 950 LINE"
);
},
{
closed = 1;
nodes = (
"384 950 LINE",
"384 998 LINE",
"301 998 LINE",
"301 950 LINE"
);
}
);
width = 520;
},
{
layerId = "18468F94-9FC9-4171-B83A-16111EF84EF0";
paths = (
{
closed = 1;
nodes = (
"155 0 LINE",
"155 520 LINE",
"400 520 LINE",
"400 0 LINE",
"450 0 LINE",
"450 784 LINE",
"70 784 LINE",
"70 0 LINE"
);
},
{
closed = 1;
nodes = (
"155 734 LINE",
"400 734 LINE",
"400 570 LINE",
"155 570 LINE"
);
},
{
closed = 1;
nodes = (
"217 948 LINE",
"217 998 LINE",
"132 998 LINE",
"132 948 LINE"
);
},
{
closed = 1;
nodes = (
"387 948 LINE",
"387 998 LINE",
"302 998 LINE",
"302 948 LINE"
);
}
);
width = 520;
},
{
associatedMasterId = "8A89AD82-2B0C-40F6-97CA-3AF9ED9FF3A8";
layerId = "0E3C4C3F-E86A-4E48-BA02-70EE699FECFC";
width = 600;
},
{
associatedMasterId = "8A89AD82-2B0C-40F6-97CA-3AF9ED9FF3A8";
layerId = "8877225F-9A4F-4FE9-9298-E786CE3C091C";
width = 600;
},
{
layerId = "5AF9D2C4-93A9-4350-9D2E-611822E0073C";
paths = (
{
closed = 1;
nodes = (
"155 0 LINE",
"155 500 LINE",
"380 500 LINE",
"380 0 LINE",
"450 0 LINE",
"450 784 LINE",
"70 784 LINE",
"70 0 LINE"
);
},
{
closed = 1;
nodes = (
"155 714 LINE",
"380 714 LINE",
"380 570 LINE",
"155 570 LINE"
);
},
{
closed = 1;
nodes = (
"217 928 LINE",
"217 998 LINE",
"132 998 LINE",
"132 928 LINE"
);
},
{
closed = 1;
nodes = (
"387 928 LINE",
"387 998 LINE",
"302 998 LINE",
"302 928 LINE"
);
}
);
width = 520;
},
{
associatedMasterId = "8A89AD82-2B0C-40F6-97CA-3AF9ED9FF3A8";
layerId = "175EC1D6-1DFB-48D4-8635-0B6059DF0927";
paths = (
{
closed = 1;
nodes = (
"120 0 LINE",
"120 520 LINE",
"400 520 LINE",
"400 0 LINE",
"450 0 LINE",
"450 784 LINE",
"70 784 LINE",
"70 0 LINE"
);
},
{
closed = 1;
nodes = (
"120 734 LINE",
"400 734 LINE",
"400 570 LINE",
"120 570 LINE"
);
},
{
closed = 1;
nodes = (
"235 948 LINE",
"235 998 LINE",
"185 998 LINE",
"185 948 LINE"
);
},
{
closed = 1;
nodes = (
"335 948 LINE",
"335 998 LINE",
"285 998 LINE",
"285 948 LINE"
);
}
);
width = 520;
},
{
associatedMasterId = "8A89AD82-2B0C-40F6-97CA-3AF9ED9FF3A8";
layerId = "2CD66A9C-B153-4A14-8403-503AAB71A842";
width = 600;
},
{
associatedMasterId = "8A89AD82-2B0C-40F6-97CA-3AF9ED9FF3A8";
layerId = "D5A259FC-BD70-44C4-B3C5-408723CBA272";
paths = (
{
closed = 1;
nodes = (
"143 0 LINE",
"143 520 LINE",
"400 520 LINE",
"400 0 LINE",
"450 0 LINE",
"450 784 LINE",
"70 784 LINE",
"70 0 LINE"
);
},
{
closed = 1;
nodes = (
"143 734 LINE",
"400 734 LINE",
"400 570 LINE",
"143 570 LINE"
);
},
{
closed = 1;
nodes = (
"223 948 LINE",
"223 998 LINE",
"150 998 LINE",
"150 948 LINE"
);
},
{
closed = 1;
nodes = (
"370 948 LINE",
"370 998 LINE",
"296 998 LINE",
"296 948 LINE"
);
}
);
width = 520;
},
{
layerId = "AE502CCD-A4D0-4FF0-92B5-8B29CDC657FD";
paths = (
{
closed = 1;
nodes = (
"235 0 LINE",
"235 522 LINE",
"400 522 LINE",
"400 0 LINE",
"450 0 LINE",
"450 784 LINE",
"70 784 LINE",
"70 0 LINE"
);
},
{
closed = 1;
nodes = (
"235 736 LINE",
"400 736 LINE",
"400 570 LINE",
"235 570 LINE"
);
},
{
closed = 1;
nodes = (
"218 950 LINE",
"218 998 LINE",
"135 998 LINE",
"135 950 LINE"
);
},
{
closed = 1;
nodes = (
"384 950 LINE",
"384 998 LINE",
"301 998 LINE",
"301 950 LINE"
);
}
);
width = 520;
},
{
associatedMasterId = "AE502CCD-A4D0-4FF0-92B5-8B29CDC657FD";
layerId = "8980D96B-2689-404C-8E66-D0EEF872A781";
width = 600;
},
{
associatedMasterId = "AE502CCD-A4D0-4FF0-92B5-8B29CDC657FD";
layerId = "C4BF89BF-887A-406B-8FDF-1AE55BEE7BF3";
width = 600;
},
{
associatedMasterId = "AE502CCD-A4D0-4FF0-92B5-8B29CDC657FD";
layerId = "23DF89BC-0ABF-4DE9-90C9-15D337A006B7";
paths = (
{
closed = 1;
nodes = (
"120 0 LINE",
"120 520 LINE",
"400 520 LINE",
"400 0 LINE",
"450 0 LINE",
"450 784 LINE",
"70 784 LINE",
"70 0 LINE"
);
},
{
closed = 1;
nodes = (
"120 734 LINE",
"400 734 LINE",
"400 570 LINE",
"120 570 LINE"
);
},
{
closed = 1;
nodes = (
"235 948 LINE",
"235 998 LINE",
"185 998 LINE",
"185 948 LINE"
);
},
{
closed = 1;
nodes = (
"335 948 LINE",
"335 998 LINE",
"285 998 LINE",
"285 948 LINE"
);
}
);
width = 520;
},
{
associatedMasterId = "AE502CCD-A4D0-4FF0-92B5-8B29CDC657FD";
layerId = "0D4BB91A-6AD1-40E9-B40C-125A580CE2A9";
width = 600;
},
{
associatedMasterId = "AE502CCD-A4D0-4FF0-92B5-8B29CDC657FD";
layerId = "FB037497-59D6-475F-AE41-05577AFF7523";
paths = (
{
closed = 1;
nodes = (
"143 0 LINE",
"143 520 LINE",
"400 520 LINE",
"400 0 LINE",
"450 0 LINE",
"450 784 LINE",
"70 784 LINE",
"70 0 LINE"
);
},
{
closed = 1;
nodes = (
"143 734 LINE",
"400 734 LINE",
"400 570 LINE",
"143 570 LINE"
);
},
{
closed = 1;
nodes = (
"223 948 LINE",
"223 998 LINE",
"150 998 LINE",
"150 948 LINE"
);
},
{
closed = 1;
nodes = (
"370 948 LINE",
"370 998 LINE",
"296 998 LINE",
"296 948 LINE"
);
}
);
width = 520;
},
{
associatedMasterId = "8A89AD82-2B0C-40F6-97CA-3AF9ED9FF3A8";
layerId = "909388F7-88C2-4DA9-AB96-B13A0726FCBB";
width = 910;
},
{
associatedMasterId = "8A89AD82-2B0C-40F6-97CA-3AF9ED9FF3A8";
layerId = "F87D14C9-5903-481B-804C-33DC195335B4";
width = 600;
},
{
associatedMasterId = "8A89AD82-2B0C-40F6-97CA-3AF9ED9FF3A8";
layerId = "8FB96A4E-229E-4098-A78A-4F2B3CDE8744";
width = 600;
},
{
associatedMasterId = "8A89AD82-2B0C-40F6-97CA-3AF9ED9FF3A8";
layerId = "01CD86E2-79E2-4EB2-AFCC-7332063034AB";
paths = (
{
closed = 1;
nodes = (
"235 0 LINE",
"235 482 LINE",
"360 482 LINE",
"360 0 LINE",
"450 0 LINE",
"450 784 LINE",
"70 784 LINE",
"70 0 LINE"
);
},
{
closed = 1;
nodes = (
"235 696 LINE",
"360 696 LINE",
"360 570 LINE",
"235 570 LINE"
);
},
{
closed = 1;
nodes = (
"218 910 LINE",
"218 998 LINE",
"135 998 LINE",
"135 910 LINE"
);
},
{
closed = 1;
nodes = (
"384 910 LINE",
"384 998 LINE",
"301 998 LINE",
"301 910 LINE"
);
}
);
width = 520;
}
);
unicode = 00C4;
},
{
glyphname = Agrave;
lastChange = "2021-07-18 16:05:34 +0000";
layers = (
{
layerId = "8A89AD82-2B0C-40F6-97CA-3AF9ED9FF3A8";
paths = (
{
closed = 1;
nodes = (
"153 0 LINE",
"153 522 LINE",
"400 522 LINE",
"400 0 LINE",
"450 0 LINE",
"450 784 LINE",
"70 784 LINE",
"70 0 LINE"
);
},
{
closed = 1;
nodes = (
"153 736 LINE",
"400 736 LINE",
"400 570 LINE",
"153 570 LINE"
);
},
{
closed = 1;
nodes = (
"260 950 LINE",
"260 998 LINE",
"70 998 LINE",
"70 950 LINE"
);
}
);
width = 520;
},
{
layerId = "18468F94-9FC9-4171-B83A-16111EF84EF0";
paths = (
{
closed = 1;
nodes = (
"155 0 LINE",
"155 520 LINE",
"400 520 LINE",
"400 0 LINE",
"450 0 LINE",
"450 784 LINE",
"70 784 LINE",
"70 0 LINE"
);
},
{
closed = 1;
nodes = (
"155 734 LINE",
"400 734 LINE",
"400 570 LINE",
"155 570 LINE"
);
},
{
closed = 1;
nodes = (
"260 948 LINE",
"260 998 LINE",
"70 998 LINE",
"70 948 LINE"
);
}
);
width = 520;
},
{
associatedMasterId = "8A89AD82-2B0C-40F6-97CA-3AF9ED9FF3A8";
layerId = "0E3C4C3F-E86A-4E48-BA02-70EE699FECFC";
width = 600;
},
{
associatedMasterId = "8A89AD82-2B0C-40F6-97CA-3AF9ED9FF3A8";
layerId = "8877225F-9A4F-4FE9-9298-E786CE3C091C";
width = 600;
},
{
layerId = "5AF9D2C4-93A9-4350-9D2E-611822E0073C";
paths = (
{
closed = 1;
nodes = (
"155 0 LINE",
"155 500 LINE",
"380 500 LINE",
"380 0 LINE",
"450 0 LINE",
"450 784 LINE",
"70 784 LINE",
"70 0 LINE"
);
},
{
closed = 1;
nodes = (
"155 714 LINE",
"380 714 LINE",
"380 570 LINE",
"155 570 LINE"
);
},
{
closed = 1;
nodes = (
"260 928 LINE",
"260 998 LINE",
"70 998 LINE",
"70 928 LINE"
);
}
);
width = 520;
},
{
associatedMasterId = "8A89AD82-2B0C-40F6-97CA-3AF9ED9FF3A8";
layerId = "175EC1D6-1DFB-48D4-8635-0B6059DF0927";
paths = (
{
closed = 1;
nodes = (
"120 0 LINE",
"120 520 LINE",
"400 520 LINE",
"400 0 LINE",
"450 0 LINE",
"450 784 LINE",
"70 784 LINE",
"70 0 LINE"
);
},
{
closed = 1;
nodes = (
"120 734 LINE",
"400 734 LINE",
"400 570 LINE",
"120 570 LINE"
);
},
{
closed = 1;
nodes = (
"260 948 LINE",
"260 998 LINE",
"70 998 LINE",
"70 948 LINE"
);
}
);
width = 520;
},
{
associatedMasterId = "8A89AD82-2B0C-40F6-97CA-3AF9ED9FF3A8";
layerId = "2CD66A9C-B153-4A14-8403-503AAB71A842";
width = 600;
},
{
associatedMasterId = "8A89AD82-2B0C-40F6-97CA-3AF9ED9FF3A8";
layerId = "D5A259FC-BD70-44C4-B3C5-408723CBA272";
paths = (
{
closed = 1;
nodes = (
"143 0 LINE",
"143 520 LINE",
"400 520 LINE",
"400 0 LINE",
"450 0 LINE",
"450 784 LINE",
"70 784 LINE",
"70 0 LINE"
);
},
{
closed = 1;
nodes = (
"143 734 LINE",
"400 734 LINE",
"400 570 LINE",
"143 570 LINE"
);
},
{
closed = 1;
nodes = (
"260 948 LINE",
"260 998 LINE",
"70 998 LINE",
"70 948 LINE"
);
}
);
width = 520;
},
{
layerId = "AE502CCD-A4D0-4FF0-92B5-8B29CDC657FD";
paths = (
{
closed = 1;
nodes = (
"235 0 LINE",
"235 522 LINE",
"400 522 LINE",
"400 0 LINE",
"450 0 LINE",
"450 784 LINE",
"70 784 LINE",
"70 0 LINE"
);
},
{
closed = 1;
nodes = (
"235 736 LINE",
"400 736 LINE",
"400 570 LINE",
"235 570 LINE"
);
},
{
closed = 1;
nodes = (
"260 950 LINE",
"260 998 LINE",
"70 998 LINE",
"70 950 LINE"
);
}
);
width = 520;
},
{
associatedMasterId = "AE502CCD-A4D0-4FF0-92B5-8B29CDC657FD";
layerId = "CF19A710-C613-40CD-B89A-E6A2EF14FC5A";
width = 600;
},
{
associatedMasterId = "AE502CCD-A4D0-4FF0-92B5-8B29CDC657FD";
layerId = "F56E8734-1484-4224-A9F7-A1BC9F51E7C4";
width = 600;
},
{
associatedMasterId = "AE502CCD-A4D0-4FF0-92B5-8B29CDC657FD";
layerId = "5549591F-845F-40B4-A866-64BC6B8F97EE";
paths = (
{
closed = 1;
nodes = (
"120 0 LINE",
"120 520 LINE",
"400 520 LINE",
"400 0 LINE",
"450 0 LINE",
"450 784 LINE",
"70 784 LINE",
"70 0 LINE"
);
},
{
closed = 1;
nodes = (
"120 734 LINE",
"400 734 LINE",
"400 570 LINE",
"120 570 LINE"
);
},
{
closed = 1;
nodes = (
"260 948 LINE",
"260 998 LINE",
"70 998 LINE",
"70 948 LINE"
);
}
);
width = 520;
},
{
associatedMasterId = "AE502CCD-A4D0-4FF0-92B5-8B29CDC657FD";
layerId = "C9E235C8-514E-416C-8441-E07248ED1091";
width = 600;
},
{
associatedMasterId = "AE502CCD-A4D0-4FF0-92B5-8B29CDC657FD";
layerId = "81BB4AEA-8916-4AE0-B8A3-A60E82DA9882";
paths = (
{
closed = 1;
nodes = (
"143 0 LINE",
"143 520 LINE",
"400 520 LINE",
"400 0 LINE",
"450 0 LINE",
"450 784 LINE",
"70 784 LINE",
"70 0 LINE"
);
},
{
closed = 1;
nodes = (
"143 734 LINE",
"400 734 LINE",
"400 570 LINE",
"143 570 LINE"
);
},
{
closed = 1;
nodes = (
"260 948 LINE",
"260 998 LINE",
"70 998 LINE",
"70 948 LINE"
);
}
);
width = 520;
},
{
associatedMasterId = "8A89AD82-2B0C-40F6-97CA-3AF9ED9FF3A8";
layerId = "909388F7-88C2-4DA9-AB96-B13A0726FCBB";
width = 910;
},
{
associatedMasterId = "8A89AD82-2B0C-40F6-97CA-3AF9ED9FF3A8";
layerId = "F87D14C9-5903-481B-804C-33DC195335B4";
width = 600;
},
{
associatedMasterId = "8A89AD82-2B0C-40F6-97CA-3AF9ED9FF3A8";
layerId = "8FB96A4E-229E-4098-A78A-4F2B3CDE8744";
width = 600;
},
{
associatedMasterId = "8A89AD82-2B0C-40F6-97CA-3AF9ED9FF3A8";
layerId = "01CD86E2-79E2-4EB2-AFCC-7332063034AB";
paths = (
{
closed = 1;
nodes = (
"235 0 LINE",
"235 482 LINE",
"360 482 LINE",
"360 0 LINE",
"450 0 LINE",
"450 784 LINE",
"70 784 LINE",
"70 0 LINE"
);
},
{
closed = 1;
nodes = (
"235 696 LINE",
"360 696 LINE",
"360 570 LINE",
"235 570 LINE"
);
},
{
closed = 1;
nodes = (
"260 910 LINE",
"260 998 LINE",
"70 998 LINE",
"70 910 LINE"
);
}
);
width = 520;
}
);
unicode = 00C0;
},
{
glyphname = Atilde;
lastChange = "2021-07-18 16:05:34 +0000";
layers = (
{
layerId = "8A89AD82-2B0C-40F6-97CA-3AF9ED9FF3A8";
paths = (
{
closed = 1;
nodes = (
"153 0 LINE",
"153 522 LINE",
"400 522 LINE",
"400 0 LINE",
"450 0 LINE",
"450 784 LINE",
"70 784 LINE",
"70 0 LINE"
);
},
{
closed = 1;
nodes = (
"153 736 LINE",
"400 736 LINE",
"400 570 LINE",
"153 570 LINE"
);
},
{
closed = 1;
nodes = (
"267 903 LINE",
"267 958 LINE",
"350 958 LINE",
"350 998 LINE",
"252 998 LINE",
"252 943 LINE",
"169 943 LINE",
"169 903 LINE"
);
}
);
width = 520;
},
{
layerId = "18468F94-9FC9-4171-B83A-16111EF84EF0";
paths = (
{
closed = 1;
nodes = (
"155 0 LINE",
"155 520 LINE",
"400 520 LINE",
"400 0 LINE",
"450 0 LINE",
"450 784 LINE",
"70 784 LINE",
"70 0 LINE"
);
},
{
closed = 1;
nodes = (
"155 734 LINE",
"400 734 LINE",
"400 570 LINE",
"155 570 LINE"
);
},
{
closed = 1;
nodes = (
"270 903 LINE",
"270 958 LINE",
"355 958 LINE",
"355 998 LINE",
"250 998 LINE",
"250 943 LINE",
"164 943 LINE",
"164 903 LINE"
);
}
);
width = 520;
},
{
associatedMasterId = "8A89AD82-2B0C-40F6-97CA-3AF9ED9FF3A8";
layerId = "0E3C4C3F-E86A-4E48-BA02-70EE699FECFC";
width = 600;
},
{
associatedMasterId = "8A89AD82-2B0C-40F6-97CA-3AF9ED9FF3A8";
layerId = "8877225F-9A4F-4FE9-9298-E786CE3C091C";
width = 600;
},
{
layerId = "5AF9D2C4-93A9-4350-9D2E-611822E0073C";
paths = (
{
closed = 1;
nodes = (
"155 0 LINE",
"155 500 LINE",
"380 500 LINE",
"380 0 LINE",
"450 0 LINE",
"450 784 LINE",
"70 784 LINE",
"70 0 LINE"
);
},
{
closed = 1;
nodes = (
"155 714 LINE",
"380 714 LINE",
"380 570 LINE",
"155 570 LINE"
);
},
{
closed = 1;
nodes = (
"277 878 LINE",
"277 938 LINE",
"362 938 LINE",
"362 998 LINE",
"242 998 LINE",
"242 938 LINE",
"157 938 LINE",
"157 878 LINE"
);
}
);
width = 520;
},
{
associatedMasterId = "8A89AD82-2B0C-40F6-97CA-3AF9ED9FF3A8";
layerId = "175EC1D6-1DFB-48D4-8635-0B6059DF0927";
paths = (
{
closed = 1;
nodes = (
"120 0 LINE",
"120 520 LINE",
"400 520 LINE",
"400 0 LINE",
"450 0 LINE",
"450 784 LINE",
"70 784 LINE",
"70 0 LINE"
);
},
{
closed = 1;
nodes = (
"120 734 LINE",
"400 734 LINE",
"400 570 LINE",
"120 570 LINE"
);
},
{
closed = 1;
nodes = (
"267 898 LINE",
"267 948 LINE",
"357 948 LINE",
"357 998 LINE",
"252 998 LINE",
"252 948 LINE",
"152 948 LINE",
"152 898 LINE"
);
}
);
width = 520;
},
{
associatedMasterId = "8A89AD82-2B0C-40F6-97CA-3AF9ED9FF3A8";
layerId = "2CD66A9C-B153-4A14-8403-503AAB71A842";
width = 600;
},
{
associatedMasterId = "8A89AD82-2B0C-40F6-97CA-3AF9ED9FF3A8";
layerId = "D5A259FC-BD70-44C4-B3C5-408723CBA272";
paths = (
{
closed = 1;
nodes = (
"143 0 LINE",
"143 520 LINE",
"400 520 LINE",
"400 0 LINE",
"450 0 LINE",
"450 784 LINE",
"70 784 LINE",
"70 0 LINE"
);
},
{
closed = 1;
nodes = (
"143 734 LINE",
"400 734 LINE",
"400 570 LINE",
"143 570 LINE"
);
},
{
closed = 1;
nodes = (
"267 901 LINE",
"267 955 LINE",
"354 955 LINE",
"354 998 LINE",
"252 998 LINE",
"252 945 LINE",
"162 945 LINE",
"162 901 LINE"
);
}
);
width = 520;
},
{
layerId = "AE502CCD-A4D0-4FF0-92B5-8B29CDC657FD";
paths = (
{
closed = 1;
nodes = (
"235 0 LINE",
"235 522 LINE",
"400 522 LINE",
"400 0 LINE",
"450 0 LINE",
"450 784 LINE",
"70 784 LINE",
"70 0 LINE"
);
},
{
closed = 1;
nodes = (
"235 736 LINE",
"400 736 LINE",
"400 570 LINE",
"235 570 LINE"
);
},
{
closed = 1;
nodes = (
"267 903 LINE",
"267 958 LINE",
"350 958 LINE",
"350 998 LINE",
"252 998 LINE",
"252 943 LINE",
"169 943 LINE",
"169 903 LINE"
);
}
);
width = 520;
},
{
associatedMasterId = "AE502CCD-A4D0-4FF0-92B5-8B29CDC657FD";
layerId = "6DD362EE-CB9E-40A8-97D8-CF9DC956F831";
width = 600;
},
{
associatedMasterId = "AE502CCD-A4D0-4FF0-92B5-8B29CDC657FD";
layerId = "EB5A7211-EE85-424F-9CB9-69C869822379";
width = 600;
},
{
associatedMasterId = "AE502CCD-A4D0-4FF0-92B5-8B29CDC657FD";
layerId = "989E4CA6-DC92-4721-8620-61B8E3527833";
paths = (
{
closed = 1;
nodes = (
"120 0 LINE",
"120 520 LINE",
"400 520 LINE",
"400 0 LINE",
"450 0 LINE",
"450 784 LINE",
"70 784 LINE",
"70 0 LINE"
);
},
{
closed = 1;
nodes = (
"120 734 LINE",
"400 734 LINE",
"400 570 LINE",
"120 570 LINE"
);
},
{
closed = 1;
nodes = (
"267 898 LINE",
"267 948 LINE",
"357 948 LINE",
"357 998 LINE",
"252 998 LINE",
"252 948 LINE",
"152 948 LINE",
"152 898 LINE"
);
}
);
width = 520;
},
{
associatedMasterId = "AE502CCD-A4D0-4FF0-92B5-8B29CDC657FD";
layerId = "6216B7B4-650B-4C2D-BC0B-227814FCBBEF";
width = 600;
},
{
associatedMasterId = "AE502CCD-A4D0-4FF0-92B5-8B29CDC657FD";
layerId = "2E3415B6-BAC5-49C6-B5BB-87FBD87A7D56";
paths = (
{
closed = 1;
nodes = (
"143 0 LINE",
"143 520 LINE",
"400 520 LINE",
"400 0 LINE",
"450 0 LINE",
"450 784 LINE",
"70 784 LINE",
"70 0 LINE"
);
},
{
closed = 1;
nodes = (
"143 734 LINE",
"400 734 LINE",
"400 570 LINE",
"143 570 LINE"
);
},
{
closed = 1;
nodes = (
"267 901 LINE",
"267 955 LINE",
"354 955 LINE",
"354 998 LINE",
"252 998 LINE",
"252 945 LINE",
"162 945 LINE",
"162 901 LINE"
);
}
);
width = 520;
},
{
associatedMasterId = "8A89AD82-2B0C-40F6-97CA-3AF9ED9FF3A8";
layerId = "909388F7-88C2-4DA9-AB96-B13A0726FCBB";
width = 910;
},
{
associatedMasterId = "8A89AD82-2B0C-40F6-97CA-3AF9ED9FF3A8";
layerId = "F87D14C9-5903-481B-804C-33DC195335B4";
width = 600;
},
{
associatedMasterId = "8A89AD82-2B0C-40F6-97CA-3AF9ED9FF3A8";
layerId = "8FB96A4E-229E-4098-A78A-4F2B3CDE8744";
width = 600;
},
{
associatedMasterId = "8A89AD82-2B0C-40F6-97CA-3AF9ED9FF3A8";
layerId = "01CD86E2-79E2-4EB2-AFCC-7332063034AB";
paths = (
{
closed = 1;
nodes = (
"235 0 LINE",
"235 482 LINE",
"360 482 LINE",
"360 0 LINE",
"450 0 LINE",
"450 784 LINE",
"70 784 LINE",
"70 0 LINE"
);
},
{
closed = 1;
nodes = (
"235 696 LINE",
"360 696 LINE",
"360 570 LINE",
"235 570 LINE"
);
},
{
closed = 1;
nodes = (
"281 853 LINE",
"281 918 LINE",
"364 918 LINE",
"364 998 LINE",
"236 998 LINE",
"236 933 LINE",
"155 933 LINE",
"155 853 LINE"
);
}
);
width = 520;
}
);
unicode = 00C3;
},
{
glyphname = AE;
lastChange = "2021-07-18 16:05:34 +0000";
layers = (
{
layerId = "8A89AD82-2B0C-40F6-97CA-3AF9ED9FF3A8";
paths = (
{
closed = 1;
nodes = (
"153 0 LINE",
"153 522 LINE",
"400 522 LINE",
"400 0 LINE",
"730 0 LINE",
"730 48 LINE",
"483 48 LINE",
"483 522 LINE",
"730 522 LINE",
"730 570 LINE",
"483 570 LINE",
"483 736 LINE",
"730 736 LINE",
"730 784 LINE",
"70 784 LINE",
"70 0 LINE"
);
},
{
closed = 1;
nodes = (
"153 736 LINE",
"400 736 LINE",
"400 570 LINE",
"153 570 LINE"
);
}
);
width = 800;
},
{
layerId = "18468F94-9FC9-4171-B83A-16111EF84EF0";
paths = (
{
closed = 1;
nodes = (
"155 0 LINE",
"155 520 LINE",
"400 520 LINE",
"400 0 LINE",
"730 0 LINE",
"730 50 LINE",
"485 50 LINE",
"485 520 LINE",
"730 520 LINE",
"730 570 LINE",
"485 570 LINE",
"485 734 LINE",
"730 734 LINE",
"730 784 LINE",
"70 784 LINE",
"70 0 LINE"
);
},
{
closed = 1;
nodes = (
"155 734 LINE",
"400 734 LINE",
"400 570 LINE",
"155 570 LINE"
);
}
);
width = 800;
},
{
associatedMasterId = "8A89AD82-2B0C-40F6-97CA-3AF9ED9FF3A8";
layerId = "0E3C4C3F-E86A-4E48-BA02-70EE699FECFC";
width = 600;
},
{
associatedMasterId = "8A89AD82-2B0C-40F6-97CA-3AF9ED9FF3A8";
layerId = "8877225F-9A4F-4FE9-9298-E786CE3C091C";
width = 600;
},
{
layerId = "5AF9D2C4-93A9-4350-9D2E-611822E0073C";
paths = (
{
closed = 1;
nodes = (
"155 0 LINE",
"155 500 LINE",
"380 500 LINE",
"380 0 LINE",
"710 0 LINE",
"710 70 LINE",
"465 70 LINE",
"465 500 LINE",
"710 500 LINE",
"710 570 LINE",
"465 570 LINE",
"465 714 LINE",
"710 714 LINE",
"710 784 LINE",
"70 784 LINE",
"70 0 LINE"
);
},
{
closed = 1;
nodes = (
"155 714 LINE",
"380 714 LINE",
"380 570 LINE",
"155 570 LINE"
);
}
);
width = 780;
},
{
associatedMasterId = "8A89AD82-2B0C-40F6-97CA-3AF9ED9FF3A8";
layerId = "175EC1D6-1DFB-48D4-8635-0B6059DF0927";
paths = (
{
closed = 1;
nodes = (
"120 0 LINE",
"120 520 LINE",
"400 520 LINE",
"400 0 LINE",
"730 0 LINE",
"730 50 LINE",
"450 50 LINE",
"450 520 LINE",
"730 520 LINE",
"730 570 LINE",
"450 570 LINE",
"450 734 LINE",
"730 734 LINE",
"730 784 LINE",
"70 784 LINE",
"70 0 LINE"
);
},
{
closed = 1;
nodes = (
"120 734 LINE",
"400 734 LINE",
"400 570 LINE",
"120 570 LINE"
);
}
);
width = 800;
},
{
associatedMasterId = "8A89AD82-2B0C-40F6-97CA-3AF9ED9FF3A8";
layerId = "2CD66A9C-B153-4A14-8403-503AAB71A842";
width = 600;
},
{
associatedMasterId = "8A89AD82-2B0C-40F6-97CA-3AF9ED9FF3A8";
layerId = "D5A259FC-BD70-44C4-B3C5-408723CBA272";
paths = (
{
closed = 1;
nodes = (
"143 0 LINE",
"143 520 LINE",
"400 520 LINE",
"400 0 LINE",
"730 0 LINE",
"730 50 LINE",
"473 50 LINE",
"473 520 LINE",
"730 520 LINE",
"730 570 LINE",
"473 570 LINE",
"473 734 LINE",
"730 734 LINE",
"730 784 LINE",
"70 784 LINE",
"70 0 LINE"
);
},
{
closed = 1;
nodes = (
"143 734 LINE",
"400 734 LINE",
"400 570 LINE",
"143 570 LINE"
);
}
);
width = 800;
},
{
layerId = "AE502CCD-A4D0-4FF0-92B5-8B29CDC657FD";
paths = (
{
closed = 1;
nodes = (
"235 0 LINE",
"235 522 LINE",
"400 522 LINE",
"400 0 LINE",
"730 0 LINE",
"730 48 LINE",
"565 48 LINE",
"565 522 LINE",
"730 522 LINE",
"730 570 LINE",
"565 570 LINE",
"565 736 LINE",
"730 736 LINE",
"730 784 LINE",
"70 784 LINE",
"70 0 LINE"
);
},
{
closed = 1;
nodes = (
"235 736 LINE",
"400 736 LINE",
"400 570 LINE",
"235 570 LINE"
);
}
);
width = 800;
},
{
associatedMasterId = "AE502CCD-A4D0-4FF0-92B5-8B29CDC657FD";
layerId = "0B09CEEF-1356-4855-BB3B-326057441160";
width = 600;
},
{
associatedMasterId = "AE502CCD-A4D0-4FF0-92B5-8B29CDC657FD";
layerId = "F58D35E5-232A-4CB0-A456-DE4513A634F3";
width = 600;
},
{
associatedMasterId = "AE502CCD-A4D0-4FF0-92B5-8B29CDC657FD";
layerId = "CB27F92F-E1B3-47F5-9144-5E1E3D52B42A";
paths = (
{
closed = 1;
nodes = (
"120 0 LINE",
"120 520 LINE",
"400 520 LINE",
"400 0 LINE",
"730 0 LINE",
"730 50 LINE",
"450 50 LINE",
"450 520 LINE",
"730 520 LINE",
"730 570 LINE",
"450 570 LINE",
"450 734 LINE",
"730 734 LINE",
"730 784 LINE",
"70 784 LINE",
"70 0 LINE"
);
},
{
closed = 1;
nodes = (
"120 734 LINE",
"400 734 LINE",
"400 570 LINE",
"120 570 LINE"
);
}
);
width = 800;
},
{
associatedMasterId = "AE502CCD-A4D0-4FF0-92B5-8B29CDC657FD";
layerId = "4D573740-CB64-4F2C-9B3C-54BC67015B82";
width = 600;
},
{
associatedMasterId = "AE502CCD-A4D0-4FF0-92B5-8B29CDC657FD";
layerId = "A08BC94D-F58C-4B23-8BC0-BBDAC65DEE06";
paths = (
{
closed = 1;
nodes = (
"143 0 LINE",
"143 520 LINE",
"400 520 LINE",
"400 0 LINE",
"730 0 LINE",
"730 50 LINE",
"473 50 LINE",
"473 520 LINE",
"730 520 LINE",
"730 570 LINE",
"473 570 LINE",
"473 734 LINE",
"730 734 LINE",
"730 784 LINE",
"70 784 LINE",
"70 0 LINE"
);
},
{
closed = 1;
nodes = (
"143 734 LINE",
"400 734 LINE",
"400 570 LINE",
"143 570 LINE"
);
}
);
width = 800;
},
{
associatedMasterId = "8A89AD82-2B0C-40F6-97CA-3AF9ED9FF3A8";
layerId = "909388F7-88C2-4DA9-AB96-B13A0726FCBB";
width = 1400;
},
{
associatedMasterId = "8A89AD82-2B0C-40F6-97CA-3AF9ED9FF3A8";
layerId = "F87D14C9-5903-481B-804C-33DC195335B4";
width = 600;
},
{
associatedMasterId = "8A89AD82-2B0C-40F6-97CA-3AF9ED9FF3A8";
layerId = "8FB96A4E-229E-4098-A78A-4F2B3CDE8744";
width = 600;
},
{
associatedMasterId = "8A89AD82-2B0C-40F6-97CA-3AF9ED9FF3A8";
layerId = "01CD86E2-79E2-4EB2-AFCC-7332063034AB";
paths = (
{
closed = 1;
nodes = (
"235 0 LINE",
"235 482 LINE",
"360 482 LINE",
"360 0 LINE",
"690 0 LINE",
"690 88 LINE",
"525 88 LINE",
"525 482 LINE",
"690 482 LINE",
"690 570 LINE",
"525 570 LINE",
"525 696 LINE",
"690 696 LINE",
"690 784 LINE",
"70 784 LINE",
"70 0 LINE"
);
},
{
closed = 1;
nodes = (
"235 696 LINE",
"360 696 LINE",
"360 570 LINE",
"235 570 LINE"
);
}
);
width = 760;
}
);
unicode = 00C6;
},
{
glyphname = B;
lastChange = "2021-07-18 16:05:34 +0000";
layers = (
{
layerId = "8A89AD82-2B0C-40F6-97CA-3AF9ED9FF3A8";
paths = (
{
closed = 1;
nodes = (
"450 0 LINE",
"450 570 LINE",
"380 570 LINE",
"380 784 LINE",
"70 784 LINE",
"70 0 LINE"
);
},
{
closed = 1;
nodes = (
"153 520 LINE",
"400 520 LINE",
"400 48 LINE",
"153 48 LINE"
);
},
{
closed = 1;
nodes = (
"153 736 LINE",
"365 736 LINE",
"365 570 LINE",
"153 570 LINE"
);
}
);
width = 520;
},
{
layerId = "18468F94-9FC9-4171-B83A-16111EF84EF0";
paths = (
{
closed = 1;
nodes = (
"450 0 LINE",
"450 570 LINE",
"380 570 LINE",
"380 784 LINE",
"70 784 LINE",
"70 0 LINE"
);
},
{
closed = 1;
nodes = (
"155 520 LINE",
"400 520 LINE",
"400 50 LINE",
"155 50 LINE"
);
},
{
closed = 1;
nodes = (
"155 734 LINE",
"340 734 LINE",
"340 570 LINE",
"155 570 LINE"
);
}
);
width = 520;
},
{
associatedMasterId = "8A89AD82-2B0C-40F6-97CA-3AF9ED9FF3A8";
layerId = "0E3C4C3F-E86A-4E48-BA02-70EE699FECFC";
width = 600;
},
{
associatedMasterId = "8A89AD82-2B0C-40F6-97CA-3AF9ED9FF3A8";
layerId = "8877225F-9A4F-4FE9-9298-E786CE3C091C";
width = 600;
},
{
layerId = "5AF9D2C4-93A9-4350-9D2E-611822E0073C";
paths = (
{
closed = 1;
nodes = (
"450 0 LINE",
"450 570 LINE",
"380 570 LINE",
"380 784 LINE",
"70 784 LINE",
"70 0 LINE"
);
},
{
closed = 1;
nodes = (
"155 500 LINE",
"380 500 LINE",
"380 70 LINE",
"155 70 LINE"
);
},
{
closed = 1;
nodes = (
"155 714 LINE",
"310 714 LINE",
"310 570 LINE",
"155 570 LINE"
);
}
);
width = 520;
},
{
associatedMasterId = "8A89AD82-2B0C-40F6-97CA-3AF9ED9FF3A8";
layerId = "175EC1D6-1DFB-48D4-8635-0B6059DF0927";
paths = (
{
closed = 1;
nodes = (
"450 0 LINE",
"450 570 LINE",
"350 570 LINE",
"350 784 LINE",
"70 784 LINE",
"70 0 LINE"
);
},
{
closed = 1;
nodes = (
"120 520 LINE",
"400 520 LINE",
"400 50 LINE",
"120 50 LINE"
);
},
{
closed = 1;
nodes = (
"120 734 LINE",
"300 734 LINE",
"300 570 LINE",
"120 570 LINE"
);
}
);
width = 520;
},
{
associatedMasterId = "8A89AD82-2B0C-40F6-97CA-3AF9ED9FF3A8";
layerId = "2CD66A9C-B153-4A14-8403-503AAB71A842";
width = 600;
},
{
associatedMasterId = "8A89AD82-2B0C-40F6-97CA-3AF9ED9FF3A8";
layerId = "D5A259FC-BD70-44C4-B3C5-408723CBA272";
paths = (
{
closed = 1;
nodes = (
"450 0 LINE",
"450 570 LINE",
"383 570 LINE",
"383 784 LINE",
"70 784 LINE",
"70 0 LINE"
);
},
{
closed = 1;
nodes = (
"143 520 LINE",
"400 520 LINE",
"400 50 LINE",
"143 50 LINE"
);
},
{
closed = 1;
nodes = (
"143 734 LINE",
"340 734 LINE",
"340 570 LINE",
"143 570 LINE"
);
}
);
width = 520;
},
{
layerId = "AE502CCD-A4D0-4FF0-92B5-8B29CDC657FD";
paths = (
{
closed = 1;
nodes = (
"450 0 LINE",
"450 570 LINE",
"380 570 LINE",
"380 784 LINE",
"70 784 LINE",
"70 0 LINE"
);
},
{
closed = 1;
nodes = (
"235 520 LINE",
"400 520 LINE",
"400 48 LINE",
"235 48 LINE"
);
},
{
closed = 1;
nodes = (
"235 736 LINE",
"365 736 LINE",
"365 570 LINE",
"235 570 LINE"
);
}
);
width = 520;
},
{
associatedMasterId = "AE502CCD-A4D0-4FF0-92B5-8B29CDC657FD";
layerId = "9D2AAC12-8230-4DBA-B34E-4EB2B3501ECB";
width = 600;
},
{
associatedMasterId = "AE502CCD-A4D0-4FF0-92B5-8B29CDC657FD";
layerId = "ADF6FC69-C28E-444E-AB6E-AD4BFDA91980";
width = 600;
},
{
associatedMasterId = "AE502CCD-A4D0-4FF0-92B5-8B29CDC657FD";
layerId = "F848D5B8-7910-46C8-9034-11F801AEEB56";
paths = (
{
closed = 1;
nodes = (
"450 0 LINE",
"450 570 LINE",
"350 570 LINE",
"350 784 LINE",
"70 784 LINE",
"70 0 LINE"
);
},
{
closed = 1;
nodes = (
"120 520 LINE",
"400 520 LINE",
"400 50 LINE",
"120 50 LINE"
);
},
{
closed = 1;
nodes = (
"120 734 LINE",
"300 734 LINE",
"300 570 LINE",
"120 570 LINE"
);
}
);
width = 520;
},
{
associatedMasterId = "AE502CCD-A4D0-4FF0-92B5-8B29CDC657FD";
layerId = "16F3601C-99CB-4113-9BC1-CF07BA56E634";
width = 600;
},
{
associatedMasterId = "AE502CCD-A4D0-4FF0-92B5-8B29CDC657FD";
layerId = "7C9F6790-8109-4E52-BFBB-B4219574EA97";
paths = (
{
closed = 1;
nodes = (
"450 0 LINE",
"450 570 LINE",
"383 570 LINE",
"383 784 LINE",
"70 784 LINE",
"70 0 LINE"
);
},
{
closed = 1;
nodes = (
"143 520 LINE",
"400 520 LINE",
"400 50 LINE",
"143 50 LINE"
);
},
{
closed = 1;
nodes = (
"143 734 LINE",
"340 734 LINE",
"340 570 LINE",
"143 570 LINE"
);
}
);
width = 520;
},
{
associatedMasterId = "8A89AD82-2B0C-40F6-97CA-3AF9ED9FF3A8";
layerId = "909388F7-88C2-4DA9-AB96-B13A0726FCBB";
paths = (
{
closed = 1;
nodes = (
"450 0 LINE",
"450 570 LINE",
"365 570 LINE",
"365 784 LINE",
"70 784 LINE",
"70 0 LINE"
);
},
{
closed = 1;
nodes = (
"153 485 LINE",
"365 485 LINE",
"365 83 LINE",
"153 83 LINE"
);
},
{
closed = 1;
nodes = (
"153 701 LINE",
"298 701 LINE",
"298 570 LINE",
"153 570 LINE"
);
}
);
width = 520;
},
{
associatedMasterId = "8A89AD82-2B0C-40F6-97CA-3AF9ED9FF3A8";
layerId = "F87D14C9-5903-481B-804C-33DC195335B4";
width = 600;
},
{
associatedMasterId = "8A89AD82-2B0C-40F6-97CA-3AF9ED9FF3A8";
layerId = "8FB96A4E-229E-4098-A78A-4F2B3CDE8744";
width = 600;
},
{
associatedMasterId = "8A89AD82-2B0C-40F6-97CA-3AF9ED9FF3A8";
layerId = "01CD86E2-79E2-4EB2-AFCC-7332063034AB";
paths = (
{
closed = 1;
nodes = (
"450 0 LINE",
"450 570 LINE",
"380 570 LINE",
"380 784 LINE",
"70 784 LINE",
"70 0 LINE"
);
},
{
closed = 1;
nodes = (
"235 480 LINE",
"360 480 LINE",
"360 88 LINE",
"235 88 LINE"
);
},
{
closed = 1;
nodes = (
"235 696 LINE",
"305 696 LINE",
"305 570 LINE",
"235 570 LINE"
);
}
);
width = 520;
}
);
unicode = 0042;
},
{
glyphname = C;
lastChange = "2021-07-18 16:05:34 +0000";
layers = (
{
layerId = "8A89AD82-2B0C-40F6-97CA-3AF9ED9FF3A8";
paths = (
{
closed = 1;
nodes = (
"400 0 LINE",
"400 48 LINE",
"153 48 LINE",
"153 736 LINE",
"400 736 LINE",
"400 784 LINE",
"70 784 LINE",
"70 0 LINE"
);
}
);
width = 470;
},
{
layerId = "18468F94-9FC9-4171-B83A-16111EF84EF0";
paths = (
{
closed = 1;
nodes = (
"400 0 LINE",
"400 50 LINE",
"155 50 LINE",
"155 734 LINE",
"400 734 LINE",
"400 784 LINE",
"70 784 LINE",
"70 0 LINE"
);
}
);
width = 470;
},
{
associatedMasterId = "8A89AD82-2B0C-40F6-97CA-3AF9ED9FF3A8";
layerId = "0E3C4C3F-E86A-4E48-BA02-70EE699FECFC";
width = 600;
},
{
associatedMasterId = "8A89AD82-2B0C-40F6-97CA-3AF9ED9FF3A8";
layerId = "8877225F-9A4F-4FE9-9298-E786CE3C091C";
width = 600;
},
{
layerId = "5AF9D2C4-93A9-4350-9D2E-611822E0073C";
paths = (
{
closed = 1;
nodes = (
"400 0 LINE",
"400 70 LINE",
"155 70 LINE",
"155 714 LINE",
"400 714 LINE",
"400 784 LINE",
"70 784 LINE",
"70 0 LINE"
);
}
);
width = 470;
},
{
associatedMasterId = "8A89AD82-2B0C-40F6-97CA-3AF9ED9FF3A8";
layerId = "175EC1D6-1DFB-48D4-8635-0B6059DF0927";
paths = (
{
closed = 1;
nodes = (
"400 0 LINE",
"400 50 LINE",
"120 50 LINE",
"120 734 LINE",
"400 734 LINE",
"400 784 LINE",
"70 784 LINE",
"70 0 LINE"
);
}
);
width = 470;
},
{
associatedMasterId = "8A89AD82-2B0C-40F6-97CA-3AF9ED9FF3A8";
layerId = "2CD66A9C-B153-4A14-8403-503AAB71A842";
width = 600;
},
{
associatedMasterId = "8A89AD82-2B0C-40F6-97CA-3AF9ED9FF3A8";
layerId = "D5A259FC-BD70-44C4-B3C5-408723CBA272";
paths = (
{
closed = 1;
nodes = (
"400 0 LINE",
"400 50 LINE",
"143 50 LINE",
"143 734 LINE",
"400 734 LINE",
"400 784 LINE",
"70 784 LINE",
"70 0 LINE"
);
}
);
width = 470;
},
{
layerId = "AE502CCD-A4D0-4FF0-92B5-8B29CDC657FD";
paths = (
{
closed = 1;
nodes = (
"400 0 LINE",
"400 48 LINE",
"235 48 LINE",
"235 736 LINE",
"400 736 LINE",
"400 784 LINE",
"70 784 LINE",
"70 0 LINE"
);
}
);
width = 470;
},
{
associatedMasterId = "AE502CCD-A4D0-4FF0-92B5-8B29CDC657FD";
layerId = "910746C8-D3EC-4104-A25B-555A4ED9CC90";
width = 600;
},
{
associatedMasterId = "AE502CCD-A4D0-4FF0-92B5-8B29CDC657FD";
layerId = "904F48C3-8E07-44C1-B399-391E0CDBFC23";
width = 600;
},
{
associatedMasterId = "AE502CCD-A4D0-4FF0-92B5-8B29CDC657FD";
layerId = "6AD18B07-880F-4B39-BB87-DD32DC207577";
paths = (
{
closed = 1;
nodes = (
"400 0 LINE",
"400 50 LINE",
"120 50 LINE",
"120 734 LINE",
"400 734 LINE",
"400 784 LINE",
"70 784 LINE",
"70 0 LINE"
);
}
);
width = 470;
},
{
associatedMasterId = "AE502CCD-A4D0-4FF0-92B5-8B29CDC657FD";
layerId = "A8E51BAB-D01A-49E0-AC1D-F52ECA6EEFA9";
width = 600;
},
{
associatedMasterId = "AE502CCD-A4D0-4FF0-92B5-8B29CDC657FD";
layerId = "AC45470C-F465-446F-8599-A657D5F147B9";
paths = (
{
closed = 1;
nodes = (
"400 0 LINE",
"400 50 LINE",
"143 50 LINE",
"143 734 LINE",
"400 734 LINE",
"400 784 LINE",
"70 784 LINE",
"70 0 LINE"
);
}
);
width = 470;
},
{
associatedMasterId = "8A89AD82-2B0C-40F6-97CA-3AF9ED9FF3A8";
layerId = "909388F7-88C2-4DA9-AB96-B13A0726FCBB";
paths = (
{
closed = 1;
nodes = (
"400 0 LINE",
"400 83 LINE",
"153 83 LINE",
"153 701 LINE",
"400 701 LINE",
"400 784 LINE",
"70 784 LINE",
"70 0 LINE"
);
}
);
width = 470;
},
{
associatedMasterId = "8A89AD82-2B0C-40F6-97CA-3AF9ED9FF3A8";
layerId = "F87D14C9-5903-481B-804C-33DC195335B4";
width = 600;
},
{
associatedMasterId = "8A89AD82-2B0C-40F6-97CA-3AF9ED9FF3A8";
layerId = "8FB96A4E-229E-4098-A78A-4F2B3CDE8744";
width = 600;
},
{
associatedMasterId = "8A89AD82-2B0C-40F6-97CA-3AF9ED9FF3A8";
layerId = "01CD86E2-79E2-4EB2-AFCC-7332063034AB";
paths = (
{
closed = 1;
nodes = (
"400 0 LINE",
"400 88 LINE",
"235 88 LINE",
"235 696 LINE",
"400 696 LINE",
"400 784 LINE",
"70 784 LINE",
"70 0 LINE"
);
}
);
width = 470;
}
);
unicode = 0043;
},
{
glyphname = Ccedilla;
lastChange = "2021-07-18 16:05:34 +0000";
layers = (
{
layerId = "8A89AD82-2B0C-40F6-97CA-3AF9ED9FF3A8";
paths = (
{
closed = 1;
nodes = (
"265 -145 LINE",
"265 0 LINE",
"400 0 LINE",
"400 48 LINE",
"153 48 LINE",
"153 736 LINE",
"400 736 LINE",
"400 784 LINE",
"70 784 LINE",
"70 0 LINE",
"205 0 LINE",
"205 -145 LINE"
);
}
);
width = 470;
},
{
layerId = "18468F94-9FC9-4171-B83A-16111EF84EF0";
paths = (
{
closed = 1;
nodes = (
"265 -145 LINE",
"265 0 LINE",
"400 0 LINE",
"400 50 LINE",
"155 50 LINE",
"155 734 LINE",
"400 734 LINE",
"400 784 LINE",
"70 784 LINE",
"70 0 LINE",
"205 0 LINE",
"205 -145 LINE"
);
}
);
width = 470;
},
{
associatedMasterId = "8A89AD82-2B0C-40F6-97CA-3AF9ED9FF3A8";
layerId = "0E3C4C3F-E86A-4E48-BA02-70EE699FECFC";
width = 600;
},
{
associatedMasterId = "8A89AD82-2B0C-40F6-97CA-3AF9ED9FF3A8";
layerId = "8877225F-9A4F-4FE9-9298-E786CE3C091C";
width = 600;
},
{
layerId = "5AF9D2C4-93A9-4350-9D2E-611822E0073C";
paths = (
{
closed = 1;
nodes = (
"270 -140 LINE",
"270 0 LINE",
"400 0 LINE",
"400 70 LINE",
"155 70 LINE",
"155 714 LINE",
"400 714 LINE",
"400 784 LINE",
"70 784 LINE",
"70 0 LINE",
"200 0 LINE",
"200 -140 LINE"
);
}
);
width = 470;
},
{
associatedMasterId = "8A89AD82-2B0C-40F6-97CA-3AF9ED9FF3A8";
layerId = "175EC1D6-1DFB-48D4-8635-0B6059DF0927";
paths = (
{
closed = 1;
nodes = (
"260 -140 LINE",
"260 0 LINE",
"400 0 LINE",
"400 50 LINE",
"120 50 LINE",
"120 734 LINE",
"400 734 LINE",
"400 784 LINE",
"70 784 LINE",
"70 0 LINE",
"210 0 LINE",
"210 -140 LINE"
);
}
);
width = 470;
},
{
associatedMasterId = "8A89AD82-2B0C-40F6-97CA-3AF9ED9FF3A8";
layerId = "2CD66A9C-B153-4A14-8403-503AAB71A842";
width = 600;
},
{
associatedMasterId = "8A89AD82-2B0C-40F6-97CA-3AF9ED9FF3A8";
layerId = "D5A259FC-BD70-44C4-B3C5-408723CBA272";
paths = (
{
closed = 1;
nodes = (
"263 -143 LINE",
"263 0 LINE",
"400 0 LINE",
"400 50 LINE",
"143 50 LINE",
"143 734 LINE",
"400 734 LINE",
"400 784 LINE",
"70 784 LINE",
"70 0 LINE",
"207 0 LINE",
"207 -143 LINE"
);
}
);
width = 470;
},
{
layerId = "AE502CCD-A4D0-4FF0-92B5-8B29CDC657FD";
paths = (
{
closed = 1;
nodes = (
"300 -145 LINE",
"300 0 LINE",
"400 0 LINE",
"400 48 LINE",
"235 48 LINE",
"235 736 LINE",
"400 736 LINE",
"400 784 LINE",
"70 784 LINE",
"70 0 LINE",
"170 0 LINE",
"170 -145 LINE"
);
}
);
width = 470;
},
{
associatedMasterId = "AE502CCD-A4D0-4FF0-92B5-8B29CDC657FD";
layerId = "291ECBD9-E57F-4359-9D3D-624DAD33694D";
width = 600;
},
{
associatedMasterId = "AE502CCD-A4D0-4FF0-92B5-8B29CDC657FD";
layerId = "3DC473CA-7442-4F68-8621-CAAA0BF21C3C";
width = 600;
},
{
associatedMasterId = "AE502CCD-A4D0-4FF0-92B5-8B29CDC657FD";
layerId = "D7A70878-E5D4-4B6F-B39C-2475C4649DC4";
paths = (
{
closed = 1;
nodes = (
"260 -140 LINE",
"260 0 LINE",
"400 0 LINE",
"400 50 LINE",
"120 50 LINE",
"120 734 LINE",
"400 734 LINE",
"400 784 LINE",
"70 784 LINE",
"70 0 LINE",
"210 0 LINE",
"210 -140 LINE"
);
}
);
width = 470;
},
{
associatedMasterId = "AE502CCD-A4D0-4FF0-92B5-8B29CDC657FD";
layerId = "75940612-7D4C-4BDB-902C-35FC6010D7EC";
width = 600;
},
{
associatedMasterId = "AE502CCD-A4D0-4FF0-92B5-8B29CDC657FD";
layerId = "8223BBEE-74A4-4B81-9F89-302F146AC134";
paths = (
{
closed = 1;
nodes = (
"263 -143 LINE",
"263 0 LINE",
"400 0 LINE",
"400 50 LINE",
"143 50 LINE",
"143 734 LINE",
"400 734 LINE",
"400 784 LINE",
"70 784 LINE",
"70 0 LINE",
"207 0 LINE",
"207 -143 LINE"
);
}
);
width = 470;
},
{
associatedMasterId = "8A89AD82-2B0C-40F6-97CA-3AF9ED9FF3A8";
layerId = "909388F7-88C2-4DA9-AB96-B13A0726FCBB";
paths = (
{
closed = 1;
nodes = (
"274 -136 LINE",
"274 0 LINE",
"400 0 LINE",
"400 83 LINE",
"153 83 LINE",
"153 701 LINE",
"400 701 LINE",
"400 784 LINE",
"70 784 LINE",
"70 0 LINE",
"196 0 LINE",
"196 -136 LINE"
);
}
);
width = 470;
},
{
associatedMasterId = "8A89AD82-2B0C-40F6-97CA-3AF9ED9FF3A8";
layerId = "F87D14C9-5903-481B-804C-33DC195335B4";
width = 600;
},
{
associatedMasterId = "8A89AD82-2B0C-40F6-97CA-3AF9ED9FF3A8";
layerId = "8FB96A4E-229E-4098-A78A-4F2B3CDE8744";
width = 600;
},
{
associatedMasterId = "8A89AD82-2B0C-40F6-97CA-3AF9ED9FF3A8";
layerId = "01CD86E2-79E2-4EB2-AFCC-7332063034AB";
paths = (
{
closed = 1;
nodes = (
"310 -135 LINE",
"310 0 LINE",
"400 0 LINE",
"400 88 LINE",
"235 88 LINE",
"235 696 LINE",
"400 696 LINE",
"400 784 LINE",
"70 784 LINE",
"70 0 LINE",
"160 0 LINE",
"160 -135 LINE"
);
}
);
width = 470;
}
);
unicode = 00C7;
},
{
glyphname = D;
lastChange = "2021-07-18 16:05:34 +0000";
layers = (
{
layerId = "8A89AD82-2B0C-40F6-97CA-3AF9ED9FF3A8";
paths = (
{
closed = 1;
nodes = (
"350 0 LINE",
"350 98 LINE",
"450 98 LINE",
"450 784 LINE",
"70 784 LINE",
"70 0 LINE"
);
},
{
closed = 1;
nodes = (
"153 736 LINE",
"400 736 LINE",
"400 113 LINE",
"335 113 LINE",
"335 48 LINE",
"153 48 LINE"
);
}
);
width = 520;
},
{
layerId = "18468F94-9FC9-4171-B83A-16111EF84EF0";
paths = (
{
closed = 1;
nodes = (
"350 0 LINE",
"350 98 LINE",
"450 98 LINE",
"450 784 LINE",
"70 784 LINE",
"70 0 LINE"
);
},
{
closed = 1;
nodes = (
"155 734 LINE",
"400 734 LINE",
"400 138 LINE",
"310 138 LINE",
"310 50 LINE",
"155 50 LINE"
);
}
);
width = 520;
},
{
associatedMasterId = "8A89AD82-2B0C-40F6-97CA-3AF9ED9FF3A8";
layerId = "0E3C4C3F-E86A-4E48-BA02-70EE699FECFC";
width = 600;
},
{
associatedMasterId = "8A89AD82-2B0C-40F6-97CA-3AF9ED9FF3A8";
layerId = "8877225F-9A4F-4FE9-9298-E786CE3C091C";
width = 600;
},
{
layerId = "5AF9D2C4-93A9-4350-9D2E-611822E0073C";
paths = (
{
closed = 1;
nodes = (
"360 0 LINE",
"360 90 LINE",
"450 90 LINE",
"450 784 LINE",
"70 784 LINE",
"70 0 LINE"
);
},
{
closed = 1;
nodes = (
"155 714 LINE",
"380 714 LINE",
"380 160 LINE",
"290 160 LINE",
"290 70 LINE",
"155 70 LINE"
);
}
);
width = 520;
},
{
associatedMasterId = "8A89AD82-2B0C-40F6-97CA-3AF9ED9FF3A8";
layerId = "175EC1D6-1DFB-48D4-8635-0B6059DF0927";
paths = (
{
closed = 1;
nodes = (
"350 0 LINE",
"350 100 LINE",
"450 100 LINE",
"450 784 LINE",
"70 784 LINE",
"70 0 LINE"
);
},
{
closed = 1;
nodes = (
"120 734 LINE",
"400 734 LINE",
"400 150 LINE",
"300 150 LINE",
"300 50 LINE",
"120 50 LINE"
);
}
);
width = 520;
},
{
associatedMasterId = "8A89AD82-2B0C-40F6-97CA-3AF9ED9FF3A8";
layerId = "2CD66A9C-B153-4A14-8403-503AAB71A842";
width = 600;
},
{
associatedMasterId = "8A89AD82-2B0C-40F6-97CA-3AF9ED9FF3A8";
layerId = "D5A259FC-BD70-44C4-B3C5-408723CBA272";
paths = (
{
closed = 1;
nodes = (
"350 0 LINE",
"350 99 LINE",
"450 99 LINE",
"450 784 LINE",
"70 784 LINE",
"70 0 LINE"
);
},
{
closed = 1;
nodes = (
"143 734 LINE",
"400 734 LINE",
"400 142 LINE",
"307 142 LINE",
"307 50 LINE",
"143 50 LINE"
);
}
);
width = 520;
},
{
layerId = "AE502CCD-A4D0-4FF0-92B5-8B29CDC657FD";
paths = (
{
closed = 1;
nodes = (
"350 0 LINE",
"350 98 LINE",
"450 98 LINE",
"450 784 LINE",
"70 784 LINE",
"70 0 LINE"
);
},
{
closed = 1;
nodes = (
"235 736 LINE",
"400 736 LINE",
"400 113 LINE",
"335 113 LINE",
"335 48 LINE",
"235 48 LINE"
);
}
);
width = 520;
},
{
associatedMasterId = "AE502CCD-A4D0-4FF0-92B5-8B29CDC657FD";
layerId = "F4FCF363-CF92-4683-B501-75376417EB5B";
width = 600;
},
{
associatedMasterId = "AE502CCD-A4D0-4FF0-92B5-8B29CDC657FD";
layerId = "F103A02B-24E7-4D70-90AD-B35387781444";
width = 600;
},
{
associatedMasterId = "AE502CCD-A4D0-4FF0-92B5-8B29CDC657FD";
layerId = "1F602428-E11B-403A-8231-CA4B53D60E45";
paths = (
{
closed = 1;
nodes = (
"350 0 LINE",
"350 100 LINE",
"450 100 LINE",
"450 784 LINE",
"70 784 LINE",
"70 0 LINE"
);
},
{
closed = 1;
nodes = (
"120 734 LINE",
"400 734 LINE",
"400 150 LINE",
"300 150 LINE",
"300 50 LINE",
"120 50 LINE"
);
}
);
width = 520;
},
{
associatedMasterId = "AE502CCD-A4D0-4FF0-92B5-8B29CDC657FD";
layerId = "1EE78DDD-F25C-4F42-ABD0-7A02ACE85274";
width = 600;
},
{
associatedMasterId = "AE502CCD-A4D0-4FF0-92B5-8B29CDC657FD";
layerId = "BD63171B-6C96-4C94-8139-30ED4DFAC65F";
paths = (
{
closed = 1;
nodes = (
"350 0 LINE",
"350 99 LINE",
"450 99 LINE",
"450 784 LINE",
"70 784 LINE",
"70 0 LINE"
);
},
{
closed = 1;
nodes = (
"143 734 LINE",
"400 734 LINE",
"400 142 LINE",
"307 142 LINE",
"307 50 LINE",
"143 50 LINE"
);
}
);
width = 520;
},
{
associatedMasterId = "8A89AD82-2B0C-40F6-97CA-3AF9ED9FF3A8";
layerId = "909388F7-88C2-4DA9-AB96-B13A0726FCBB";
paths = (
{
closed = 1;
nodes = (
"368 0 LINE",
"368 84 LINE",
"450 84 LINE",
"450 784 LINE",
"70 784 LINE",
"70 0 LINE"
);
},
{
closed = 1;
nodes = (
"153 701 LINE",
"365 701 LINE",
"365 152 LINE",
"300 152 LINE",
"300 83 LINE",
"153 83 LINE"
);
}
);
width = 520;
},
{
associatedMasterId = "8A89AD82-2B0C-40F6-97CA-3AF9ED9FF3A8";
layerId = "F87D14C9-5903-481B-804C-33DC195335B4";
width = 600;
},
{
associatedMasterId = "8A89AD82-2B0C-40F6-97CA-3AF9ED9FF3A8";
layerId = "8FB96A4E-229E-4098-A78A-4F2B3CDE8744";
width = 600;
},
{
associatedMasterId = "8A89AD82-2B0C-40F6-97CA-3AF9ED9FF3A8";
layerId = "01CD86E2-79E2-4EB2-AFCC-7332063034AB";
paths = (
{
closed = 1;
nodes = (
"370 0 LINE",
"370 82 LINE",
"450 82 LINE",
"450 784 LINE",
"70 784 LINE",
"70 0 LINE"
);
},
{
closed = 1;
nodes = (
"235 696 LINE",
"360 696 LINE",
"360 157 LINE",
"295 157 LINE",
"295 88 LINE",
"235 88 LINE"
);
}
);
width = 520;
}
);
unicode = 0044;
},
{
glyphname = E;
lastChange = "2021-07-18 17:37:30 +0000";
layers = (
{
layerId = "8A89AD82-2B0C-40F6-97CA-3AF9ED9FF3A8";
paths = (
{
closed = 1;
nodes = (
"400 0 LINE",
"400 48 LINE",
"153 48 LINE",
"153 522 LINE",
"400 522 LINE",
"400 570 LINE",
"153 570 LINE",
"153 736 LINE",
"400 736 LINE",
"400 784 LINE",
"70 784 LINE",
"70 0 LINE"
);
}
);
width = 470;
},
{
layerId = "18468F94-9FC9-4171-B83A-16111EF84EF0";
paths = (
{
closed = 1;
nodes = (
"400 0 LINE",
"400 50 LINE",
"155 50 LINE",
"155 520 LINE",
"400 520 LINE",
"400 570 LINE",
"155 570 LINE",
"155 734 LINE",
"400 734 LINE",
"400 784 LINE",
"70 784 LINE",
"70 0 LINE"
);
}
);
width = 470;
},
{
layerId = "AE502CCD-A4D0-4FF0-92B5-8B29CDC657FD";
paths = (
{
closed = 1;
nodes = (
"400 0 LINE",
"400 48 LINE",
"235 48 LINE",
"235 522 LINE",
"400 522 LINE",
"400 570 LINE",
"235 570 LINE",
"235 736 LINE",
"400 736 LINE",
"400 784 LINE",
"70 784 LINE",
"70 0 LINE"
);
}
);
width = 470;
},
{
layerId = "5AF9D2C4-93A9-4350-9D2E-611822E0073C";
paths = (
{
closed = 1;
nodes = (
"400 0 LINE",
"400 70 LINE",
"155 70 LINE",
"155 500 LINE",
"400 500 LINE",
"400 570 LINE",
"155 570 LINE",
"155 714 LINE",
"400 714 LINE",
"400 784 LINE",
"70 784 LINE",
"70 0 LINE"
);
}
);
width = 470;
}
);
unicode = 0045;
},
{
glyphname = Eacute;
lastChange = "2021-07-18 16:05:34 +0000";
layers = (
{
layerId = "8A89AD82-2B0C-40F6-97CA-3AF9ED9FF3A8";
paths = (
{
closed = 1;
nodes = (
"400 0 LINE",
"400 48 LINE",
"153 48 LINE",
"153 522 LINE",
"400 522 LINE",
"400 570 LINE",
"153 570 LINE",
"153 736 LINE",
"400 736 LINE",
"400 784 LINE",
"70 784 LINE",
"70 0 LINE"
);
},
{
closed = 1;
nodes = (
"400 950 LINE",
"400 998 LINE",
"235 998 LINE",
"235 950 LINE"
);
}
);
width = 470;
},
{
layerId = "18468F94-9FC9-4171-B83A-16111EF84EF0";
paths = (
{
closed = 1;
nodes = (
"400 0 LINE",
"400 50 LINE",
"155 50 LINE",
"155 520 LINE",
"400 520 LINE",
"400 570 LINE",
"155 570 LINE",
"155 734 LINE",
"400 734 LINE",
"400 784 LINE",
"70 784 LINE",
"70 0 LINE"
);
},
{
closed = 1;
nodes = (
"400 948 LINE",
"400 998 LINE",
"235 998 LINE",
"235 948 LINE"
);
}
);
width = 470;
},
{
associatedMasterId = "8A89AD82-2B0C-40F6-97CA-3AF9ED9FF3A8";
layerId = "0E3C4C3F-E86A-4E48-BA02-70EE699FECFC";
width = 600;
},
{
associatedMasterId = "8A89AD82-2B0C-40F6-97CA-3AF9ED9FF3A8";
layerId = "8877225F-9A4F-4FE9-9298-E786CE3C091C";
width = 600;
},
{
layerId = "5AF9D2C4-93A9-4350-9D2E-611822E0073C";
paths = (
{
closed = 1;
nodes = (
"400 0 LINE",
"400 70 LINE",
"155 70 LINE",
"155 500 LINE",
"400 500 LINE",
"400 570 LINE",
"155 570 LINE",
"155 714 LINE",
"400 714 LINE",
"400 784 LINE",
"70 784 LINE",
"70 0 LINE"
);
},
{
closed = 1;
nodes = (
"400 928 LINE",
"400 998 LINE",
"235 998 LINE",
"235 928 LINE"
);
}
);
width = 470;
},
{
associatedMasterId = "8A89AD82-2B0C-40F6-97CA-3AF9ED9FF3A8";
layerId = "175EC1D6-1DFB-48D4-8635-0B6059DF0927";
paths = (
{
closed = 1;
nodes = (
"400 0 LINE",
"400 50 LINE",
"120 50 LINE",
"120 520 LINE",
"400 520 LINE",
"400 570 LINE",
"120 570 LINE",
"120 734 LINE",
"400 734 LINE",
"400 784 LINE",
"70 784 LINE",
"70 0 LINE"
);
},
{
closed = 1;
nodes = (
"400 948 LINE",
"400 998 LINE",
"235 998 LINE",
"235 948 LINE"
);
}
);
width = 470;
},
{
associatedMasterId = "8A89AD82-2B0C-40F6-97CA-3AF9ED9FF3A8";
layerId = "2CD66A9C-B153-4A14-8403-503AAB71A842";
width = 600;
},
{
associatedMasterId = "8A89AD82-2B0C-40F6-97CA-3AF9ED9FF3A8";
layerId = "D5A259FC-BD70-44C4-B3C5-408723CBA272";
paths = (
{
closed = 1;
nodes = (
"400 0 LINE",
"400 50 LINE",
"143 50 LINE",
"143 520 LINE",
"400 520 LINE",
"400 570 LINE",
"143 570 LINE",
"143 734 LINE",
"400 734 LINE",
"400 784 LINE",
"70 784 LINE",
"70 0 LINE"
);
},
{
closed = 1;
nodes = (
"400 948 LINE",
"400 998 LINE",
"235 998 LINE",
"235 948 LINE"
);
}
);
width = 470;
},
{
layerId = "AE502CCD-A4D0-4FF0-92B5-8B29CDC657FD";
paths = (
{
closed = 1;
nodes = (
"400 0 LINE",
"400 48 LINE",
"235 48 LINE",
"235 522 LINE",
"400 522 LINE",
"400 570 LINE",
"235 570 LINE",
"235 736 LINE",
"400 736 LINE",
"400 784 LINE",
"70 784 LINE",
"70 0 LINE"
);
},
{
closed = 1;
nodes = (
"400 950 LINE",
"400 998 LINE",
"235 998 LINE",
"235 950 LINE"
);
}
);
width = 470;
},
{
associatedMasterId = "AE502CCD-A4D0-4FF0-92B5-8B29CDC657FD";
layerId = "9F8B62A5-A171-4093-9D3C-E2B1E2062D0C";
width = 600;
},
{
associatedMasterId = "AE502CCD-A4D0-4FF0-92B5-8B29CDC657FD";
layerId = "4FCAB679-9C8A-4060-82BE-AE32D83968F6";
width = 600;
},
{
associatedMasterId = "AE502CCD-A4D0-4FF0-92B5-8B29CDC657FD";
layerId = "6936B4BC-50B3-480D-A49E-9E354F015B1A";
paths = (
{
closed = 1;
nodes = (
"400 0 LINE",
"400 50 LINE",
"120 50 LINE",
"120 520 LINE",
"400 520 LINE",
"400 570 LINE",
"120 570 LINE",
"120 734 LINE",
"400 734 LINE",
"400 784 LINE",
"70 784 LINE",
"70 0 LINE"
);
},
{
closed = 1;
nodes = (
"400 948 LINE",
"400 998 LINE",
"235 998 LINE",
"235 948 LINE"
);
}
);
width = 470;
},
{
associatedMasterId = "AE502CCD-A4D0-4FF0-92B5-8B29CDC657FD";
layerId = "BD54D46E-AE77-4929-B794-9306F0AFE219";
width = 600;
},
{
associatedMasterId = "AE502CCD-A4D0-4FF0-92B5-8B29CDC657FD";
layerId = "344D5762-A631-450A-A13C-F3D0687D9345";
paths = (
{
closed = 1;
nodes = (
"400 0 LINE",
"400 50 LINE",
"143 50 LINE",
"143 520 LINE",
"400 520 LINE",
"400 570 LINE",
"143 570 LINE",
"143 734 LINE",
"400 734 LINE",
"400 784 LINE",
"70 784 LINE",
"70 0 LINE"
);
},
{
closed = 1;
nodes = (
"400 948 LINE",
"400 998 LINE",
"235 998 LINE",
"235 948 LINE"
);
}
);
width = 470;
},
{
associatedMasterId = "8A89AD82-2B0C-40F6-97CA-3AF9ED9FF3A8";
layerId = "909388F7-88C2-4DA9-AB96-B13A0726FCBB";
width = 823;
},
{
associatedMasterId = "8A89AD82-2B0C-40F6-97CA-3AF9ED9FF3A8";
layerId = "F87D14C9-5903-481B-804C-33DC195335B4";
width = 600;
},
{
associatedMasterId = "8A89AD82-2B0C-40F6-97CA-3AF9ED9FF3A8";
layerId = "8FB96A4E-229E-4098-A78A-4F2B3CDE8744";
width = 600;
},
{
associatedMasterId = "8A89AD82-2B0C-40F6-97CA-3AF9ED9FF3A8";
layerId = "01CD86E2-79E2-4EB2-AFCC-7332063034AB";
paths = (
{
closed = 1;
nodes = (
"400 0 LINE",
"400 88 LINE",
"235 88 LINE",
"235 482 LINE",
"400 482 LINE",
"400 570 LINE",
"235 570 LINE",
"235 696 LINE",
"400 696 LINE",
"400 784 LINE",
"70 784 LINE",
"70 0 LINE"
);
},
{
closed = 1;
nodes = (
"400 910 LINE",
"400 998 LINE",
"235 998 LINE",
"235 910 LINE"
);
}
);
width = 470;
}
);
unicode = 00C9;
},
{
glyphname = Ecircumflex;
lastChange = "2021-07-18 16:05:34 +0000";
layers = (
{
layerId = "8A89AD82-2B0C-40F6-97CA-3AF9ED9FF3A8";
paths = (
{
closed = 1;
nodes = (
"400 0 LINE",
"400 48 LINE",
"153 48 LINE",
"153 522 LINE",
"400 522 LINE",
"400 570 LINE",
"153 570 LINE",
"153 736 LINE",
"400 736 LINE",
"400 784 LINE",
"70 784 LINE",
"70 0 LINE"
);
},
{
closed = 1;
nodes = (
"400 950 LINE",
"400 998 LINE",
"70 998 LINE",
"70 950 LINE"
);
}
);
width = 470;
},
{
layerId = "18468F94-9FC9-4171-B83A-16111EF84EF0";
paths = (
{
closed = 1;
nodes = (
"400 0 LINE",
"400 50 LINE",
"155 50 LINE",
"155 520 LINE",
"400 520 LINE",
"400 570 LINE",
"155 570 LINE",
"155 734 LINE",
"400 734 LINE",
"400 784 LINE",
"70 784 LINE",
"70 0 LINE"
);
},
{
closed = 1;
nodes = (
"400 948 LINE",
"400 998 LINE",
"70 998 LINE",
"70 948 LINE"
);
}
);
width = 470;
},
{
associatedMasterId = "8A89AD82-2B0C-40F6-97CA-3AF9ED9FF3A8";
layerId = "0E3C4C3F-E86A-4E48-BA02-70EE699FECFC";
width = 600;
},
{
associatedMasterId = "8A89AD82-2B0C-40F6-97CA-3AF9ED9FF3A8";
layerId = "8877225F-9A4F-4FE9-9298-E786CE3C091C";
width = 600;
},
{
layerId = "5AF9D2C4-93A9-4350-9D2E-611822E0073C";
paths = (
{
closed = 1;
nodes = (
"400 0 LINE",
"400 70 LINE",
"155 70 LINE",
"155 500 LINE",
"400 500 LINE",
"400 570 LINE",
"155 570 LINE",
"155 714 LINE",
"400 714 LINE",
"400 784 LINE",
"70 784 LINE",
"70 0 LINE"
);
},
{
closed = 1;
nodes = (
"400 928 LINE",
"400 998 LINE",
"70 998 LINE",
"70 928 LINE"
);
}
);
width = 470;
},
{
associatedMasterId = "8A89AD82-2B0C-40F6-97CA-3AF9ED9FF3A8";
layerId = "175EC1D6-1DFB-48D4-8635-0B6059DF0927";
paths = (
{
closed = 1;
nodes = (
"400 0 LINE",
"400 50 LINE",
"120 50 LINE",
"120 520 LINE",
"400 520 LINE",
"400 570 LINE",
"120 570 LINE",
"120 734 LINE",
"400 734 LINE",
"400 784 LINE",
"70 784 LINE",
"70 0 LINE"
);
},
{
closed = 1;
nodes = (
"400 948 LINE",
"400 998 LINE",
"70 998 LINE",
"70 948 LINE"
);
}
);
width = 470;
},
{
associatedMasterId = "8A89AD82-2B0C-40F6-97CA-3AF9ED9FF3A8";
layerId = "2CD66A9C-B153-4A14-8403-503AAB71A842";
width = 600;
},
{
associatedMasterId = "8A89AD82-2B0C-40F6-97CA-3AF9ED9FF3A8";
layerId = "D5A259FC-BD70-44C4-B3C5-408723CBA272";
paths = (
{
closed = 1;
nodes = (
"400 0 LINE",
"400 50 LINE",
"143 50 LINE",
"143 520 LINE",
"400 520 LINE",
"400 570 LINE",
"143 570 LINE",
"143 734 LINE",
"400 734 LINE",
"400 784 LINE",
"70 784 LINE",
"70 0 LINE"
);
},
{
closed = 1;
nodes = (
"400 948 LINE",
"400 998 LINE",
"70 998 LINE",
"70 948 LINE"
);
}
);
width = 470;
},
{
layerId = "AE502CCD-A4D0-4FF0-92B5-8B29CDC657FD";
paths = (
{
closed = 1;
nodes = (
"400 0 LINE",
"400 48 LINE",
"235 48 LINE",
"235 522 LINE",
"400 522 LINE",
"400 570 LINE",
"235 570 LINE",
"235 736 LINE",
"400 736 LINE",
"400 784 LINE",
"70 784 LINE",
"70 0 LINE"
);
},
{
closed = 1;
nodes = (
"400 950 LINE",
"400 998 LINE",
"70 998 LINE",
"70 950 LINE"
);
}
);
width = 470;
},
{
associatedMasterId = "AE502CCD-A4D0-4FF0-92B5-8B29CDC657FD";
layerId = "57E918EF-C254-45ED-9F55-D03E8F3E75CB";
width = 600;
},
{
associatedMasterId = "AE502CCD-A4D0-4FF0-92B5-8B29CDC657FD";
layerId = "9EBDEDE5-B6BA-4D84-8822-C2CB58E84407";
width = 600;
},
{
associatedMasterId = "AE502CCD-A4D0-4FF0-92B5-8B29CDC657FD";
layerId = "417F37B7-4BAF-40AF-B157-68032B0EE30C";
paths = (
{
closed = 1;
nodes = (
"400 0 LINE",
"400 50 LINE",
"120 50 LINE",
"120 520 LINE",
"400 520 LINE",
"400 570 LINE",
"120 570 LINE",
"120 734 LINE",
"400 734 LINE",
"400 784 LINE",
"70 784 LINE",
"70 0 LINE"
);
},
{
closed = 1;
nodes = (
"400 948 LINE",
"400 998 LINE",
"70 998 LINE",
"70 948 LINE"
);
}
);
width = 470;
},
{
associatedMasterId = "AE502CCD-A4D0-4FF0-92B5-8B29CDC657FD";
layerId = "C65C313B-6A77-428F-80A5-D2B5D1AF8CAD";
width = 600;
},
{
associatedMasterId = "AE502CCD-A4D0-4FF0-92B5-8B29CDC657FD";
layerId = "7ADFA1B5-44CF-45F5-9597-3C684B49941E";
paths = (
{
closed = 1;
nodes = (
"400 0 LINE",
"400 50 LINE",
"143 50 LINE",
"143 520 LINE",
"400 520 LINE",
"400 570 LINE",
"143 570 LINE",
"143 734 LINE",
"400 734 LINE",
"400 784 LINE",
"70 784 LINE",
"70 0 LINE"
);
},
{
closed = 1;
nodes = (
"400 948 LINE",
"400 998 LINE",
"70 998 LINE",
"70 948 LINE"
);
}
);
width = 470;
},
{
associatedMasterId = "8A89AD82-2B0C-40F6-97CA-3AF9ED9FF3A8";
layerId = "909388F7-88C2-4DA9-AB96-B13A0726FCBB";
width = 823;
},
{
associatedMasterId = "8A89AD82-2B0C-40F6-97CA-3AF9ED9FF3A8";
layerId = "F87D14C9-5903-481B-804C-33DC195335B4";
width = 600;
},
{
associatedMasterId = "8A89AD82-2B0C-40F6-97CA-3AF9ED9FF3A8";
layerId = "8FB96A4E-229E-4098-A78A-4F2B3CDE8744";
width = 600;
},
{
associatedMasterId = "8A89AD82-2B0C-40F6-97CA-3AF9ED9FF3A8";
layerId = "01CD86E2-79E2-4EB2-AFCC-7332063034AB";
paths = (
{
closed = 1;
nodes = (
"400 0 LINE",
"400 88 LINE",
"235 88 LINE",
"235 482 LINE",
"400 482 LINE",
"400 570 LINE",
"235 570 LINE",
"235 696 LINE",
"400 696 LINE",
"400 784 LINE",
"70 784 LINE",
"70 0 LINE"
);
},
{
closed = 1;
nodes = (
"400 910 LINE",
"400 998 LINE",
"70 998 LINE",
"70 910 LINE"
);
}
);
width = 470;
}
);
unicode = 00CA;
},
{
glyphname = Edieresis;
lastChange = "2021-07-18 16:05:34 +0000";
layers = (
{
layerId = "8A89AD82-2B0C-40F6-97CA-3AF9ED9FF3A8";
paths = (
{
closed = 1;
nodes = (
"400 0 LINE",
"400 48 LINE",
"153 48 LINE",
"153 522 LINE",
"400 522 LINE",
"400 570 LINE",
"153 570 LINE",
"153 736 LINE",
"400 736 LINE",
"400 784 LINE",
"70 784 LINE",
"70 0 LINE"
);
},
{
closed = 1;
nodes = (
"193 950 LINE",
"193 998 LINE",
"110 998 LINE",
"110 950 LINE"
);
},
{
closed = 1;
nodes = (
"359 950 LINE",
"359 998 LINE",
"276 998 LINE",
"276 950 LINE"
);
}
);
width = 470;
},
{
layerId = "18468F94-9FC9-4171-B83A-16111EF84EF0";
paths = (
{
closed = 1;
nodes = (
"400 0 LINE",
"400 50 LINE",
"155 50 LINE",
"155 520 LINE",
"400 520 LINE",
"400 570 LINE",
"155 570 LINE",
"155 734 LINE",
"400 734 LINE",
"400 784 LINE",
"70 784 LINE",
"70 0 LINE"
);
},
{
closed = 1;
nodes = (
"193 948 LINE",
"193 998 LINE",
"108 998 LINE",
"108 948 LINE"
);
},
{
closed = 1;
nodes = (
"363 948 LINE",
"363 998 LINE",
"278 998 LINE",
"278 948 LINE"
);
}
);
width = 470;
},
{
associatedMasterId = "8A89AD82-2B0C-40F6-97CA-3AF9ED9FF3A8";
layerId = "0E3C4C3F-E86A-4E48-BA02-70EE699FECFC";
width = 600;
},
{
associatedMasterId = "8A89AD82-2B0C-40F6-97CA-3AF9ED9FF3A8";
layerId = "8877225F-9A4F-4FE9-9298-E786CE3C091C";
width = 600;
},
{
layerId = "5AF9D2C4-93A9-4350-9D2E-611822E0073C";
paths = (
{
closed = 1;
nodes = (
"400 0 LINE",
"400 70 LINE",
"155 70 LINE",
"155 500 LINE",
"400 500 LINE",
"400 570 LINE",
"155 570 LINE",
"155 714 LINE",
"400 714 LINE",
"400 784 LINE",
"70 784 LINE",
"70 0 LINE"
);
},
{
closed = 1;
nodes = (
"192 928 LINE",
"192 998 LINE",
"107 998 LINE",
"107 928 LINE"
);
},
{
closed = 1;
nodes = (
"362 928 LINE",
"362 998 LINE",
"277 998 LINE",
"277 928 LINE"
);
}
);
width = 470;
},
{
associatedMasterId = "8A89AD82-2B0C-40F6-97CA-3AF9ED9FF3A8";
layerId = "175EC1D6-1DFB-48D4-8635-0B6059DF0927";
paths = (
{
closed = 1;
nodes = (
"400 0 LINE",
"400 50 LINE",
"120 50 LINE",
"120 520 LINE",
"400 520 LINE",
"400 570 LINE",
"120 570 LINE",
"120 734 LINE",
"400 734 LINE",
"400 784 LINE",
"70 784 LINE",
"70 0 LINE"
);
},
{
closed = 1;
nodes = (
"210 948 LINE",
"210 998 LINE",
"160 998 LINE",
"160 948 LINE"
);
},
{
closed = 1;
nodes = (
"310 948 LINE",
"310 998 LINE",
"260 998 LINE",
"260 948 LINE"
);
}
);
width = 470;
},
{
associatedMasterId = "8A89AD82-2B0C-40F6-97CA-3AF9ED9FF3A8";
layerId = "2CD66A9C-B153-4A14-8403-503AAB71A842";
width = 600;
},
{
associatedMasterId = "8A89AD82-2B0C-40F6-97CA-3AF9ED9FF3A8";
layerId = "D5A259FC-BD70-44C4-B3C5-408723CBA272";
paths = (
{
closed = 1;
nodes = (
"400 0 LINE",
"400 50 LINE",
"143 50 LINE",
"143 520 LINE",
"400 520 LINE",
"400 570 LINE",
"143 570 LINE",
"143 734 LINE",
"400 734 LINE",
"400 784 LINE",
"70 784 LINE",
"70 0 LINE"
);
},
{
closed = 1;
nodes = (
"199 948 LINE",
"199 998 LINE",
"125 998 LINE",
"125 948 LINE"
);
},
{
closed = 1;
nodes = (
"345 948 LINE",
"345 998 LINE",
"272 998 LINE",
"272 948 LINE"
);
}
);
width = 470;
},
{
layerId = "AE502CCD-A4D0-4FF0-92B5-8B29CDC657FD";
paths = (
{
closed = 1;
nodes = (
"400 0 LINE",
"400 48 LINE",
"235 48 LINE",
"235 522 LINE",
"400 522 LINE",
"400 570 LINE",
"235 570 LINE",
"235 736 LINE",
"400 736 LINE",
"400 784 LINE",
"70 784 LINE",
"70 0 LINE"
);
},
{
closed = 1;
nodes = (
"193 950 LINE",
"193 998 LINE",
"110 998 LINE",
"110 950 LINE"
);
},
{
closed = 1;
nodes = (
"359 950 LINE",
"359 998 LINE",
"276 998 LINE",
"276 950 LINE"
);
}
);
width = 470;
},
{
associatedMasterId = "AE502CCD-A4D0-4FF0-92B5-8B29CDC657FD";
layerId = "7274CBCB-E222-4198-BC4F-2B001BC8B6EC";
width = 600;
},
{
associatedMasterId = "AE502CCD-A4D0-4FF0-92B5-8B29CDC657FD";
layerId = "CA233AF9-9C2D-47DB-BE11-D3F2DDB1FD19";
width = 600;
},
{
associatedMasterId = "AE502CCD-A4D0-4FF0-92B5-8B29CDC657FD";
layerId = "AB2CCB4D-0892-4A23-AC4A-8C808F9CFDBB";
paths = (
{
closed = 1;
nodes = (
"400 0 LINE",
"400 50 LINE",
"120 50 LINE",
"120 520 LINE",
"400 520 LINE",
"400 570 LINE",
"120 570 LINE",
"120 734 LINE",
"400 734 LINE",
"400 784 LINE",
"70 784 LINE",
"70 0 LINE"
);
},
{
closed = 1;
nodes = (
"210 948 LINE",
"210 998 LINE",
"160 998 LINE",
"160 948 LINE"
);
},
{
closed = 1;
nodes = (
"310 948 LINE",
"310 998 LINE",
"260 998 LINE",
"260 948 LINE"
);
}
);
width = 470;
},
{
associatedMasterId = "AE502CCD-A4D0-4FF0-92B5-8B29CDC657FD";
layerId = "7B9A1E73-95FE-4656-946F-3A2BCF07E70F";
width = 600;
},
{
associatedMasterId = "AE502CCD-A4D0-4FF0-92B5-8B29CDC657FD";
layerId = "16372D43-E6AC-442E-8D4C-94F7CF17A6BA";
paths = (
{
closed = 1;
nodes = (
"400 0 LINE",
"400 50 LINE",
"143 50 LINE",
"143 520 LINE",
"400 520 LINE",
"400 570 LINE",
"143 570 LINE",
"143 734 LINE",
"400 734 LINE",
"400 784 LINE",
"70 784 LINE",
"70 0 LINE"
);
},
{
closed = 1;
nodes = (
"199 948 LINE",
"199 998 LINE",
"125 998 LINE",
"125 948 LINE"
);
},
{
closed = 1;
nodes = (
"345 948 LINE",
"345 998 LINE",
"272 998 LINE",
"272 948 LINE"
);
}
);
width = 470;
},
{
associatedMasterId = "8A89AD82-2B0C-40F6-97CA-3AF9ED9FF3A8";
layerId = "909388F7-88C2-4DA9-AB96-B13A0726FCBB";
paths = (
{
closed = 1;
nodes = (
"400 0 LINE",
"400 83 LINE",
"153 83 LINE",
"153 487 LINE",
"400 487 LINE",
"400 570 LINE",
"153 570 LINE",
"153 701 LINE",
"400 701 LINE",
"400 784 LINE",
"70 784 LINE",
"70 0 LINE"
);
},
{
closed = 1;
nodes = (
"191 915 LINE",
"191 998 LINE",
"108 998 LINE",
"108 915 LINE"
);
},
{
closed = 1;
nodes = (
"357 915 LINE",
"357 998 LINE",
"274 998 LINE",
"274 915 LINE"
);
}
);
width = 470;
},
{
associatedMasterId = "8A89AD82-2B0C-40F6-97CA-3AF9ED9FF3A8";
layerId = "F87D14C9-5903-481B-804C-33DC195335B4";
width = 600;
},
{
associatedMasterId = "8A89AD82-2B0C-40F6-97CA-3AF9ED9FF3A8";
layerId = "8FB96A4E-229E-4098-A78A-4F2B3CDE8744";
width = 600;
},
{
associatedMasterId = "8A89AD82-2B0C-40F6-97CA-3AF9ED9FF3A8";
layerId = "01CD86E2-79E2-4EB2-AFCC-7332063034AB";
paths = (
{
closed = 1;
nodes = (
"400 0 LINE",
"400 88 LINE",
"235 88 LINE",
"235 482 LINE",
"400 482 LINE",
"400 570 LINE",
"235 570 LINE",
"235 696 LINE",
"400 696 LINE",
"400 784 LINE",
"70 784 LINE",
"70 0 LINE"
);
},
{
closed = 1;
nodes = (
"191 910 LINE",
"191 998 LINE",
"108 998 LINE",
"108 910 LINE"
);
},
{
closed = 1;
nodes = (
"357 910 LINE",
"357 998 LINE",
"274 998 LINE",
"274 910 LINE"
);
}
);
width = 470;
}
);
unicode = 00CB;
},
{
glyphname = Egrave;
lastChange = "2021-07-18 16:05:34 +0000";
layers = (
{
layerId = "8A89AD82-2B0C-40F6-97CA-3AF9ED9FF3A8";
paths = (
{
closed = 1;
nodes = (
"400 0 LINE",
"400 48 LINE",
"153 48 LINE",
"153 522 LINE",
"400 522 LINE",
"400 570 LINE",
"153 570 LINE",
"153 736 LINE",
"400 736 LINE",
"400 784 LINE",
"70 784 LINE",
"70 0 LINE"
);
},
{
closed = 1;
nodes = (
"235 950 LINE",
"235 998 LINE",
"70 998 LINE",
"70 950 LINE"
);
}
);
width = 470;
},
{
layerId = "18468F94-9FC9-4171-B83A-16111EF84EF0";
paths = (
{
closed = 1;
nodes = (
"400 0 LINE",
"400 50 LINE",
"155 50 LINE",
"155 520 LINE",
"400 520 LINE",
"400 570 LINE",
"155 570 LINE",
"155 734 LINE",
"400 734 LINE",
"400 784 LINE",
"70 784 LINE",
"70 0 LINE"
);
},
{
closed = 1;
nodes = (
"235 948 LINE",
"235 998 LINE",
"70 998 LINE",
"70 948 LINE"
);
}
);
width = 470;
},
{
associatedMasterId = "8A89AD82-2B0C-40F6-97CA-3AF9ED9FF3A8";
layerId = "0E3C4C3F-E86A-4E48-BA02-70EE699FECFC";
width = 600;
},
{
associatedMasterId = "8A89AD82-2B0C-40F6-97CA-3AF9ED9FF3A8";
layerId = "8877225F-9A4F-4FE9-9298-E786CE3C091C";
width = 600;
},
{
layerId = "5AF9D2C4-93A9-4350-9D2E-611822E0073C";
paths = (
{
closed = 1;
nodes = (
"400 0 LINE",
"400 70 LINE",
"155 70 LINE",
"155 500 LINE",
"400 500 LINE",
"400 570 LINE",
"155 570 LINE",
"155 714 LINE",
"400 714 LINE",
"400 784 LINE",
"70 784 LINE",
"70 0 LINE"
);
},
{
closed = 1;
nodes = (
"235 928 LINE",
"235 998 LINE",
"70 998 LINE",
"70 928 LINE"
);
}
);
width = 470;
},
{
associatedMasterId = "8A89AD82-2B0C-40F6-97CA-3AF9ED9FF3A8";
layerId = "175EC1D6-1DFB-48D4-8635-0B6059DF0927";
paths = (
{
closed = 1;
nodes = (
"400 0 LINE",
"400 50 LINE",
"120 50 LINE",
"120 520 LINE",
"400 520 LINE",
"400 570 LINE",
"120 570 LINE",
"120 734 LINE",
"400 734 LINE",
"400 784 LINE",
"70 784 LINE",
"70 0 LINE"
);
},
{
closed = 1;
nodes = (
"235 948 LINE",
"235 998 LINE",
"70 998 LINE",
"70 948 LINE"
);
}
);
width = 470;
},
{
associatedMasterId = "8A89AD82-2B0C-40F6-97CA-3AF9ED9FF3A8";
layerId = "2CD66A9C-B153-4A14-8403-503AAB71A842";
width = 600;
},
{
associatedMasterId = "8A89AD82-2B0C-40F6-97CA-3AF9ED9FF3A8";
layerId = "D5A259FC-BD70-44C4-B3C5-408723CBA272";
paths = (
{
closed = 1;
nodes = (
"400 0 LINE",
"400 50 LINE",
"143 50 LINE",
"143 520 LINE",
"400 520 LINE",
"400 570 LINE",
"143 570 LINE",
"143 734 LINE",
"400 734 LINE",
"400 784 LINE",
"70 784 LINE",
"70 0 LINE"
);
},
{
closed = 1;
nodes = (
"235 948 LINE",
"235 998 LINE",
"70 998 LINE",
"70 948 LINE"
);
}
);
width = 470;
},
{
layerId = "AE502CCD-A4D0-4FF0-92B5-8B29CDC657FD";
paths = (
{
closed = 1;
nodes = (
"400 0 LINE",
"400 48 LINE",
"235 48 LINE",
"235 522 LINE",
"400 522 LINE",
"400 570 LINE",
"235 570 LINE",
"235 736 LINE",
"400 736 LINE",
"400 784 LINE",
"70 784 LINE",
"70 0 LINE"
);
},
{
closed = 1;
nodes = (
"235 950 LINE",
"235 998 LINE",
"70 998 LINE",
"70 950 LINE"
);
}
);
width = 470;
},
{
associatedMasterId = "AE502CCD-A4D0-4FF0-92B5-8B29CDC657FD";
layerId = "AD9C1CE2-58C5-4424-A07D-8CC46D00DB40";
width = 600;
},
{
associatedMasterId = "AE502CCD-A4D0-4FF0-92B5-8B29CDC657FD";
layerId = "B58D9527-8A53-41D1-BE49-126EA03B9E1B";
width = 600;
},
{
associatedMasterId = "AE502CCD-A4D0-4FF0-92B5-8B29CDC657FD";
layerId = "346DC3A3-B351-467A-832C-6267CDF2BEAF";
paths = (
{
closed = 1;
nodes = (
"400 0 LINE",
"400 50 LINE",
"120 50 LINE",
"120 520 LINE",
"400 520 LINE",
"400 570 LINE",
"120 570 LINE",
"120 734 LINE",
"400 734 LINE",
"400 784 LINE",
"70 784 LINE",
"70 0 LINE"
);
},
{
closed = 1;
nodes = (
"235 948 LINE",
"235 998 LINE",
"70 998 LINE",
"70 948 LINE"
);
}
);
width = 470;
},
{
associatedMasterId = "AE502CCD-A4D0-4FF0-92B5-8B29CDC657FD";
layerId = "11C427B8-0004-4C4A-BD13-24C45DCB6C13";
width = 600;
},
{
associatedMasterId = "AE502CCD-A4D0-4FF0-92B5-8B29CDC657FD";
layerId = "396DBF68-BF14-4E9D-8321-33A15E044E92";
paths = (
{
closed = 1;
nodes = (
"400 0 LINE",
"400 50 LINE",
"143 50 LINE",
"143 520 LINE",
"400 520 LINE",
"400 570 LINE",
"143 570 LINE",
"143 734 LINE",
"400 734 LINE",
"400 784 LINE",
"70 784 LINE",
"70 0 LINE"
);
},
{
closed = 1;
nodes = (
"235 948 LINE",
"235 998 LINE",
"70 998 LINE",
"70 948 LINE"
);
}
);
width = 470;
},
{
associatedMasterId = "8A89AD82-2B0C-40F6-97CA-3AF9ED9FF3A8";
layerId = "909388F7-88C2-4DA9-AB96-B13A0726FCBB";
width = 823;
},
{
associatedMasterId = "8A89AD82-2B0C-40F6-97CA-3AF9ED9FF3A8";
layerId = "F87D14C9-5903-481B-804C-33DC195335B4";
width = 600;
},
{
associatedMasterId = "8A89AD82-2B0C-40F6-97CA-3AF9ED9FF3A8";
layerId = "8FB96A4E-229E-4098-A78A-4F2B3CDE8744";
width = 600;
},
{
associatedMasterId = "8A89AD82-2B0C-40F6-97CA-3AF9ED9FF3A8";
layerId = "01CD86E2-79E2-4EB2-AFCC-7332063034AB";
paths = (
{
closed = 1;
nodes = (
"400 0 LINE",
"400 88 LINE",
"235 88 LINE",
"235 482 LINE",
"400 482 LINE",
"400 570 LINE",
"235 570 LINE",
"235 696 LINE",
"400 696 LINE",
"400 784 LINE",
"70 784 LINE",
"70 0 LINE"
);
},
{
closed = 1;
nodes = (
"235 910 LINE",
"235 998 LINE",
"70 998 LINE",
"70 910 LINE"
);
}
);
width = 470;
}
);
unicode = 00C8;
},
{
glyphname = F;
lastChange = "2021-07-18 16:05:34 +0000";
layers = (
{
layerId = "8A89AD82-2B0C-40F6-97CA-3AF9ED9FF3A8";
paths = (
{
closed = 1;
nodes = (
"153 0 LINE",
"153 522 LINE",
"400 522 LINE",
"400 570 LINE",
"153 570 LINE",
"153 736 LINE",
"400 736 LINE",
"400 784 LINE",
"70 784 LINE",
"70 0 LINE"
);
}
);
width = 430;
},
{
layerId = "18468F94-9FC9-4171-B83A-16111EF84EF0";
paths = (
{
closed = 1;
nodes = (
"155 0 LINE",
"155 520 LINE",
"400 520 LINE",
"400 570 LINE",
"155 570 LINE",
"155 734 LINE",
"400 734 LINE",
"400 784 LINE",
"70 784 LINE",
"70 0 LINE"
);
}
);
width = 430;
},
{
associatedMasterId = "8A89AD82-2B0C-40F6-97CA-3AF9ED9FF3A8";
layerId = "0E3C4C3F-E86A-4E48-BA02-70EE699FECFC";
width = 600;
},
{
associatedMasterId = "8A89AD82-2B0C-40F6-97CA-3AF9ED9FF3A8";
layerId = "8877225F-9A4F-4FE9-9298-E786CE3C091C";
width = 600;
},
{
layerId = "5AF9D2C4-93A9-4350-9D2E-611822E0073C";
paths = (
{
closed = 1;
nodes = (
"155 0 LINE",
"155 500 LINE",
"400 500 LINE",
"400 570 LINE",
"155 570 LINE",
"155 714 LINE",
"400 714 LINE",
"400 784 LINE",
"70 784 LINE",
"70 0 LINE"
);
}
);
width = 430;
},
{
associatedMasterId = "8A89AD82-2B0C-40F6-97CA-3AF9ED9FF3A8";
layerId = "175EC1D6-1DFB-48D4-8635-0B6059DF0927";
paths = (
{
closed = 1;
nodes = (
"120 0 LINE",
"120 520 LINE",
"400 520 LINE",
"400 570 LINE",
"120 570 LINE",
"120 734 LINE",
"400 734 LINE",
"400 784 LINE",
"70 784 LINE",
"70 0 LINE"
);
}
);
width = 430;
},
{
associatedMasterId = "8A89AD82-2B0C-40F6-97CA-3AF9ED9FF3A8";
layerId = "2CD66A9C-B153-4A14-8403-503AAB71A842";
width = 600;
},
{
associatedMasterId = "8A89AD82-2B0C-40F6-97CA-3AF9ED9FF3A8";
layerId = "D5A259FC-BD70-44C4-B3C5-408723CBA272";
paths = (
{
closed = 1;
nodes = (
"143 0 LINE",
"143 520 LINE",
"400 520 LINE",
"400 570 LINE",
"143 570 LINE",
"143 734 LINE",
"400 734 LINE",
"400 784 LINE",
"70 784 LINE",
"70 0 LINE"
);
}
);
width = 430;
},
{
layerId = "AE502CCD-A4D0-4FF0-92B5-8B29CDC657FD";
paths = (
{
closed = 1;
nodes = (
"235 0 LINE",
"235 522 LINE",
"400 522 LINE",
"400 570 LINE",
"235 570 LINE",
"235 736 LINE",
"400 736 LINE",
"400 784 LINE",
"70 784 LINE",
"70 0 LINE"
);
}
);
width = 430;
},
{
associatedMasterId = "AE502CCD-A4D0-4FF0-92B5-8B29CDC657FD";
layerId = "30F36794-B303-487F-B4EB-530882E58D3B";
width = 600;
},
{
associatedMasterId = "AE502CCD-A4D0-4FF0-92B5-8B29CDC657FD";
layerId = "DC1788A2-8DA7-4DB9-9656-A796377ACF15";
width = 600;
},
{
associatedMasterId = "AE502CCD-A4D0-4FF0-92B5-8B29CDC657FD";
layerId = "23C53D22-76F4-4D2F-AAAC-68826C2FEE2F";
paths = (
{
closed = 1;
nodes = (
"120 0 LINE",
"120 520 LINE",
"400 520 LINE",
"400 570 LINE",
"120 570 LINE",
"120 734 LINE",
"400 734 LINE",
"400 784 LINE",
"70 784 LINE",
"70 0 LINE"
);
}
);
width = 430;
},
{
associatedMasterId = "AE502CCD-A4D0-4FF0-92B5-8B29CDC657FD";
layerId = "7BB2A97C-0CDD-44E8-9A98-35C7A8FC4F86";
width = 600;
},
{
associatedMasterId = "AE502CCD-A4D0-4FF0-92B5-8B29CDC657FD";
layerId = "4CE57EAB-8A25-4AF7-BDA3-B5D69C6466FF";
paths = (
{
closed = 1;
nodes = (
"143 0 LINE",
"143 520 LINE",
"400 520 LINE",
"400 570 LINE",
"143 570 LINE",
"143 734 LINE",
"400 734 LINE",
"400 784 LINE",
"70 784 LINE",
"70 0 LINE"
);
}
);
width = 430;
},
{
associatedMasterId = "8A89AD82-2B0C-40F6-97CA-3AF9ED9FF3A8";
layerId = "909388F7-88C2-4DA9-AB96-B13A0726FCBB";
paths = (
{
closed = 1;
nodes = (
"153 0 LINE",
"153 487 LINE",
"400 487 LINE",
"400 570 LINE",
"153 570 LINE",
"153 701 LINE",
"400 701 LINE",
"400 784 LINE",
"70 784 LINE",
"70 0 LINE"
);
}
);
width = 430;
},
{
associatedMasterId = "8A89AD82-2B0C-40F6-97CA-3AF9ED9FF3A8";
layerId = "F87D14C9-5903-481B-804C-33DC195335B4";
width = 600;
},
{
associatedMasterId = "8A89AD82-2B0C-40F6-97CA-3AF9ED9FF3A8";
layerId = "8FB96A4E-229E-4098-A78A-4F2B3CDE8744";
width = 600;
},
{
associatedMasterId = "8A89AD82-2B0C-40F6-97CA-3AF9ED9FF3A8";
layerId = "01CD86E2-79E2-4EB2-AFCC-7332063034AB";
paths = (
{
closed = 1;
nodes = (
"235 0 LINE",
"235 482 LINE",
"400 482 LINE",
"400 570 LINE",
"235 570 LINE",
"235 696 LINE",
"400 696 LINE",
"400 784 LINE",
"70 784 LINE",
"70 0 LINE"
);
}
);
width = 430;
}
);
unicode = 0046;
},
{
glyphname = G;
lastChange = "2021-07-18 17:25:04 +0000";
layers = (
{
layerId = "8A89AD82-2B0C-40F6-97CA-3AF9ED9FF3A8";
paths = (
{
closed = 1;
nodes = (
"400 0 LINE",
"400 570 LINE",
"238 570 LINE",
"238 520 LINE",
"385 520 LINE",
"385 50 LINE",
"155 50 LINE",
"155 734 LINE",
"400 734 LINE",
"400 784 LINE",
"70 784 LINE",
"70 0 LINE"
);
}
);
width = 470;
},
{
layerId = "18468F94-9FC9-4171-B83A-16111EF84EF0";
paths = (
{
closed = 1;
nodes = (
"400 0 LINE",
"400 570 LINE",
"240 570 LINE",
"240 520 LINE",
"360 520 LINE",
"360 50 LINE",
"155 50 LINE",
"155 734 LINE",
"400 734 LINE",
"400 784 LINE",
"70 784 LINE",
"70 0 LINE"
);
}
);
width = 470;
},
{
associatedMasterId = "8A89AD82-2B0C-40F6-97CA-3AF9ED9FF3A8";
layerId = "0E3C4C3F-E86A-4E48-BA02-70EE699FECFC";
width = 600;
},
{
associatedMasterId = "8A89AD82-2B0C-40F6-97CA-3AF9ED9FF3A8";
layerId = "8877225F-9A4F-4FE9-9298-E786CE3C091C";
width = 600;
},
{
layerId = "5AF9D2C4-93A9-4350-9D2E-611822E0073C";
paths = (
{
closed = 1;
nodes = (
"400 0 LINE",
"400 570 LINE",
"240 570 LINE",
"240 500 LINE",
"330 500 LINE",
"330 70 LINE",
"155 70 LINE",
"155 714 LINE",
"400 714 LINE",
"400 784 LINE",
"70 784 LINE",
"70 0 LINE"
);
}
);
width = 470;
},
{
associatedMasterId = "8A89AD82-2B0C-40F6-97CA-3AF9ED9FF3A8";
layerId = "175EC1D6-1DFB-48D4-8635-0B6059DF0927";
paths = (
{
closed = 1;
nodes = (
"400 0 LINE",
"400 570 LINE",
"205 570 LINE",
"205 520 LINE",
"350 520 LINE",
"350 50 LINE",
"120 50 LINE",
"120 734 LINE",
"400 734 LINE",
"400 784 LINE",
"70 784 LINE",
"70 0 LINE"
);
}
);
width = 470;
},
{
associatedMasterId = "8A89AD82-2B0C-40F6-97CA-3AF9ED9FF3A8";
layerId = "2CD66A9C-B153-4A14-8403-503AAB71A842";
width = 600;
},
{
associatedMasterId = "8A89AD82-2B0C-40F6-97CA-3AF9ED9FF3A8";
layerId = "D5A259FC-BD70-44C4-B3C5-408723CBA272";
paths = (
{
closed = 1;
nodes = (
"400 0 LINE",
"400 570 LINE",
"222 570 LINE",
"222 520 LINE",
"357 520 LINE",
"357 50 LINE",
"143 50 LINE",
"143 734 LINE",
"400 734 LINE",
"400 784 LINE",
"70 784 LINE",
"70 0 LINE"
);
}
);
width = 470;
},
{
layerId = "AE502CCD-A4D0-4FF0-92B5-8B29CDC657FD";
paths = (
{
closed = 1;
nodes = (
"400 0 LINE",
"400 570 LINE",
"318 570 LINE",
"318 520 LINE",
"385 520 LINE",
"385 50 LINE",
"235 50 LINE",
"235 734 LINE",
"400 734 LINE",
"400 784 LINE",
"70 784 LINE",
"70 0 LINE"
);
}
);
width = 470;
},
{
associatedMasterId = "AE502CCD-A4D0-4FF0-92B5-8B29CDC657FD";
layerId = "40522D52-D14D-4F32-A7E9-C8B2B1B5A1D8";
width = 600;
},
{
associatedMasterId = "AE502CCD-A4D0-4FF0-92B5-8B29CDC657FD";
layerId = "4FAC5435-55FF-4EF0-A6EE-0EA6B46729DB";
width = 600;
},
{
associatedMasterId = "AE502CCD-A4D0-4FF0-92B5-8B29CDC657FD";
layerId = "116927DB-110C-4CFA-86E8-1C11D5826A79";
paths = (
{
closed = 1;
nodes = (
"400 0 LINE",
"400 570 LINE",
"205 570 LINE",
"205 520 LINE",
"350 520 LINE",
"350 50 LINE",
"120 50 LINE",
"120 734 LINE",
"400 734 LINE",
"400 784 LINE",
"70 784 LINE",
"70 0 LINE"
);
}
);
width = 470;
},
{
associatedMasterId = "AE502CCD-A4D0-4FF0-92B5-8B29CDC657FD";
layerId = "77C97147-7420-435E-897A-54C31387D15C";
width = 600;
},
{
associatedMasterId = "AE502CCD-A4D0-4FF0-92B5-8B29CDC657FD";
layerId = "A8198492-74E9-4B7F-AFDA-083F00F16BAC";
paths = (
{
closed = 1;
nodes = (
"400 0 LINE",
"400 570 LINE",
"222 570 LINE",
"222 520 LINE",
"357 520 LINE",
"357 50 LINE",
"143 50 LINE",
"143 734 LINE",
"400 734 LINE",
"400 784 LINE",
"70 784 LINE",
"70 0 LINE"
);
}
);
width = 470;
},
{
associatedMasterId = "8A89AD82-2B0C-40F6-97CA-3AF9ED9FF3A8";
layerId = "909388F7-88C2-4DA9-AB96-B13A0726FCBB";
paths = (
{
closed = 1;
nodes = (
"400 0 LINE",
"400 570 LINE",
"252 570 LINE",
"252 487 LINE",
"333 487 LINE",
"333 83 LINE",
"153 83 LINE",
"153 701 LINE",
"400 701 LINE",
"400 784 LINE",
"70 784 LINE",
"70 0 LINE"
);
}
);
width = 470;
},
{
associatedMasterId = "8A89AD82-2B0C-40F6-97CA-3AF9ED9FF3A8";
layerId = "F87D14C9-5903-481B-804C-33DC195335B4";
width = 600;
},
{
associatedMasterId = "8A89AD82-2B0C-40F6-97CA-3AF9ED9FF3A8";
layerId = "8FB96A4E-229E-4098-A78A-4F2B3CDE8744";
width = 600;
},
{
associatedMasterId = "8A89AD82-2B0C-40F6-97CA-3AF9ED9FF3A8";
layerId = "01CD86E2-79E2-4EB2-AFCC-7332063034AB";
paths = (
{
closed = 1;
nodes = (
"450 0 LINE",
"450 570 LINE",
"338 570 LINE",
"338 482 LINE",
"375 482 LINE",
"375 88 LINE",
"235 88 LINE",
"235 696 LINE",
"450 696 LINE",
"450 784 LINE",
"70 784 LINE",
"70 0 LINE"
);
}
);
width = 520;
}
);
unicode = 0047;
},
{
glyphname = H;
lastChange = "2021-07-18 16:05:34 +0000";
layers = (
{
layerId = "8A89AD82-2B0C-40F6-97CA-3AF9ED9FF3A8";
paths = (
{
closed = 1;
nodes = (
"153 0 LINE",
"153 522 LINE",
"400 522 LINE",
"400 0 LINE",
"450 0 LINE",
"450 784 LINE",
"400 784 LINE",
"400 570 LINE",
"153 570 LINE",
"153 784 LINE",
"70 784 LINE",
"70 0 LINE"
);
}
);
width = 520;
},
{
layerId = "18468F94-9FC9-4171-B83A-16111EF84EF0";
paths = (
{
closed = 1;
nodes = (
"155 0 LINE",
"155 520 LINE",
"400 520 LINE",
"400 0 LINE",
"450 0 LINE",
"450 784 LINE",
"400 784 LINE",
"400 570 LINE",
"155 570 LINE",
"155 784 LINE",
"70 784 LINE",
"70 0 LINE"
);
}
);
width = 520;
},
{
associatedMasterId = "8A89AD82-2B0C-40F6-97CA-3AF9ED9FF3A8";
layerId = "0E3C4C3F-E86A-4E48-BA02-70EE699FECFC";
width = 600;
},
{
associatedMasterId = "8A89AD82-2B0C-40F6-97CA-3AF9ED9FF3A8";
layerId = "8877225F-9A4F-4FE9-9298-E786CE3C091C";
width = 600;
},
{
layerId = "5AF9D2C4-93A9-4350-9D2E-611822E0073C";
paths = (
{
closed = 1;
nodes = (
"155 0 LINE",
"155 500 LINE",
"380 500 LINE",
"380 0 LINE",
"450 0 LINE",
"450 784 LINE",
"380 784 LINE",
"380 570 LINE",
"155 570 LINE",
"155 784 LINE",
"70 784 LINE",
"70 0 LINE"
);
}
);
width = 520;
},
{
associatedMasterId = "8A89AD82-2B0C-40F6-97CA-3AF9ED9FF3A8";
layerId = "175EC1D6-1DFB-48D4-8635-0B6059DF0927";
paths = (
{
closed = 1;
nodes = (
"120 0 LINE",
"120 520 LINE",
"400 520 LINE",
"400 0 LINE",
"450 0 LINE",
"450 784 LINE",
"400 784 LINE",
"400 570 LINE",
"120 570 LINE",
"120 784 LINE",
"70 784 LINE",
"70 0 LINE"
);
}
);
width = 520;
},
{
associatedMasterId = "8A89AD82-2B0C-40F6-97CA-3AF9ED9FF3A8";
layerId = "2CD66A9C-B153-4A14-8403-503AAB71A842";
width = 600;
},
{
associatedMasterId = "8A89AD82-2B0C-40F6-97CA-3AF9ED9FF3A8";
layerId = "D5A259FC-BD70-44C4-B3C5-408723CBA272";
paths = (
{
closed = 1;
nodes = (
"143 0 LINE",
"143 520 LINE",
"400 520 LINE",
"400 0 LINE",
"450 0 LINE",
"450 784 LINE",
"400 784 LINE",
"400 570 LINE",
"143 570 LINE",
"143 784 LINE",
"70 784 LINE",
"70 0 LINE"
);
}
);
width = 520;
},
{
layerId = "AE502CCD-A4D0-4FF0-92B5-8B29CDC657FD";
paths = (
{
closed = 1;
nodes = (
"235 0 LINE",
"235 522 LINE",
"400 522 LINE",
"400 0 LINE",
"450 0 LINE",
"450 784 LINE",
"400 784 LINE",
"400 570 LINE",
"235 570 LINE",
"235 784 LINE",
"70 784 LINE",
"70 0 LINE"
);
}
);
width = 520;
},
{
associatedMasterId = "AE502CCD-A4D0-4FF0-92B5-8B29CDC657FD";
layerId = "17C1DFDF-E98A-4700-98AC-25402C290C11";
width = 600;
},
{
associatedMasterId = "AE502CCD-A4D0-4FF0-92B5-8B29CDC657FD";
layerId = "0F655550-FBC3-4D91-A625-5B338361C1F0";
width = 600;
},
{
associatedMasterId = "AE502CCD-A4D0-4FF0-92B5-8B29CDC657FD";
layerId = "F996F63D-AB01-4A4A-80EF-91C9888DA397";
paths = (
{
closed = 1;
nodes = (
"120 0 LINE",
"120 520 LINE",
"400 520 LINE",
"400 0 LINE",
"450 0 LINE",
"450 784 LINE",
"400 784 LINE",
"400 570 LINE",
"120 570 LINE",
"120 784 LINE",
"70 784 LINE",
"70 0 LINE"
);
}
);
width = 520;
},
{
associatedMasterId = "AE502CCD-A4D0-4FF0-92B5-8B29CDC657FD";
layerId = "0DE6DA68-FF20-42FC-AFBA-6F8716638D54";
width = 600;
},
{
associatedMasterId = "AE502CCD-A4D0-4FF0-92B5-8B29CDC657FD";
layerId = "59D76042-12C3-4B03-8B82-06AD9A50B325";
paths = (
{
closed = 1;
nodes = (
"143 0 LINE",
"143 520 LINE",
"400 520 LINE",
"400 0 LINE",
"450 0 LINE",
"450 784 LINE",
"400 784 LINE",
"400 570 LINE",
"143 570 LINE",
"143 784 LINE",
"70 784 LINE",
"70 0 LINE"
);
}
);
width = 520;
},
{
associatedMasterId = "8A89AD82-2B0C-40F6-97CA-3AF9ED9FF3A8";
layerId = "909388F7-88C2-4DA9-AB96-B13A0726FCBB";
paths = (
{
closed = 1;
nodes = (
"153 0 LINE",
"153 487 LINE",
"365 487 LINE",
"365 0 LINE",
"450 0 LINE",
"450 784 LINE",
"365 784 LINE",
"365 570 LINE",
"153 570 LINE",
"153 784 LINE",
"70 784 LINE",
"70 0 LINE"
);
}
);
width = 520;
},
{
associatedMasterId = "8A89AD82-2B0C-40F6-97CA-3AF9ED9FF3A8";
layerId = "F87D14C9-5903-481B-804C-33DC195335B4";
width = 600;
},
{
associatedMasterId = "8A89AD82-2B0C-40F6-97CA-3AF9ED9FF3A8";
layerId = "8FB96A4E-229E-4098-A78A-4F2B3CDE8744";
width = 600;
},
{
associatedMasterId = "8A89AD82-2B0C-40F6-97CA-3AF9ED9FF3A8";
layerId = "01CD86E2-79E2-4EB2-AFCC-7332063034AB";
paths = (
{
closed = 1;
nodes = (
"235 0 LINE",
"235 482 LINE",
"360 482 LINE",
"360 0 LINE",
"450 0 LINE",
"450 784 LINE",
"360 784 LINE",
"360 570 LINE",
"235 570 LINE",
"235 784 LINE",
"70 784 LINE",
"70 0 LINE"
);
}
);
width = 520;
}
);
unicode = 0048;
},
{
glyphname = I;
lastChange = "2021-07-18 16:05:34 +0000";
layers = (
{
layerId = "8A89AD82-2B0C-40F6-97CA-3AF9ED9FF3A8";
paths = (
{
closed = 1;
nodes = (
"153 0 LINE",
"153 784 LINE",
"70 784 LINE",
"70 0 LINE"
);
}
);
width = 223;
},
{
layerId = "18468F94-9FC9-4171-B83A-16111EF84EF0";
paths = (
{
closed = 1;
nodes = (
"155 0 LINE",
"155 784 LINE",
"70 784 LINE",
"70 0 LINE"
);
}
);
width = 225;
},
{
associatedMasterId = "8A89AD82-2B0C-40F6-97CA-3AF9ED9FF3A8";
layerId = "0E3C4C3F-E86A-4E48-BA02-70EE699FECFC";
width = 600;
},
{
associatedMasterId = "8A89AD82-2B0C-40F6-97CA-3AF9ED9FF3A8";
layerId = "8877225F-9A4F-4FE9-9298-E786CE3C091C";
width = 600;
},
{
layerId = "5AF9D2C4-93A9-4350-9D2E-611822E0073C";
paths = (
{
closed = 1;
nodes = (
"155 0 LINE",
"155 784 LINE",
"70 784 LINE",
"70 0 LINE"
);
}
);
width = 225;
},
{
associatedMasterId = "8A89AD82-2B0C-40F6-97CA-3AF9ED9FF3A8";
layerId = "175EC1D6-1DFB-48D4-8635-0B6059DF0927";
paths = (
{
closed = 1;
nodes = (
"120 0 LINE",
"120 784 LINE",
"70 784 LINE",
"70 0 LINE"
);
}
);
width = 190;
},
{
associatedMasterId = "8A89AD82-2B0C-40F6-97CA-3AF9ED9FF3A8";
layerId = "2CD66A9C-B153-4A14-8403-503AAB71A842";
width = 600;
},
{
associatedMasterId = "8A89AD82-2B0C-40F6-97CA-3AF9ED9FF3A8";
layerId = "D5A259FC-BD70-44C4-B3C5-408723CBA272";
paths = (
{
closed = 1;
nodes = (
"143 0 LINE",
"143 784 LINE",
"70 784 LINE",
"70 0 LINE"
);
}
);
width = 213;
},
{
layerId = "AE502CCD-A4D0-4FF0-92B5-8B29CDC657FD";
paths = (
{
closed = 1;
nodes = (
"200 0 LINE",
"200 784 LINE",
"70 784 LINE",
"70 0 LINE"
);
}
);
width = 270;
},
{
associatedMasterId = "AE502CCD-A4D0-4FF0-92B5-8B29CDC657FD";
layerId = "2AF4B68D-6435-464F-AF59-959A94A1A7DD";
width = 600;
},
{
associatedMasterId = "AE502CCD-A4D0-4FF0-92B5-8B29CDC657FD";
layerId = "AEDFA217-B32F-4133-9DAA-AA75B777E633";
width = 600;
},
{
associatedMasterId = "AE502CCD-A4D0-4FF0-92B5-8B29CDC657FD";
layerId = "300E085A-D6E2-4AF5-86CF-E1FD4234122A";
paths = (
{
closed = 1;
nodes = (
"120 0 LINE",
"120 784 LINE",
"70 784 LINE",
"70 0 LINE"
);
}
);
width = 190;
},
{
associatedMasterId = "AE502CCD-A4D0-4FF0-92B5-8B29CDC657FD";
layerId = "D9757AF8-48E4-41B6-B79C-78FF5F74C47C";
width = 600;
},
{
associatedMasterId = "AE502CCD-A4D0-4FF0-92B5-8B29CDC657FD";
layerId = "A289BC22-0FCC-4C79-8BEF-5F9C427EFD23";
paths = (
{
closed = 1;
nodes = (
"143 0 LINE",
"143 784 LINE",
"70 784 LINE",
"70 0 LINE"
);
}
);
width = 213;
},
{
associatedMasterId = "8A89AD82-2B0C-40F6-97CA-3AF9ED9FF3A8";
layerId = "909388F7-88C2-4DA9-AB96-B13A0726FCBB";
paths = (
{
closed = 1;
nodes = (
"153 0 LINE",
"153 784 LINE",
"70 784 LINE",
"70 0 LINE"
);
}
);
width = 223;
},
{
associatedMasterId = "8A89AD82-2B0C-40F6-97CA-3AF9ED9FF3A8";
layerId = "F87D14C9-5903-481B-804C-33DC195335B4";
width = 600;
},
{
associatedMasterId = "8A89AD82-2B0C-40F6-97CA-3AF9ED9FF3A8";
layerId = "8FB96A4E-229E-4098-A78A-4F2B3CDE8744";
width = 600;
},
{
associatedMasterId = "8A89AD82-2B0C-40F6-97CA-3AF9ED9FF3A8";
layerId = "01CD86E2-79E2-4EB2-AFCC-7332063034AB";
paths = (
{
closed = 1;
nodes = (
"200 0 LINE",
"200 784 LINE",
"70 784 LINE",
"70 0 LINE"
);
}
);
width = 270;
}
);
unicode = 0049;
},
{
glyphname = Iacute;
lastChange = "2021-07-18 16:05:34 +0000";
layers = (
{
layerId = "8A89AD82-2B0C-40F6-97CA-3AF9ED9FF3A8";
paths = (
{
closed = 1;
nodes = (
"153 0 LINE",
"153 784 LINE",
"70 784 LINE",
"70 0 LINE"
);
},
{
closed = 1;
nodes = (
"236 950 LINE",
"236 998 LINE",
"70 998 LINE",
"70 950 LINE"
);
}
);
width = 223;
},
{
layerId = "18468F94-9FC9-4171-B83A-16111EF84EF0";
paths = (
{
closed = 1;
nodes = (
"155 0 LINE",
"155 784 LINE",
"70 784 LINE",
"70 0 LINE"
);
},
{
closed = 1;
nodes = (
"240 948 LINE",
"240 998 LINE",
"70 998 LINE",
"70 948 LINE"
);
}
);
width = 225;
},
{
associatedMasterId = "8A89AD82-2B0C-40F6-97CA-3AF9ED9FF3A8";
layerId = "0E3C4C3F-E86A-4E48-BA02-70EE699FECFC";
width = 600;
},
{
associatedMasterId = "8A89AD82-2B0C-40F6-97CA-3AF9ED9FF3A8";
layerId = "8877225F-9A4F-4FE9-9298-E786CE3C091C";
width = 600;
},
{
layerId = "5AF9D2C4-93A9-4350-9D2E-611822E0073C";
paths = (
{
closed = 1;
nodes = (
"155 0 LINE",
"155 784 LINE",
"70 784 LINE",
"70 0 LINE"
);
},
{
closed = 1;
nodes = (
"240 928 LINE",
"240 998 LINE",
"70 998 LINE",
"70 928 LINE"
);
}
);
width = 225;
},
{
associatedMasterId = "8A89AD82-2B0C-40F6-97CA-3AF9ED9FF3A8";
layerId = "175EC1D6-1DFB-48D4-8635-0B6059DF0927";
paths = (
{
closed = 1;
nodes = (
"120 0 LINE",
"120 784 LINE",
"70 784 LINE",
"70 0 LINE"
);
},
{
closed = 1;
nodes = (
"210 948 LINE",
"210 998 LINE",
"70 998 LINE",
"70 948 LINE"
);
}
);
width = 190;
},
{
associatedMasterId = "8A89AD82-2B0C-40F6-97CA-3AF9ED9FF3A8";
layerId = "2CD66A9C-B153-4A14-8403-503AAB71A842";
width = 600;
},
{
associatedMasterId = "8A89AD82-2B0C-40F6-97CA-3AF9ED9FF3A8";
layerId = "D5A259FC-BD70-44C4-B3C5-408723CBA272";
paths = (
{
closed = 1;
nodes = (
"143 0 LINE",
"143 784 LINE",
"70 784 LINE",
"70 0 LINE"
);
},
{
closed = 1;
nodes = (
"227 948 LINE",
"227 998 LINE",
"70 998 LINE",
"70 948 LINE"
);
}
);
width = 213;
},
{
layerId = "AE502CCD-A4D0-4FF0-92B5-8B29CDC657FD";
paths = (
{
closed = 1;
nodes = (
"200 0 LINE",
"200 784 LINE",
"70 784 LINE",
"70 0 LINE"
);
},
{
closed = 1;
nodes = (
"283 950 LINE",
"283 998 LINE",
"70 998 LINE",
"70 950 LINE"
);
}
);
width = 270;
},
{
associatedMasterId = "AE502CCD-A4D0-4FF0-92B5-8B29CDC657FD";
layerId = "DF7D7FEC-2214-4EC4-A090-3AC436CAEC8C";
width = 600;
},
{
associatedMasterId = "AE502CCD-A4D0-4FF0-92B5-8B29CDC657FD";
layerId = "244848A7-1B0D-42E7-94E3-811F5DF91B53";
width = 600;
},
{
associatedMasterId = "AE502CCD-A4D0-4FF0-92B5-8B29CDC657FD";
layerId = "BE379EB6-939B-4848-A66D-466FEBD2858D";
paths = (
{
closed = 1;
nodes = (
"120 0 LINE",
"120 784 LINE",
"70 784 LINE",
"70 0 LINE"
);
},
{
closed = 1;
nodes = (
"210 948 LINE",
"210 998 LINE",
"70 998 LINE",
"70 948 LINE"
);
}
);
width = 190;
},
{
associatedMasterId = "AE502CCD-A4D0-4FF0-92B5-8B29CDC657FD";
layerId = "93CC66EB-74D9-4D83-B834-112535BEBC28";
width = 600;
},
{
associatedMasterId = "AE502CCD-A4D0-4FF0-92B5-8B29CDC657FD";
layerId = "927BFDC1-E4F4-4C34-AA94-1DBC7AF74CC0";
paths = (
{
closed = 1;
nodes = (
"143 0 LINE",
"143 784 LINE",
"70 784 LINE",
"70 0 LINE"
);
},
{
closed = 1;
nodes = (
"227 948 LINE",
"227 998 LINE",
"70 998 LINE",
"70 948 LINE"
);
}
);
width = 213;
},
{
associatedMasterId = "8A89AD82-2B0C-40F6-97CA-3AF9ED9FF3A8";
layerId = "909388F7-88C2-4DA9-AB96-B13A0726FCBB";
paths = (
{
closed = 1;
nodes = (
"153 0 LINE",
"153 784 LINE",
"70 784 LINE",
"70 0 LINE"
);
},
{
closed = 1;
nodes = (
"234 915 LINE",
"234 998 LINE",
"70 998 LINE",
"70 915 LINE"
);
}
);
width = 225;
},
{
associatedMasterId = "8A89AD82-2B0C-40F6-97CA-3AF9ED9FF3A8";
layerId = "F87D14C9-5903-481B-804C-33DC195335B4";
width = 600;
},
{
associatedMasterId = "8A89AD82-2B0C-40F6-97CA-3AF9ED9FF3A8";
layerId = "8FB96A4E-229E-4098-A78A-4F2B3CDE8744";
width = 600;
},
{
associatedMasterId = "8A89AD82-2B0C-40F6-97CA-3AF9ED9FF3A8";
layerId = "01CD86E2-79E2-4EB2-AFCC-7332063034AB";
paths = (
{
closed = 1;
nodes = (
"200 0 LINE",
"200 784 LINE",
"70 784 LINE",
"70 0 LINE"
);
},
{
closed = 1;
nodes = (
"283 910 LINE",
"283 998 LINE",
"70 998 LINE",
"70 910 LINE"
);
}
);
width = 270;
}
);
unicode = 00CD;
},
{
glyphname = Icircumflex;
lastChange = "2021-07-18 16:05:34 +0000";
layers = (
{
layerId = "8A89AD82-2B0C-40F6-97CA-3AF9ED9FF3A8";
paths = (
{
closed = 1;
nodes = (
"153 0 LINE",
"153 784 LINE",
"70 784 LINE",
"70 0 LINE"
);
},
{
closed = 1;
nodes = (
"236 950 LINE",
"236 998 LINE",
"-13 998 LINE",
"-13 950 LINE"
);
}
);
width = 223;
},
{
layerId = "18468F94-9FC9-4171-B83A-16111EF84EF0";
paths = (
{
closed = 1;
nodes = (
"155 0 LINE",
"155 784 LINE",
"70 784 LINE",
"70 0 LINE"
);
},
{
closed = 1;
nodes = (
"240 948 LINE",
"240 998 LINE",
"-15 998 LINE",
"-15 948 LINE"
);
}
);
width = 225;
},
{
associatedMasterId = "8A89AD82-2B0C-40F6-97CA-3AF9ED9FF3A8";
layerId = "0E3C4C3F-E86A-4E48-BA02-70EE699FECFC";
width = 600;
},
{
associatedMasterId = "8A89AD82-2B0C-40F6-97CA-3AF9ED9FF3A8";
layerId = "8877225F-9A4F-4FE9-9298-E786CE3C091C";
width = 600;
},
{
layerId = "5AF9D2C4-93A9-4350-9D2E-611822E0073C";
paths = (
{
closed = 1;
nodes = (
"155 0 LINE",
"155 784 LINE",
"70 784 LINE",
"70 0 LINE"
);
},
{
closed = 1;
nodes = (
"240 928 LINE",
"240 998 LINE",
"-15 998 LINE",
"-15 928 LINE"
);
}
);
width = 225;
},
{
associatedMasterId = "8A89AD82-2B0C-40F6-97CA-3AF9ED9FF3A8";
layerId = "175EC1D6-1DFB-48D4-8635-0B6059DF0927";
paths = (
{
closed = 1;
nodes = (
"120 0 LINE",
"120 784 LINE",
"70 784 LINE",
"70 0 LINE"
);
},
{
closed = 1;
nodes = (
"210 948 LINE",
"210 998 LINE",
"-20 998 LINE",
"-20 948 LINE"
);
}
);
width = 190;
},
{
associatedMasterId = "8A89AD82-2B0C-40F6-97CA-3AF9ED9FF3A8";
layerId = "2CD66A9C-B153-4A14-8403-503AAB71A842";
width = 600;
},
{
associatedMasterId = "8A89AD82-2B0C-40F6-97CA-3AF9ED9FF3A8";
layerId = "D5A259FC-BD70-44C4-B3C5-408723CBA272";
paths = (
{
closed = 1;
nodes = (
"143 0 LINE",
"143 784 LINE",
"70 784 LINE",
"70 0 LINE"
);
},
{
closed = 1;
nodes = (
"228 948 LINE",
"228 998 LINE",
"-15 998 LINE",
"-15 948 LINE"
);
}
);
width = 213;
},
{
layerId = "AE502CCD-A4D0-4FF0-92B5-8B29CDC657FD";
paths = (
{
closed = 1;
nodes = (
"200 0 LINE",
"200 784 LINE",
"70 784 LINE",
"70 0 LINE"
);
},
{
closed = 1;
nodes = (
"283 950 LINE",
"283 998 LINE",
"-13 998 LINE",
"-13 950 LINE"
);
}
);
width = 270;
},
{
associatedMasterId = "AE502CCD-A4D0-4FF0-92B5-8B29CDC657FD";
layerId = "926D16C1-6627-4267-B25C-8B1E5CD03B6C";
width = 600;
},
{
associatedMasterId = "AE502CCD-A4D0-4FF0-92B5-8B29CDC657FD";
layerId = "ACDBBA41-D6B4-4303-B5C5-E3179F0DE501";
width = 600;
},
{
associatedMasterId = "AE502CCD-A4D0-4FF0-92B5-8B29CDC657FD";
layerId = "A8BCC60D-BEA0-477C-8A70-FEF9E576D13C";
paths = (
{
closed = 1;
nodes = (
"120 0 LINE",
"120 784 LINE",
"70 784 LINE",
"70 0 LINE"
);
},
{
closed = 1;
nodes = (
"210 948 LINE",
"210 998 LINE",
"-20 998 LINE",
"-20 948 LINE"
);
}
);
width = 190;
},
{
associatedMasterId = "AE502CCD-A4D0-4FF0-92B5-8B29CDC657FD";
layerId = "C08DE964-37CC-422A-8E71-9BE5A5D71C5C";
width = 600;
},
{
associatedMasterId = "AE502CCD-A4D0-4FF0-92B5-8B29CDC657FD";
layerId = "2F3C8F9F-71A1-4495-A32F-BEDD80F46555";
paths = (
{
closed = 1;
nodes = (
"143 0 LINE",
"143 784 LINE",
"70 784 LINE",
"70 0 LINE"
);
},
{
closed = 1;
nodes = (
"228 948 LINE",
"228 998 LINE",
"-15 998 LINE",
"-15 948 LINE"
);
}
);
width = 213;
},
{
associatedMasterId = "8A89AD82-2B0C-40F6-97CA-3AF9ED9FF3A8";
layerId = "909388F7-88C2-4DA9-AB96-B13A0726FCBB";
paths = (
{
closed = 1;
nodes = (
"153 0 LINE",
"153 784 LINE",
"70 784 LINE",
"70 0 LINE"
);
},
{
closed = 1;
nodes = (
"308 915 LINE",
"308 998 LINE",
"-85 998 LINE",
"-85 915 LINE"
);
}
);
width = 223;
},
{
associatedMasterId = "8A89AD82-2B0C-40F6-97CA-3AF9ED9FF3A8";
layerId = "F87D14C9-5903-481B-804C-33DC195335B4";
width = 600;
},
{
associatedMasterId = "8A89AD82-2B0C-40F6-97CA-3AF9ED9FF3A8";
layerId = "8FB96A4E-229E-4098-A78A-4F2B3CDE8744";
width = 600;
},
{
associatedMasterId = "8A89AD82-2B0C-40F6-97CA-3AF9ED9FF3A8";
layerId = "01CD86E2-79E2-4EB2-AFCC-7332063034AB";
paths = (
{
closed = 1;
nodes = (
"200 0 LINE",
"200 784 LINE",
"70 784 LINE",
"70 0 LINE"
);
},
{
closed = 1;
nodes = (
"283 910 LINE",
"283 998 LINE",
"-13 998 LINE",
"-13 910 LINE"
);
}
);
width = 270;
}
);
unicode = 00CE;
},
{
glyphname = Idieresis;
lastChange = "2021-07-18 16:05:34 +0000";
layers = (
{
layerId = "8A89AD82-2B0C-40F6-97CA-3AF9ED9FF3A8";
paths = (
{
closed = 1;
nodes = (
"153 0 LINE",
"153 784 LINE",
"70 784 LINE",
"70 0 LINE"
);
},
{
closed = 1;
nodes = (
"70 950 LINE",
"70 998 LINE",
"-13 998 LINE",
"-13 950 LINE"
);
},
{
closed = 1;
nodes = (
"236 950 LINE",
"236 998 LINE",
"153 998 LINE",
"153 950 LINE"
);
}
);
width = 223;
},
{
layerId = "18468F94-9FC9-4171-B83A-16111EF84EF0";
paths = (
{
closed = 1;
nodes = (
"155 0 LINE",
"155 784 LINE",
"70 784 LINE",
"70 0 LINE"
);
},
{
closed = 1;
nodes = (
"70 948 LINE",
"70 998 LINE",
"-15 998 LINE",
"-15 948 LINE"
);
},
{
closed = 1;
nodes = (
"240 948 LINE",
"240 998 LINE",
"155 998 LINE",
"155 948 LINE"
);
}
);
width = 225;
},
{
associatedMasterId = "8A89AD82-2B0C-40F6-97CA-3AF9ED9FF3A8";
layerId = "0E3C4C3F-E86A-4E48-BA02-70EE699FECFC";
width = 600;
},
{
associatedMasterId = "8A89AD82-2B0C-40F6-97CA-3AF9ED9FF3A8";
layerId = "8877225F-9A4F-4FE9-9298-E786CE3C091C";
width = 600;
},
{
layerId = "5AF9D2C4-93A9-4350-9D2E-611822E0073C";
paths = (
{
closed = 1;
nodes = (
"155 0 LINE",
"155 784 LINE",
"70 784 LINE",
"70 0 LINE"
);
},
{
closed = 1;
nodes = (
"70 928 LINE",
"70 998 LINE",
"-15 998 LINE",
"-15 928 LINE"
);
},
{
closed = 1;
nodes = (
"240 928 LINE",
"240 998 LINE",
"155 998 LINE",
"155 928 LINE"
);
}
);
width = 225;
},
{
associatedMasterId = "8A89AD82-2B0C-40F6-97CA-3AF9ED9FF3A8";
layerId = "175EC1D6-1DFB-48D4-8635-0B6059DF0927";
paths = (
{
closed = 1;
nodes = (
"120 0 LINE",
"120 784 LINE",
"70 784 LINE",
"70 0 LINE"
);
},
{
closed = 1;
nodes = (
"70 948 LINE",
"70 998 LINE",
"20 998 LINE",
"20 948 LINE"
);
},
{
closed = 1;
nodes = (
"170 948 LINE",
"170 998 LINE",
"120 998 LINE",
"120 948 LINE"
);
}
);
width = 190;
},
{
associatedMasterId = "8A89AD82-2B0C-40F6-97CA-3AF9ED9FF3A8";
layerId = "2CD66A9C-B153-4A14-8403-503AAB71A842";
width = 600;
},
{
associatedMasterId = "8A89AD82-2B0C-40F6-97CA-3AF9ED9FF3A8";
layerId = "D5A259FC-BD70-44C4-B3C5-408723CBA272";
paths = (
{
closed = 1;
nodes = (
"143 0 LINE",
"143 784 LINE",
"70 784 LINE",
"70 0 LINE"
);
},
{
closed = 1;
nodes = (
"70 948 LINE",
"70 998 LINE",
"-3 998 LINE",
"-3 948 LINE"
);
},
{
closed = 1;
nodes = (
"217 948 LINE",
"217 998 LINE",
"143 998 LINE",
"143 948 LINE"
);
}
);
width = 213;
},
{
layerId = "AE502CCD-A4D0-4FF0-92B5-8B29CDC657FD";
paths = (
{
closed = 1;
nodes = (
"200 0 LINE",
"200 784 LINE",
"70 784 LINE",
"70 0 LINE"
);
},
{
closed = 1;
nodes = (
"70 950 LINE",
"70 998 LINE",
"-60 998 LINE",
"-60 950 LINE"
);
},
{
closed = 1;
nodes = (
"330 950 LINE",
"330 998 LINE",
"200 998 LINE",
"200 950 LINE"
);
}
);
width = 270;
},
{
associatedMasterId = "AE502CCD-A4D0-4FF0-92B5-8B29CDC657FD";
layerId = "CF39FB61-02C4-4B66-B8FA-3817DE4949EB";
width = 600;
},
{
associatedMasterId = "AE502CCD-A4D0-4FF0-92B5-8B29CDC657FD";
layerId = "0E8F24A3-0A3A-48D4-B0E5-2891E05C954F";
width = 600;
},
{
associatedMasterId = "AE502CCD-A4D0-4FF0-92B5-8B29CDC657FD";
layerId = "A2277C2C-4BBB-435F-AA09-8286E338AD0B";
paths = (
{
closed = 1;
nodes = (
"120 0 LINE",
"120 784 LINE",
"70 784 LINE",
"70 0 LINE"
);
},
{
closed = 1;
nodes = (
"70 948 LINE",
"70 998 LINE",
"20 998 LINE",
"20 948 LINE"
);
},
{
closed = 1;
nodes = (
"170 948 LINE",
"170 998 LINE",
"120 998 LINE",
"120 948 LINE"
);
}
);
width = 190;
},
{
associatedMasterId = "AE502CCD-A4D0-4FF0-92B5-8B29CDC657FD";
layerId = "E3D72A8E-DEEE-421F-9D4F-67542594A65F";
width = 600;
},
{
associatedMasterId = "AE502CCD-A4D0-4FF0-92B5-8B29CDC657FD";
layerId = "7291BD3D-0B90-47E4-9BB6-30EA6FB0B170";
paths = (
{
closed = 1;
nodes = (
"143 0 LINE",
"143 784 LINE",
"70 784 LINE",
"70 0 LINE"
);
},
{
closed = 1;
nodes = (
"70 948 LINE",
"70 998 LINE",
"-3 998 LINE",
"-3 948 LINE"
);
},
{
closed = 1;
nodes = (
"217 948 LINE",
"217 998 LINE",
"143 998 LINE",
"143 948 LINE"
);
}
);
width = 213;
},
{
associatedMasterId = "8A89AD82-2B0C-40F6-97CA-3AF9ED9FF3A8";
layerId = "909388F7-88C2-4DA9-AB96-B13A0726FCBB";
paths = (
{
closed = 1;
nodes = (
"153 0 LINE",
"153 784 LINE",
"70 784 LINE",
"70 0 LINE"
);
},
{
closed = 1;
nodes = (
"70 915 LINE",
"70 998 LINE",
"-13 998 LINE",
"-13 915 LINE"
);
},
{
closed = 1;
nodes = (
"236 915 LINE",
"236 998 LINE",
"153 998 LINE",
"153 915 LINE"
);
}
);
width = 223;
},
{
associatedMasterId = "8A89AD82-2B0C-40F6-97CA-3AF9ED9FF3A8";
layerId = "F87D14C9-5903-481B-804C-33DC195335B4";
width = 600;
},
{
associatedMasterId = "8A89AD82-2B0C-40F6-97CA-3AF9ED9FF3A8";
layerId = "8FB96A4E-229E-4098-A78A-4F2B3CDE8744";
width = 600;
},
{
associatedMasterId = "8A89AD82-2B0C-40F6-97CA-3AF9ED9FF3A8";
layerId = "01CD86E2-79E2-4EB2-AFCC-7332063034AB";
paths = (
{
closed = 1;
nodes = (
"200 0 LINE",
"200 784 LINE",
"70 784 LINE",
"70 0 LINE"
);
},
{
closed = 1;
nodes = (
"70 910 LINE",
"70 998 LINE",
"-60 998 LINE",
"-60 910 LINE"
);
},
{
closed = 1;
nodes = (
"330 910 LINE",
"330 998 LINE",
"200 998 LINE",
"200 910 LINE"
);
}
);
width = 270;
}
);
unicode = 00CF;
},
{
glyphname = Igrave;
lastChange = "2021-07-18 16:05:34 +0000";
layers = (
{
layerId = "8A89AD82-2B0C-40F6-97CA-3AF9ED9FF3A8";
paths = (
{
closed = 1;
nodes = (
"153 0 LINE",
"153 784 LINE",
"70 784 LINE",
"70 0 LINE"
);
},
{
closed = 1;
nodes = (
"153 950 LINE",
"153 998 LINE",
"-13 998 LINE",
"-13 950 LINE"
);
}
);
width = 223;
},
{
layerId = "18468F94-9FC9-4171-B83A-16111EF84EF0";
paths = (
{
closed = 1;
nodes = (
"155 0 LINE",
"155 784 LINE",
"70 784 LINE",
"70 0 LINE"
);
},
{
closed = 1;
nodes = (
"155 948 LINE",
"155 998 LINE",
"-15 998 LINE",
"-15 948 LINE"
);
}
);
width = 225;
},
{
associatedMasterId = "8A89AD82-2B0C-40F6-97CA-3AF9ED9FF3A8";
layerId = "0E3C4C3F-E86A-4E48-BA02-70EE699FECFC";
width = 600;
},
{
associatedMasterId = "8A89AD82-2B0C-40F6-97CA-3AF9ED9FF3A8";
layerId = "8877225F-9A4F-4FE9-9298-E786CE3C091C";
width = 600;
},
{
layerId = "5AF9D2C4-93A9-4350-9D2E-611822E0073C";
paths = (
{
closed = 1;
nodes = (
"155 0 LINE",
"155 784 LINE",
"70 784 LINE",
"70 0 LINE"
);
},
{
closed = 1;
nodes = (
"155 928 LINE",
"155 998 LINE",
"-15 998 LINE",
"-15 928 LINE"
);
}
);
width = 225;
},
{
associatedMasterId = "8A89AD82-2B0C-40F6-97CA-3AF9ED9FF3A8";
layerId = "175EC1D6-1DFB-48D4-8635-0B6059DF0927";
paths = (
{
closed = 1;
nodes = (
"120 0 LINE",
"120 784 LINE",
"70 784 LINE",
"70 0 LINE"
);
},
{
closed = 1;
nodes = (
"120 948 LINE",
"120 998 LINE",
"-20 998 LINE",
"-20 948 LINE"
);
}
);
width = 190;
},
{
associatedMasterId = "8A89AD82-2B0C-40F6-97CA-3AF9ED9FF3A8";
layerId = "2CD66A9C-B153-4A14-8403-503AAB71A842";
width = 600;
},
{
associatedMasterId = "8A89AD82-2B0C-40F6-97CA-3AF9ED9FF3A8";
layerId = "D5A259FC-BD70-44C4-B3C5-408723CBA272";
paths = (
{
closed = 1;
nodes = (
"143 0 LINE",
"143 784 LINE",
"70 784 LINE",
"70 0 LINE"
);
},
{
closed = 1;
nodes = (
"143 948 LINE",
"143 998 LINE",
"-14 998 LINE",
"-14 948 LINE"
);
}
);
width = 213;
},
{
layerId = "AE502CCD-A4D0-4FF0-92B5-8B29CDC657FD";
paths = (
{
closed = 1;
nodes = (
"200 0 LINE",
"200 784 LINE",
"70 784 LINE",
"70 0 LINE"
);
},
{
closed = 1;
nodes = (
"200 950 LINE",
"200 998 LINE",
"-13 998 LINE",
"-13 950 LINE"
);
}
);
width = 270;
},
{
associatedMasterId = "AE502CCD-A4D0-4FF0-92B5-8B29CDC657FD";
layerId = "B426913F-C109-473F-A609-FDD83E075F51";
width = 600;
},
{
associatedMasterId = "AE502CCD-A4D0-4FF0-92B5-8B29CDC657FD";
layerId = "0C54A366-759F-45F2-91DA-BA9FA5BBC1E3";
width = 600;
},
{
associatedMasterId = "AE502CCD-A4D0-4FF0-92B5-8B29CDC657FD";
layerId = "099E1684-F39C-4FE9-B6EB-32B1720C86F6";
paths = (
{
closed = 1;
nodes = (
"120 0 LINE",
"120 784 LINE",
"70 784 LINE",
"70 0 LINE"
);
},
{
closed = 1;
nodes = (
"120 948 LINE",
"120 998 LINE",
"-20 998 LINE",
"-20 948 LINE"
);
}
);
width = 190;
},
{
associatedMasterId = "AE502CCD-A4D0-4FF0-92B5-8B29CDC657FD";
layerId = "5F5A4900-60B5-4603-8EA9-3F18F655091A";
width = 600;
},
{
associatedMasterId = "AE502CCD-A4D0-4FF0-92B5-8B29CDC657FD";
layerId = "6F7212B1-E941-4E5E-8015-6EEEAD70C1BE";
paths = (
{
closed = 1;
nodes = (
"143 0 LINE",
"143 784 LINE",
"70 784 LINE",
"70 0 LINE"
);
},
{
closed = 1;
nodes = (
"143 948 LINE",
"143 998 LINE",
"-14 998 LINE",
"-14 948 LINE"
);
}
);
width = 213;
},
{
associatedMasterId = "8A89AD82-2B0C-40F6-97CA-3AF9ED9FF3A8";
layerId = "909388F7-88C2-4DA9-AB96-B13A0726FCBB";
paths = (
{
closed = 1;
nodes = (
"153 0 LINE",
"153 784 LINE",
"70 784 LINE",
"70 0 LINE"
);
},
{
closed = 1;
nodes = (
"153 915 LINE",
"153 998 LINE",
"-11 998 LINE",
"-11 915 LINE"
);
}
);
width = 223;
},
{
associatedMasterId = "8A89AD82-2B0C-40F6-97CA-3AF9ED9FF3A8";
layerId = "F87D14C9-5903-481B-804C-33DC195335B4";
width = 600;
},
{
associatedMasterId = "8A89AD82-2B0C-40F6-97CA-3AF9ED9FF3A8";
layerId = "8FB96A4E-229E-4098-A78A-4F2B3CDE8744";
width = 600;
},
{
associatedMasterId = "8A89AD82-2B0C-40F6-97CA-3AF9ED9FF3A8";
layerId = "01CD86E2-79E2-4EB2-AFCC-7332063034AB";
paths = (
{
closed = 1;
nodes = (
"200 0 LINE",
"200 784 LINE",
"70 784 LINE",
"70 0 LINE"
);
},
{
closed = 1;
nodes = (
"200 910 LINE",
"200 998 LINE",
"-13 998 LINE",
"-13 910 LINE"
);
}
);
width = 270;
}
);
unicode = 00CC;
},
{
glyphname = J;
lastChange = "2021-07-18 16:05:34 +0000";
layers = (
{
layerId = "8A89AD82-2B0C-40F6-97CA-3AF9ED9FF3A8";
paths = (
{
closed = 1;
nodes = (
"258 0 LINE",
"258 784 LINE",
"175 784 LINE",
"175 48 LINE",
"30 48 LINE",
"30 0 LINE"
);
}
);
width = 328;
},
{
layerId = "18468F94-9FC9-4171-B83A-16111EF84EF0";
paths = (
{
closed = 1;
nodes = (
"258 0 LINE",
"258 784 LINE",
"173 784 LINE",
"173 50 LINE",
"30 50 LINE",
"30 0 LINE"
);
}
);
width = 328;
},
{
associatedMasterId = "8A89AD82-2B0C-40F6-97CA-3AF9ED9FF3A8";
layerId = "0E3C4C3F-E86A-4E48-BA02-70EE699FECFC";
width = 600;
},
{
associatedMasterId = "8A89AD82-2B0C-40F6-97CA-3AF9ED9FF3A8";
layerId = "8877225F-9A4F-4FE9-9298-E786CE3C091C";
width = 600;
},
{
layerId = "5AF9D2C4-93A9-4350-9D2E-611822E0073C";
paths = (
{
closed = 1;
nodes = (
"225 0 LINE",
"225 784 LINE",
"140 784 LINE",
"140 70 LINE",
"30 70 LINE",
"30 0 LINE"
);
}
);
width = 295;
},
{
associatedMasterId = "8A89AD82-2B0C-40F6-97CA-3AF9ED9FF3A8";
layerId = "175EC1D6-1DFB-48D4-8635-0B6059DF0927";
paths = (
{
closed = 1;
nodes = (
"225 0 LINE",
"225 784 LINE",
"175 784 LINE",
"175 50 LINE",
"30 50 LINE",
"30 0 LINE"
);
}
);
width = 295;
},
{
associatedMasterId = "8A89AD82-2B0C-40F6-97CA-3AF9ED9FF3A8";
layerId = "2CD66A9C-B153-4A14-8403-503AAB71A842";
width = 600;
},
{
associatedMasterId = "8A89AD82-2B0C-40F6-97CA-3AF9ED9FF3A8";
layerId = "D5A259FC-BD70-44C4-B3C5-408723CBA272";
paths = (
{
closed = 1;
nodes = (
"247 0 LINE",
"247 784 LINE",
"174 784 LINE",
"174 50 LINE",
"30 50 LINE",
"30 0 LINE"
);
}
);
width = 317;
},
{
layerId = "AE502CCD-A4D0-4FF0-92B5-8B29CDC657FD";
paths = (
{
closed = 1;
nodes = (
"258 0 LINE",
"258 784 LINE",
"93 784 LINE",
"93 48 LINE",
"30 48 LINE",
"30 0 LINE"
);
}
);
width = 328;
},
{
associatedMasterId = "AE502CCD-A4D0-4FF0-92B5-8B29CDC657FD";
layerId = "440FC453-61AE-4F53-8792-B93BEF69A8E3";
width = 600;
},
{
associatedMasterId = "AE502CCD-A4D0-4FF0-92B5-8B29CDC657FD";
layerId = "D242C234-83C0-4564-84C1-5DD917D11E43";
width = 600;
},
{
associatedMasterId = "AE502CCD-A4D0-4FF0-92B5-8B29CDC657FD";
layerId = "0D4D60D1-5CA3-4330-8E5C-2326FE308709";
paths = (
{
closed = 1;
nodes = (
"225 0 LINE",
"225 784 LINE",
"175 784 LINE",
"175 50 LINE",
"30 50 LINE",
"30 0 LINE"
);
}
);
width = 295;
},
{
associatedMasterId = "AE502CCD-A4D0-4FF0-92B5-8B29CDC657FD";
layerId = "2F8F31D1-CA39-4340-85DD-6F4DB57A20A8";
width = 600;
},
{
associatedMasterId = "AE502CCD-A4D0-4FF0-92B5-8B29CDC657FD";
layerId = "E6B95D80-9B1C-477B-84B1-27481C2C0ED2";
paths = (
{
closed = 1;
nodes = (
"247 0 LINE",
"247 784 LINE",
"174 784 LINE",
"174 50 LINE",
"30 50 LINE",
"30 0 LINE"
);
}
);
width = 317;
},
{
associatedMasterId = "8A89AD82-2B0C-40F6-97CA-3AF9ED9FF3A8";
layerId = "909388F7-88C2-4DA9-AB96-B13A0726FCBB";
paths = (
{
closed = 1;
nodes = (
"200 0 LINE",
"200 784 LINE",
"117 784 LINE",
"117 83 LINE",
"30 83 LINE",
"30 0 LINE"
);
}
);
width = 270;
},
{
associatedMasterId = "8A89AD82-2B0C-40F6-97CA-3AF9ED9FF3A8";
layerId = "F87D14C9-5903-481B-804C-33DC195335B4";
width = 600;
},
{
associatedMasterId = "8A89AD82-2B0C-40F6-97CA-3AF9ED9FF3A8";
layerId = "8FB96A4E-229E-4098-A78A-4F2B3CDE8744";
width = 600;
},
{
associatedMasterId = "8A89AD82-2B0C-40F6-97CA-3AF9ED9FF3A8";
layerId = "01CD86E2-79E2-4EB2-AFCC-7332063034AB";
paths = (
{
closed = 1;
nodes = (
"192 0 LINE",
"192 784 LINE",
"27 784 LINE",
"27 88 LINE",
"30 88 LINE",
"30 0 LINE"
);
}
);
width = 262;
}
);
unicode = 004A;
},
{
glyphname = K;
lastChange = "2021-07-18 16:05:34 +0000";
layers = (
{
layerId = "8A89AD82-2B0C-40F6-97CA-3AF9ED9FF3A8";
paths = (
{
closed = 1;
nodes = (
"153 0 LINE",
"153 522 LINE",
"400 522 LINE",
"400 0 LINE",
"450 0 LINE",
"450 570 LINE",
"380 570 LINE",
"380 784 LINE",
"365 784 LINE",
"365 570 LINE",
"153 570 LINE",
"153 784 LINE",
"70 784 LINE",
"70 0 LINE"
);
}
);
width = 520;
},
{
layerId = "18468F94-9FC9-4171-B83A-16111EF84EF0";
paths = (
{
closed = 1;
nodes = (
"155 0 LINE",
"155 520 LINE",
"400 520 LINE",
"400 0 LINE",
"450 0 LINE",
"450 570 LINE",
"380 570 LINE",
"380 784 LINE",
"330 784 LINE",
"330 570 LINE",
"155 570 LINE",
"155 784 LINE",
"70 784 LINE",
"70 0 LINE"
);
}
);
width = 520;
},
{
associatedMasterId = "8A89AD82-2B0C-40F6-97CA-3AF9ED9FF3A8";
layerId = "0E3C4C3F-E86A-4E48-BA02-70EE699FECFC";
width = 600;
},
{
associatedMasterId = "8A89AD82-2B0C-40F6-97CA-3AF9ED9FF3A8";
layerId = "8877225F-9A4F-4FE9-9298-E786CE3C091C";
width = 600;
},
{
layerId = "5AF9D2C4-93A9-4350-9D2E-611822E0073C";
paths = (
{
closed = 1;
nodes = (
"155 0 LINE",
"155 500 LINE",
"380 500 LINE",
"380 0 LINE",
"450 0 LINE",
"450 570 LINE",
"380 570 LINE",
"380 784 LINE",
"310 784 LINE",
"310 570 LINE",
"155 570 LINE",
"155 784 LINE",
"70 784 LINE",
"70 0 LINE"
);
}
);
width = 520;
},
{
associatedMasterId = "8A89AD82-2B0C-40F6-97CA-3AF9ED9FF3A8";
layerId = "175EC1D6-1DFB-48D4-8635-0B6059DF0927";
paths = (
{
closed = 1;
nodes = (
"120 0 LINE",
"120 520 LINE",
"400 520 LINE",
"400 0 LINE",
"450 0 LINE",
"450 570 LINE",
"350 570 LINE",
"350 784 LINE",
"300 784 LINE",
"300 570 LINE",
"120 570 LINE",
"120 784 LINE",
"70 784 LINE",
"70 0 LINE"
);
}
);
width = 520;
},
{
associatedMasterId = "8A89AD82-2B0C-40F6-97CA-3AF9ED9FF3A8";
layerId = "2CD66A9C-B153-4A14-8403-503AAB71A842";
width = 600;
},
{
associatedMasterId = "8A89AD82-2B0C-40F6-97CA-3AF9ED9FF3A8";
layerId = "D5A259FC-BD70-44C4-B3C5-408723CBA272";
paths = (
{
closed = 1;
nodes = (
"143 0 LINE",
"143 520 LINE",
"400 520 LINE",
"400 0 LINE",
"450 0 LINE",
"450 570 LINE",
"383 570 LINE",
"383 784 LINE",
"333 784 LINE",
"333 570 LINE",
"143 570 LINE",
"143 784 LINE",
"70 784 LINE",
"70 0 LINE"
);
}
);
width = 520;
},
{
layerId = "AE502CCD-A4D0-4FF0-92B5-8B29CDC657FD";
paths = (
{
closed = 1;
nodes = (
"235 0 LINE",
"235 522 LINE",
"400 522 LINE",
"400 0 LINE",
"450 0 LINE",
"450 570 LINE",
"380 570 LINE",
"380 784 LINE",
"365 784 LINE",
"365 570 LINE",
"235 570 LINE",
"235 784 LINE",
"70 784 LINE",
"70 0 LINE"
);
}
);
width = 520;
},
{
associatedMasterId = "AE502CCD-A4D0-4FF0-92B5-8B29CDC657FD";
layerId = "B12D7AE0-14D7-49CC-B05A-076290FAECB0";
width = 600;
},
{
associatedMasterId = "AE502CCD-A4D0-4FF0-92B5-8B29CDC657FD";
layerId = "19947299-F64F-447D-A094-EAB153D3BF93";
width = 600;
},
{
associatedMasterId = "AE502CCD-A4D0-4FF0-92B5-8B29CDC657FD";
layerId = "EC6D1497-D212-473A-BBA5-1A9572CE1CDD";
paths = (
{
closed = 1;
nodes = (
"120 0 LINE",
"120 520 LINE",
"400 520 LINE",
"400 0 LINE",
"450 0 LINE",
"450 570 LINE",
"350 570 LINE",
"350 784 LINE",
"300 784 LINE",
"300 570 LINE",
"120 570 LINE",
"120 784 LINE",
"70 784 LINE",
"70 0 LINE"
);
}
);
width = 520;
},
{
associatedMasterId = "AE502CCD-A4D0-4FF0-92B5-8B29CDC657FD";
layerId = "B62B315C-A22A-43D6-9EB7-E0995F7D64FC";
width = 600;
},
{
associatedMasterId = "AE502CCD-A4D0-4FF0-92B5-8B29CDC657FD";
layerId = "42723DC2-4948-4B17-BC56-13AB061709A9";
paths = (
{
closed = 1;
nodes = (
"143 0 LINE",
"143 520 LINE",
"400 520 LINE",
"400 0 LINE",
"450 0 LINE",
"450 570 LINE",
"383 570 LINE",
"383 784 LINE",
"333 784 LINE",
"333 570 LINE",
"143 570 LINE",
"143 784 LINE",
"70 784 LINE",
"70 0 LINE"
);
}
);
width = 520;
},
{
associatedMasterId = "8A89AD82-2B0C-40F6-97CA-3AF9ED9FF3A8";
layerId = "909388F7-88C2-4DA9-AB96-B13A0726FCBB";
paths = (
{
closed = 1;
nodes = (
"153 0 LINE",
"153 487 LINE",
"365 487 LINE",
"365 0 LINE",
"450 0 LINE",
"450 570 LINE",
"365 570 LINE",
"365 784 LINE",
"315 784 LINE",
"315 570 LINE",
"153 570 LINE",
"153 784 LINE",
"70 784 LINE",
"70 0 LINE"
);
}
);
width = 520;
},
{
associatedMasterId = "8A89AD82-2B0C-40F6-97CA-3AF9ED9FF3A8";
layerId = "F87D14C9-5903-481B-804C-33DC195335B4";
width = 600;
},
{
associatedMasterId = "8A89AD82-2B0C-40F6-97CA-3AF9ED9FF3A8";
layerId = "8FB96A4E-229E-4098-A78A-4F2B3CDE8744";
width = 600;
},
{
associatedMasterId = "8A89AD82-2B0C-40F6-97CA-3AF9ED9FF3A8";
layerId = "01CD86E2-79E2-4EB2-AFCC-7332063034AB";
paths = (
{
closed = 1;
nodes = (
"235 0 LINE",
"235 482 LINE",
"360 482 LINE",
"360 0 LINE",
"450 0 LINE",
"450 570 LINE",
"380 570 LINE",
"380 784 LINE",
"325 784 LINE",
"325 570 LINE",
"235 570 LINE",
"235 784 LINE",
"70 784 LINE",
"70 0 LINE"
);
}
);
width = 520;
}
);
unicode = 004B;
},
{
glyphname = L;
lastChange = "2021-07-18 16:05:34 +0000";
layers = (
{
layerId = "8A89AD82-2B0C-40F6-97CA-3AF9ED9FF3A8";
paths = (
{
closed = 1;
nodes = (
"400 0 LINE",
"400 48 LINE",
"153 48 LINE",
"153 784 LINE",
"70 784 LINE",
"70 0 LINE"
);
}
);
width = 430;
},
{
layerId = "18468F94-9FC9-4171-B83A-16111EF84EF0";
paths = (
{
closed = 1;
nodes = (
"400 0 LINE",
"400 50 LINE",
"155 50 LINE",
"155 784 LINE",
"70 784 LINE",
"70 0 LINE"
);
}
);
width = 430;
},
{
associatedMasterId = "8A89AD82-2B0C-40F6-97CA-3AF9ED9FF3A8";
layerId = "0E3C4C3F-E86A-4E48-BA02-70EE699FECFC";
width = 600;
},
{
associatedMasterId = "8A89AD82-2B0C-40F6-97CA-3AF9ED9FF3A8";
layerId = "8877225F-9A4F-4FE9-9298-E786CE3C091C";
width = 600;
},
{
layerId = "5AF9D2C4-93A9-4350-9D2E-611822E0073C";
paths = (
{
closed = 1;
nodes = (
"400 0 LINE",
"400 70 LINE",
"155 70 LINE",
"155 784 LINE",
"70 784 LINE",
"70 0 LINE"
);
}
);
width = 430;
},
{
associatedMasterId = "8A89AD82-2B0C-40F6-97CA-3AF9ED9FF3A8";
layerId = "175EC1D6-1DFB-48D4-8635-0B6059DF0927";
paths = (
{
closed = 1;
nodes = (
"400 0 LINE",
"400 50 LINE",
"120 50 LINE",
"120 784 LINE",
"70 784 LINE",
"70 0 LINE"
);
}
);
width = 430;
},
{
associatedMasterId = "8A89AD82-2B0C-40F6-97CA-3AF9ED9FF3A8";
layerId = "2CD66A9C-B153-4A14-8403-503AAB71A842";
width = 600;
},
{
associatedMasterId = "8A89AD82-2B0C-40F6-97CA-3AF9ED9FF3A8";
layerId = "D5A259FC-BD70-44C4-B3C5-408723CBA272";
paths = (
{
closed = 1;
nodes = (
"400 0 LINE",
"400 50 LINE",
"142 50 LINE",
"142 784 LINE",
"70 784 LINE",
"70 0 LINE"
);
}
);
width = 430;
},
{
layerId = "AE502CCD-A4D0-4FF0-92B5-8B29CDC657FD";
paths = (
{
closed = 1;
nodes = (
"400 0 LINE",
"400 48 LINE",
"235 48 LINE",
"235 784 LINE",
"70 784 LINE",
"70 0 LINE"
);
}
);
width = 430;
},
{
associatedMasterId = "AE502CCD-A4D0-4FF0-92B5-8B29CDC657FD";
layerId = "187CACFF-88AC-42CF-8EC8-1C1B46013819";
width = 600;
},
{
associatedMasterId = "AE502CCD-A4D0-4FF0-92B5-8B29CDC657FD";
layerId = "AB172577-B152-41AE-8EAA-F7449E779839";
width = 600;
},
{
associatedMasterId = "AE502CCD-A4D0-4FF0-92B5-8B29CDC657FD";
layerId = "B06E2534-24D7-4429-B696-AFCF9DC77ACC";
paths = (
{
closed = 1;
nodes = (
"400 0 LINE",
"400 50 LINE",
"120 50 LINE",
"120 784 LINE",
"70 784 LINE",
"70 0 LINE"
);
}
);
width = 430;
},
{
associatedMasterId = "AE502CCD-A4D0-4FF0-92B5-8B29CDC657FD";
layerId = "CC4B6632-0C0A-4EC4-B244-929FF12F2048";
width = 600;
},
{
associatedMasterId = "AE502CCD-A4D0-4FF0-92B5-8B29CDC657FD";
layerId = "76996B6A-1C57-408E-885F-5B7A0799930C";
paths = (
{
closed = 1;
nodes = (
"400 0 LINE",
"400 50 LINE",
"142 50 LINE",
"142 784 LINE",
"70 784 LINE",
"70 0 LINE"
);
}
);
width = 430;
},
{
associatedMasterId = "8A89AD82-2B0C-40F6-97CA-3AF9ED9FF3A8";
layerId = "909388F7-88C2-4DA9-AB96-B13A0726FCBB";
paths = (
{
closed = 1;
nodes = (
"400 0 LINE",
"400 83 LINE",
"157 83 LINE",
"157 784 LINE",
"70 784 LINE",
"70 0 LINE"
);
}
);
width = 430;
},
{
associatedMasterId = "8A89AD82-2B0C-40F6-97CA-3AF9ED9FF3A8";
layerId = "F87D14C9-5903-481B-804C-33DC195335B4";
width = 600;
},
{
associatedMasterId = "8A89AD82-2B0C-40F6-97CA-3AF9ED9FF3A8";
layerId = "8FB96A4E-229E-4098-A78A-4F2B3CDE8744";
width = 600;
},
{
associatedMasterId = "8A89AD82-2B0C-40F6-97CA-3AF9ED9FF3A8";
layerId = "01CD86E2-79E2-4EB2-AFCC-7332063034AB";
paths = (
{
closed = 1;
nodes = (
"400 0 LINE",
"400 88 LINE",
"235 88 LINE",
"235 784 LINE",
"70 784 LINE",
"70 0 LINE"
);
}
);
width = 430;
}
);
unicode = 004C;
},
{
glyphname = M;
lastChange = "2021-07-18 16:05:34 +0000";
layers = (
{
layerId = "8A89AD82-2B0C-40F6-97CA-3AF9ED9FF3A8";
paths = (
{
closed = 1;
nodes = (
"153 0 LINE",
"153 736 LINE",
"382 736 LINE",
"382 0 LINE",
"397 0 LINE",
"397 736 LINE",
"626 736 LINE",
"626 0 LINE",
"709 0 LINE",
"709 784 LINE",
"70 784 LINE",
"70 0 LINE"
);
}
);
width = 779;
},
{
layerId = "18468F94-9FC9-4171-B83A-16111EF84EF0";
paths = (
{
closed = 1;
nodes = (
"155 0 LINE",
"155 734 LINE",
"365 734 LINE",
"365 0 LINE",
"415 0 LINE",
"415 734 LINE",
"625 734 LINE",
"625 0 LINE",
"710 0 LINE",
"710 784 LINE",
"70 784 LINE",
"70 0 LINE"
);
}
);
width = 780;
},
{
associatedMasterId = "8A89AD82-2B0C-40F6-97CA-3AF9ED9FF3A8";
layerId = "0E3C4C3F-E86A-4E48-BA02-70EE699FECFC";
width = 600;
},
{
associatedMasterId = "8A89AD82-2B0C-40F6-97CA-3AF9ED9FF3A8";
layerId = "8877225F-9A4F-4FE9-9298-E786CE3C091C";
width = 600;
},
{
layerId = "5AF9D2C4-93A9-4350-9D2E-611822E0073C";
paths = (
{
closed = 1;
nodes = (
"155 0 LINE",
"155 714 LINE",
"355 714 LINE",
"355 0 LINE",
"425 0 LINE",
"425 714 LINE",
"625 714 LINE",
"625 0 LINE",
"710 0 LINE",
"710 784 LINE",
"70 784 LINE",
"70 0 LINE"
);
}
);
width = 780;
},
{
associatedMasterId = "8A89AD82-2B0C-40F6-97CA-3AF9ED9FF3A8";
layerId = "175EC1D6-1DFB-48D4-8635-0B6059DF0927";
paths = (
{
closed = 1;
nodes = (
"120 0 LINE",
"120 734 LINE",
"365 734 LINE",
"365 0 LINE",
"415 0 LINE",
"415 734 LINE",
"660 734 LINE",
"660 0 LINE",
"710 0 LINE",
"710 784 LINE",
"70 784 LINE",
"70 0 LINE"
);
}
);
width = 780;
},
{
associatedMasterId = "8A89AD82-2B0C-40F6-97CA-3AF9ED9FF3A8";
layerId = "2CD66A9C-B153-4A14-8403-503AAB71A842";
width = 600;
},
{
associatedMasterId = "8A89AD82-2B0C-40F6-97CA-3AF9ED9FF3A8";
layerId = "D5A259FC-BD70-44C4-B3C5-408723CBA272";
paths = (
{
closed = 1;
nodes = (
"143 0 LINE",
"143 734 LINE",
"365 734 LINE",
"365 0 LINE",
"415 0 LINE",
"415 734 LINE",
"637 734 LINE",
"637 0 LINE",
"710 0 LINE",
"710 784 LINE",
"70 784 LINE",
"70 0 LINE"
);
}
);
width = 780;
},
{
layerId = "AE502CCD-A4D0-4FF0-92B5-8B29CDC657FD";
paths = (
{
closed = 1;
nodes = (
"235 0 LINE",
"235 736 LINE",
"382 736 LINE",
"382 0 LINE",
"397 0 LINE",
"397 736 LINE",
"544 736 LINE",
"544 0 LINE",
"709 0 LINE",
"709 784 LINE",
"70 784 LINE",
"70 0 LINE"
);
}
);
width = 779;
},
{
associatedMasterId = "AE502CCD-A4D0-4FF0-92B5-8B29CDC657FD";
layerId = "C6FD7B2F-C117-46F1-A001-DCDDFC36DC1D";
width = 600;
},
{
associatedMasterId = "AE502CCD-A4D0-4FF0-92B5-8B29CDC657FD";
layerId = "11934C83-53E8-46FD-85A4-B259647C832C";
width = 600;
},
{
associatedMasterId = "AE502CCD-A4D0-4FF0-92B5-8B29CDC657FD";
layerId = "71FD2300-FAC9-4AB4-92CD-23B6C1B810C0";
paths = (
{
closed = 1;
nodes = (
"120 0 LINE",
"120 734 LINE",
"365 734 LINE",
"365 0 LINE",
"415 0 LINE",
"415 734 LINE",
"660 734 LINE",
"660 0 LINE",
"710 0 LINE",
"710 784 LINE",
"70 784 LINE",
"70 0 LINE"
);
}
);
width = 780;
},
{
associatedMasterId = "AE502CCD-A4D0-4FF0-92B5-8B29CDC657FD";
layerId = "3C6941B3-376A-463D-8BCE-8FAB74B8CE3D";
width = 600;
},
{
associatedMasterId = "AE502CCD-A4D0-4FF0-92B5-8B29CDC657FD";
layerId = "70C5C2DE-BB50-46A0-B95F-58FDEB76F800";
paths = (
{
closed = 1;
nodes = (
"143 0 LINE",
"143 734 LINE",
"365 734 LINE",
"365 0 LINE",
"415 0 LINE",
"415 734 LINE",
"637 734 LINE",
"637 0 LINE",
"710 0 LINE",
"710 784 LINE",
"70 784 LINE",
"70 0 LINE"
);
}
);
width = 780;
},
{
associatedMasterId = "8A89AD82-2B0C-40F6-97CA-3AF9ED9FF3A8";
layerId = "909388F7-88C2-4DA9-AB96-B13A0726FCBB";
paths = (
{
closed = 1;
nodes = (
"153 0 LINE",
"153 701 LINE",
"365 701 LINE",
"365 0 LINE",
"415 0 LINE",
"415 701 LINE",
"626 701 LINE",
"626 0 LINE",
"709 0 LINE",
"709 784 LINE",
"70 784 LINE",
"70 0 LINE"
);
}
);
width = 779;
},
{
associatedMasterId = "8A89AD82-2B0C-40F6-97CA-3AF9ED9FF3A8";
layerId = "F87D14C9-5903-481B-804C-33DC195335B4";
width = 600;
},
{
associatedMasterId = "8A89AD82-2B0C-40F6-97CA-3AF9ED9FF3A8";
layerId = "8FB96A4E-229E-4098-A78A-4F2B3CDE8744";
width = 600;
},
{
associatedMasterId = "8A89AD82-2B0C-40F6-97CA-3AF9ED9FF3A8";
layerId = "01CD86E2-79E2-4EB2-AFCC-7332063034AB";
paths = (
{
closed = 1;
nodes = (
"235 0 LINE",
"235 696 LINE",
"362 696 LINE",
"362 0 LINE",
"417 0 LINE",
"417 696 LINE",
"544 696 LINE",
"544 0 LINE",
"709 0 LINE",
"709 784 LINE",
"70 784 LINE",
"70 0 LINE"
);
}
);
width = 779;
}
);
unicode = 004D;
},
{
glyphname = N;
lastChange = "2021-07-18 16:05:34 +0000";
layers = (
{
layerId = "8A89AD82-2B0C-40F6-97CA-3AF9ED9FF3A8";
paths = (
{
closed = 1;
nodes = (
"153 0 LINE",
"153 736 LINE",
"236 736 LINE",
"236 522 LINE",
"319 522 LINE",
"319 0 LINE",
"487 0 LINE",
"487 784 LINE",
"472 784 LINE",
"472 48 LINE",
"402 48 LINE",
"402 570 LINE",
"319 570 LINE",
"319 784 LINE",
"70 784 LINE",
"70 0 LINE"
);
}
);
width = 557;
},
{
layerId = "18468F94-9FC9-4171-B83A-16111EF84EF0";
paths = (
{
closed = 1;
nodes = (
"155 0 LINE",
"155 734 LINE",
"240 734 LINE",
"240 520 LINE",
"325 520 LINE",
"325 0 LINE",
"530 0 LINE",
"530 784 LINE",
"480 784 LINE",
"480 50 LINE",
"410 50 LINE",
"410 570 LINE",
"325 570 LINE",
"325 784 LINE",
"70 784 LINE",
"70 0 LINE"
);
}
);
width = 600;
},
{
associatedMasterId = "8A89AD82-2B0C-40F6-97CA-3AF9ED9FF3A8";
layerId = "0E3C4C3F-E86A-4E48-BA02-70EE699FECFC";
width = 600;
},
{
associatedMasterId = "8A89AD82-2B0C-40F6-97CA-3AF9ED9FF3A8";
layerId = "8877225F-9A4F-4FE9-9298-E786CE3C091C";
width = 600;
},
{
layerId = "5AF9D2C4-93A9-4350-9D2E-611822E0073C";
paths = (
{
closed = 1;
nodes = (
"155 0 LINE",
"155 714 LINE",
"240 714 LINE",
"240 500 LINE",
"325 500 LINE",
"325 0 LINE",
"540 0 LINE",
"540 784 LINE",
"470 784 LINE",
"470 70 LINE",
"410 70 LINE",
"410 570 LINE",
"325 570 LINE",
"325 784 LINE",
"70 784 LINE",
"70 0 LINE"
);
}
);
width = 610;
},
{
associatedMasterId = "8A89AD82-2B0C-40F6-97CA-3AF9ED9FF3A8";
layerId = "175EC1D6-1DFB-48D4-8635-0B6059DF0927";
paths = (
{
closed = 1;
nodes = (
"120 0 LINE",
"120 734 LINE",
"220 734 LINE",
"220 520 LINE",
"320 520 LINE",
"320 0 LINE",
"490 0 LINE",
"490 784 LINE",
"440 784 LINE",
"440 50 LINE",
"370 50 LINE",
"370 570 LINE",
"270 570 LINE",
"270 784 LINE",
"70 784 LINE",
"70 0 LINE"
);
}
);
width = 560;
},
{
associatedMasterId = "8A89AD82-2B0C-40F6-97CA-3AF9ED9FF3A8";
layerId = "2CD66A9C-B153-4A14-8403-503AAB71A842";
width = 600;
},
{
associatedMasterId = "8A89AD82-2B0C-40F6-97CA-3AF9ED9FF3A8";
layerId = "D5A259FC-BD70-44C4-B3C5-408723CBA272";
paths = (
{
closed = 1;
nodes = (
"143 0 LINE",
"143 734 LINE",
"233 734 LINE",
"233 520 LINE",
"323 520 LINE",
"323 0 LINE",
"517 0 LINE",
"517 784 LINE",
"467 784 LINE",
"467 50 LINE",
"397 50 LINE",
"397 570 LINE",
"307 570 LINE",
"307 784 LINE",
"70 784 LINE",
"70 0 LINE"
);
}
);
width = 587;
},
{
layerId = "AE502CCD-A4D0-4FF0-92B5-8B29CDC657FD";
paths = (
{
closed = 1;
nodes = (
"200 0 LINE",
"200 736 LINE",
"283 736 LINE",
"283 522 LINE",
"383 522 LINE",
"383 0 LINE",
"568 0 LINE",
"568 784 LINE",
"553 784 LINE",
"553 48 LINE",
"483 48 LINE",
"483 570 LINE",
"383 570 LINE",
"383 784 LINE",
"70 784 LINE",
"70 0 LINE"
);
}
);
width = 638;
},
{
associatedMasterId = "AE502CCD-A4D0-4FF0-92B5-8B29CDC657FD";
layerId = "D21E8219-2D6C-4B46-B3AA-2C908A0262EC";
width = 600;
},
{
associatedMasterId = "AE502CCD-A4D0-4FF0-92B5-8B29CDC657FD";
layerId = "9A1CA3E8-F585-4EBF-BD7C-1044621850F2";
width = 600;
},
{
associatedMasterId = "AE502CCD-A4D0-4FF0-92B5-8B29CDC657FD";
layerId = "28470F37-C529-444E-8613-3376BDE01734";
paths = (
{
closed = 1;
nodes = (
"120 0 LINE",
"120 734 LINE",
"220 734 LINE",
"220 520 LINE",
"320 520 LINE",
"320 0 LINE",
"490 0 LINE",
"490 784 LINE",
"440 784 LINE",
"440 50 LINE",
"370 50 LINE",
"370 570 LINE",
"270 570 LINE",
"270 784 LINE",
"70 784 LINE",
"70 0 LINE"
);
}
);
width = 560;
},
{
associatedMasterId = "AE502CCD-A4D0-4FF0-92B5-8B29CDC657FD";
layerId = "6FC0932C-E868-46DF-9997-A376043F21C7";
width = 600;
},
{
associatedMasterId = "AE502CCD-A4D0-4FF0-92B5-8B29CDC657FD";
layerId = "E970CE08-81C6-4CA0-92A7-DCE36365C1B9";
paths = (
{
closed = 1;
nodes = (
"143 0 LINE",
"143 734 LINE",
"233 734 LINE",
"233 520 LINE",
"323 520 LINE",
"323 0 LINE",
"517 0 LINE",
"517 784 LINE",
"467 784 LINE",
"467 50 LINE",
"397 50 LINE",
"397 570 LINE",
"307 570 LINE",
"307 784 LINE",
"70 784 LINE",
"70 0 LINE"
);
}
);
width = 587;
},
{
associatedMasterId = "8A89AD82-2B0C-40F6-97CA-3AF9ED9FF3A8";
layerId = "909388F7-88C2-4DA9-AB96-B13A0726FCBB";
paths = (
{
closed = 1;
nodes = (
"153 0 LINE",
"153 701 LINE",
"236 701 LINE",
"236 487 LINE",
"319 487 LINE",
"319 0 LINE",
"505 0 LINE",
"505 784 LINE",
"455 784 LINE",
"455 83 LINE",
"402 83 LINE",
"402 570 LINE",
"319 570 LINE",
"319 784 LINE",
"70 784 LINE",
"70 0 LINE"
);
}
);
width = 575;
},
{
associatedMasterId = "8A89AD82-2B0C-40F6-97CA-3AF9ED9FF3A8";
layerId = "F87D14C9-5903-481B-804C-33DC195335B4";
width = 600;
},
{
associatedMasterId = "8A89AD82-2B0C-40F6-97CA-3AF9ED9FF3A8";
layerId = "8FB96A4E-229E-4098-A78A-4F2B3CDE8744";
width = 600;
},
{
associatedMasterId = "8A89AD82-2B0C-40F6-97CA-3AF9ED9FF3A8";
layerId = "01CD86E2-79E2-4EB2-AFCC-7332063034AB";
paths = (
{
closed = 1;
nodes = (
"200 0 LINE",
"200 696 LINE",
"283 696 LINE",
"283 482 LINE",
"383 482 LINE",
"383 0 LINE",
"588 0 LINE",
"588 784 LINE",
"533 784 LINE",
"533 88 LINE",
"483 88 LINE",
"483 570 LINE",
"383 570 LINE",
"383 784 LINE",
"70 784 LINE",
"70 0 LINE"
);
}
);
width = 658;
}
);
unicode = 004E;
},
{
glyphname = Ntilde;
lastChange = "2021-07-18 16:05:34 +0000";
layers = (
{
layerId = "8A89AD82-2B0C-40F6-97CA-3AF9ED9FF3A8";
paths = (
{
closed = 1;
nodes = (
"153 0 LINE",
"153 736 LINE",
"236 736 LINE",
"236 522 LINE",
"319 522 LINE",
"319 0 LINE",
"487 0 LINE",
"487 784 LINE",
"472 784 LINE",
"472 48 LINE",
"402 48 LINE",
"402 570 LINE",
"319 570 LINE",
"319 784 LINE",
"70 784 LINE",
"70 0 LINE"
);
},
{
closed = 1;
nodes = (
"286 903 LINE",
"286 958 LINE",
"369 958 LINE",
"369 998 LINE",
"271 998 LINE",
"271 943 LINE",
"188 943 LINE",
"188 903 LINE"
);
}
);
width = 557;
},
{
layerId = "18468F94-9FC9-4171-B83A-16111EF84EF0";
paths = (
{
closed = 1;
nodes = (
"155 0 LINE",
"155 734 LINE",
"240 734 LINE",
"240 520 LINE",
"325 520 LINE",
"325 0 LINE",
"530 0 LINE",
"530 784 LINE",
"480 784 LINE",
"480 50 LINE",
"410 50 LINE",
"410 570 LINE",
"325 570 LINE",
"325 784 LINE",
"70 784 LINE",
"70 0 LINE"
);
},
{
closed = 1;
nodes = (
"311 903 LINE",
"311 958 LINE",
"396 958 LINE",
"396 998 LINE",
"291 998 LINE",
"291 943 LINE",
"205 943 LINE",
"205 903 LINE"
);
}
);
width = 600;
},
{
associatedMasterId = "8A89AD82-2B0C-40F6-97CA-3AF9ED9FF3A8";
layerId = "0E3C4C3F-E86A-4E48-BA02-70EE699FECFC";
width = 600;
},
{
associatedMasterId = "8A89AD82-2B0C-40F6-97CA-3AF9ED9FF3A8";
layerId = "8877225F-9A4F-4FE9-9298-E786CE3C091C";
width = 600;
},
{
layerId = "5AF9D2C4-93A9-4350-9D2E-611822E0073C";
paths = (
{
closed = 1;
nodes = (
"155 0 LINE",
"155 714 LINE",
"240 714 LINE",
"240 500 LINE",
"325 500 LINE",
"325 0 LINE",
"540 0 LINE",
"540 784 LINE",
"470 784 LINE",
"470 70 LINE",
"410 70 LINE",
"410 570 LINE",
"325 570 LINE",
"325 784 LINE",
"70 784 LINE",
"70 0 LINE"
);
},
{
closed = 1;
nodes = (
"322 878 LINE",
"322 938 LINE",
"407 938 LINE",
"407 998 LINE",
"287 998 LINE",
"287 938 LINE",
"202 938 LINE",
"202 878 LINE"
);
}
);
width = 610;
},
{
associatedMasterId = "8A89AD82-2B0C-40F6-97CA-3AF9ED9FF3A8";
layerId = "175EC1D6-1DFB-48D4-8635-0B6059DF0927";
paths = (
{
closed = 1;
nodes = (
"120 0 LINE",
"120 734 LINE",
"220 734 LINE",
"220 520 LINE",
"320 520 LINE",
"320 0 LINE",
"490 0 LINE",
"490 784 LINE",
"440 784 LINE",
"440 50 LINE",
"370 50 LINE",
"370 570 LINE",
"270 570 LINE",
"270 784 LINE",
"70 784 LINE",
"70 0 LINE"
);
},
{
closed = 1;
nodes = (
"287 898 LINE",
"287 948 LINE",
"387 948 LINE",
"387 998 LINE",
"272 998 LINE",
"272 948 LINE",
"172 948 LINE",
"172 898 LINE"
);
}
);
width = 560;
},
{
associatedMasterId = "8A89AD82-2B0C-40F6-97CA-3AF9ED9FF3A8";
layerId = "2CD66A9C-B153-4A14-8403-503AAB71A842";
width = 600;
},
{
associatedMasterId = "8A89AD82-2B0C-40F6-97CA-3AF9ED9FF3A8";
layerId = "D5A259FC-BD70-44C4-B3C5-408723CBA272";
paths = (
{
closed = 1;
nodes = (
"143 0 LINE",
"143 734 LINE",
"233 734 LINE",
"233 520 LINE",
"323 520 LINE",
"323 0 LINE",
"517 0 LINE",
"517 784 LINE",
"467 784 LINE",
"467 50 LINE",
"397 50 LINE",
"397 570 LINE",
"307 570 LINE",
"307 784 LINE",
"70 784 LINE",
"70 0 LINE"
);
},
{
closed = 1;
nodes = (
"301 901 LINE",
"301 955 LINE",
"391 955 LINE",
"391 998 LINE",
"286 998 LINE",
"286 945 LINE",
"196 945 LINE",
"196 901 LINE"
);
}
);
width = 587;
},
{
layerId = "AE502CCD-A4D0-4FF0-92B5-8B29CDC657FD";
paths = (
{
closed = 1;
nodes = (
"200 0 LINE",
"200 736 LINE",
"283 736 LINE",
"283 522 LINE",
"383 522 LINE",
"383 0 LINE",
"568 0 LINE",
"568 784 LINE",
"553 784 LINE",
"553 48 LINE",
"483 48 LINE",
"483 570 LINE",
"383 570 LINE",
"383 784 LINE",
"70 784 LINE",
"70 0 LINE"
);
},
{
closed = 1;
nodes = (
"327 903 LINE",
"327 958 LINE",
"410 958 LINE",
"410 998 LINE",
"312 998 LINE",
"312 943 LINE",
"229 943 LINE",
"229 903 LINE"
);
}
);
width = 638;
},
{
associatedMasterId = "AE502CCD-A4D0-4FF0-92B5-8B29CDC657FD";
layerId = "86EEC32F-C839-43E1-9093-D2CF5CF2084F";
width = 600;
},
{
associatedMasterId = "AE502CCD-A4D0-4FF0-92B5-8B29CDC657FD";
layerId = "40BF067D-B35F-48C9-9170-9F633D4CA6E1";
width = 600;
},
{
associatedMasterId = "AE502CCD-A4D0-4FF0-92B5-8B29CDC657FD";
layerId = "2FFCF93F-60F4-49CF-8335-33CCD69DBC2D";
paths = (
{
closed = 1;
nodes = (
"120 0 LINE",
"120 734 LINE",
"220 734 LINE",
"220 520 LINE",
"320 520 LINE",
"320 0 LINE",
"490 0 LINE",
"490 784 LINE",
"440 784 LINE",
"440 50 LINE",
"370 50 LINE",
"370 570 LINE",
"270 570 LINE",
"270 784 LINE",
"70 784 LINE",
"70 0 LINE"
);
},
{
closed = 1;
nodes = (
"287 898 LINE",
"287 948 LINE",
"387 948 LINE",
"387 998 LINE",
"272 998 LINE",
"272 948 LINE",
"172 948 LINE",
"172 898 LINE"
);
}
);
width = 560;
},
{
associatedMasterId = "AE502CCD-A4D0-4FF0-92B5-8B29CDC657FD";
layerId = "FA75A81A-6ABD-40F3-B87D-EF807F1C71EA";
width = 600;
},
{
associatedMasterId = "AE502CCD-A4D0-4FF0-92B5-8B29CDC657FD";
layerId = "619EC7C6-E6AD-48D4-9BAD-175A45DE54D3";
paths = (
{
closed = 1;
nodes = (
"143 0 LINE",
"143 734 LINE",
"233 734 LINE",
"233 520 LINE",
"323 520 LINE",
"323 0 LINE",
"517 0 LINE",
"517 784 LINE",
"467 784 LINE",
"467 50 LINE",
"397 50 LINE",
"397 570 LINE",
"307 570 LINE",
"307 784 LINE",
"70 784 LINE",
"70 0 LINE"
);
},
{
closed = 1;
nodes = (
"301 901 LINE",
"301 955 LINE",
"391 955 LINE",
"391 998 LINE",
"286 998 LINE",
"286 945 LINE",
"196 945 LINE",
"196 901 LINE"
);
}
);
width = 587;
},
{
associatedMasterId = "8A89AD82-2B0C-40F6-97CA-3AF9ED9FF3A8";
layerId = "909388F7-88C2-4DA9-AB96-B13A0726FCBB";
paths = (
{
closed = 1;
nodes = (
"153 0 LINE",
"153 701 LINE",
"236 701 LINE",
"236 487 LINE",
"319 487 LINE",
"319 0 LINE",
"553 0 LINE",
"553 784 LINE",
"468 784 LINE",
"468 83 LINE",
"402 83 LINE",
"402 570 LINE",
"319 570 LINE",
"319 784 LINE",
"70 784 LINE",
"70 0 LINE"
);
},
{
closed = 1;
nodes = (
"335 859 LINE",
"335 923 LINE",
"418 923 LINE",
"418 998 LINE",
"285 998 LINE",
"285 934 LINE",
"202 934 LINE",
"202 859 LINE"
);
}
);
width = 623;
},
{
associatedMasterId = "8A89AD82-2B0C-40F6-97CA-3AF9ED9FF3A8";
layerId = "F87D14C9-5903-481B-804C-33DC195335B4";
width = 600;
},
{
associatedMasterId = "8A89AD82-2B0C-40F6-97CA-3AF9ED9FF3A8";
layerId = "8FB96A4E-229E-4098-A78A-4F2B3CDE8744";
width = 600;
},
{
associatedMasterId = "8A89AD82-2B0C-40F6-97CA-3AF9ED9FF3A8";
layerId = "01CD86E2-79E2-4EB2-AFCC-7332063034AB";
paths = (
{
closed = 1;
nodes = (
"200 0 LINE",
"200 696 LINE",
"283 696 LINE",
"283 482 LINE",
"383 482 LINE",
"383 0 LINE",
"588 0 LINE",
"588 784 LINE",
"533 784 LINE",
"533 88 LINE",
"483 88 LINE",
"483 570 LINE",
"383 570 LINE",
"383 784 LINE",
"70 784 LINE",
"70 0 LINE"
);
},
{
closed = 1;
nodes = (
"349 853 LINE",
"349 918 LINE",
"432 918 LINE",
"432 998 LINE",
"304 998 LINE",
"304 933 LINE",
"223 933 LINE",
"223 853 LINE"
);
}
);
width = 658;
}
);
unicode = 00D1;
},
{
glyphname = O;
lastChange = "2021-07-18 16:05:34 +0000";
layers = (
{
layerId = "8A89AD82-2B0C-40F6-97CA-3AF9ED9FF3A8";
paths = (
{
closed = 1;
nodes = (
"450 0 LINE",
"450 784 LINE",
"70 784 LINE",
"70 0 LINE"
);
},
{
closed = 1;
nodes = (
"153 736 LINE",
"435 736 LINE",
"435 48 LINE",
"153 48 LINE"
);
}
);
width = 520;
},
{
layerId = "18468F94-9FC9-4171-B83A-16111EF84EF0";
paths = (
{
closed = 1;
nodes = (
"450 0 LINE",
"450 784 LINE",
"70 784 LINE",
"70 0 LINE"
);
},
{
closed = 1;
nodes = (
"155 734 LINE",
"400 734 LINE",
"400 50 LINE",
"155 50 LINE"
);
}
);
width = 520;
},
{
associatedMasterId = "8A89AD82-2B0C-40F6-97CA-3AF9ED9FF3A8";
layerId = "0E3C4C3F-E86A-4E48-BA02-70EE699FECFC";
width = 600;
},
{
associatedMasterId = "8A89AD82-2B0C-40F6-97CA-3AF9ED9FF3A8";
layerId = "8877225F-9A4F-4FE9-9298-E786CE3C091C";
width = 600;
},
{
layerId = "5AF9D2C4-93A9-4350-9D2E-611822E0073C";
paths = (
{
closed = 1;
nodes = (
"450 0 LINE",
"450 784 LINE",
"70 784 LINE",
"70 0 LINE"
);
},
{
closed = 1;
nodes = (
"155 714 LINE",
"380 714 LINE",
"380 70 LINE",
"155 70 LINE"
);
}
);
width = 520;
},
{
associatedMasterId = "8A89AD82-2B0C-40F6-97CA-3AF9ED9FF3A8";
layerId = "175EC1D6-1DFB-48D4-8635-0B6059DF0927";
paths = (
{
closed = 1;
nodes = (
"450 0 LINE",
"450 784 LINE",
"70 784 LINE",
"70 0 LINE"
);
},
{
closed = 1;
nodes = (
"120 734 LINE",
"400 734 LINE",
"400 50 LINE",
"120 50 LINE"
);
}
);
width = 520;
},
{
associatedMasterId = "8A89AD82-2B0C-40F6-97CA-3AF9ED9FF3A8";
layerId = "2CD66A9C-B153-4A14-8403-503AAB71A842";
width = 600;
},
{
associatedMasterId = "8A89AD82-2B0C-40F6-97CA-3AF9ED9FF3A8";
layerId = "D5A259FC-BD70-44C4-B3C5-408723CBA272";
paths = (
{
closed = 1;
nodes = (
"450 0 LINE",
"450 784 LINE",
"70 784 LINE",
"70 0 LINE"
);
},
{
closed = 1;
nodes = (
"143 734 LINE",
"400 734 LINE",
"400 50 LINE",
"143 50 LINE"
);
}
);
width = 520;
},
{
layerId = "AE502CCD-A4D0-4FF0-92B5-8B29CDC657FD";
paths = (
{
closed = 1;
nodes = (
"450 0 LINE",
"450 784 LINE",
"70 784 LINE",
"70 0 LINE"
);
},
{
closed = 1;
nodes = (
"235 736 LINE",
"435 736 LINE",
"435 48 LINE",
"235 48 LINE"
);
}
);
width = 520;
},
{
associatedMasterId = "AE502CCD-A4D0-4FF0-92B5-8B29CDC657FD";
layerId = "704B975B-7C3B-4523-AF5E-FD330392E436";
width = 600;
},
{
associatedMasterId = "AE502CCD-A4D0-4FF0-92B5-8B29CDC657FD";
layerId = "AD4579A2-3F98-408C-9FDF-9226678F0429";
width = 600;
},
{
associatedMasterId = "AE502CCD-A4D0-4FF0-92B5-8B29CDC657FD";
layerId = "4BE14F1D-B87A-4741-A36A-7A6A55C0357F";
paths = (
{
closed = 1;
nodes = (
"450 0 LINE",
"450 784 LINE",
"70 784 LINE",
"70 0 LINE"
);
},
{
closed = 1;
nodes = (
"120 734 LINE",
"400 734 LINE",
"400 50 LINE",
"120 50 LINE"
);
}
);
width = 520;
},
{
associatedMasterId = "AE502CCD-A4D0-4FF0-92B5-8B29CDC657FD";
layerId = "FFA67B54-533F-4D38-89CB-FE7A660EC7C1";
width = 600;
},
{
associatedMasterId = "AE502CCD-A4D0-4FF0-92B5-8B29CDC657FD";
layerId = "CB6DE38B-CCE1-40A5-B498-F6AC39BD6061";
paths = (
{
closed = 1;
nodes = (
"450 0 LINE",
"450 784 LINE",
"70 784 LINE",
"70 0 LINE"
);
},
{
closed = 1;
nodes = (
"143 734 LINE",
"400 734 LINE",
"400 50 LINE",
"143 50 LINE"
);
}
);
width = 520;
},
{
associatedMasterId = "8A89AD82-2B0C-40F6-97CA-3AF9ED9FF3A8";
layerId = "909388F7-88C2-4DA9-AB96-B13A0726FCBB";
paths = (
{
closed = 1;
nodes = (
"450 0 LINE",
"450 784 LINE",
"70 784 LINE",
"70 0 LINE"
);
},
{
closed = 1;
nodes = (
"153 701 LINE",
"400 701 LINE",
"400 83 LINE",
"153 83 LINE"
);
}
);
width = 520;
},
{
associatedMasterId = "8A89AD82-2B0C-40F6-97CA-3AF9ED9FF3A8";
layerId = "F87D14C9-5903-481B-804C-33DC195335B4";
width = 600;
},
{
associatedMasterId = "8A89AD82-2B0C-40F6-97CA-3AF9ED9FF3A8";
layerId = "8FB96A4E-229E-4098-A78A-4F2B3CDE8744";
width = 600;
},
{
associatedMasterId = "8A89AD82-2B0C-40F6-97CA-3AF9ED9FF3A8";
layerId = "01CD86E2-79E2-4EB2-AFCC-7332063034AB";
paths = (
{
closed = 1;
nodes = (
"450 0 LINE",
"450 784 LINE",
"70 784 LINE",
"70 0 LINE"
);
},
{
closed = 1;
nodes = (
"235 696 LINE",
"395 696 LINE",
"395 88 LINE",
"235 88 LINE"
);
}
);
width = 520;
}
);
unicode = 004F;
},
{
glyphname = Oacute;
lastChange = "2021-07-18 16:05:34 +0000";
layers = (
{
layerId = "8A89AD82-2B0C-40F6-97CA-3AF9ED9FF3A8";
paths = (
{
closed = 1;
nodes = (
"450 0 LINE",
"450 784 LINE",
"70 784 LINE",
"70 0 LINE"
);
},
{
closed = 1;
nodes = (
"153 736 LINE",
"435 736 LINE",
"435 48 LINE",
"153 48 LINE"
);
},
{
closed = 1;
nodes = (
"450 950 LINE",
"450 998 LINE",
"260 998 LINE",
"260 950 LINE"
);
}
);
width = 520;
},
{
layerId = "18468F94-9FC9-4171-B83A-16111EF84EF0";
paths = (
{
closed = 1;
nodes = (
"450 0 LINE",
"450 784 LINE",
"70 784 LINE",
"70 0 LINE"
);
},
{
closed = 1;
nodes = (
"155 734 LINE",
"400 734 LINE",
"400 50 LINE",
"155 50 LINE"
);
},
{
closed = 1;
nodes = (
"450 948 LINE",
"450 998 LINE",
"260 998 LINE",
"260 948 LINE"
);
}
);
width = 520;
},
{
associatedMasterId = "8A89AD82-2B0C-40F6-97CA-3AF9ED9FF3A8";
layerId = "0E3C4C3F-E86A-4E48-BA02-70EE699FECFC";
width = 600;
},
{
associatedMasterId = "8A89AD82-2B0C-40F6-97CA-3AF9ED9FF3A8";
layerId = "8877225F-9A4F-4FE9-9298-E786CE3C091C";
width = 600;
},
{
layerId = "5AF9D2C4-93A9-4350-9D2E-611822E0073C";
paths = (
{
closed = 1;
nodes = (
"450 0 LINE",
"450 784 LINE",
"70 784 LINE",
"70 0 LINE"
);
},
{
closed = 1;
nodes = (
"155 714 LINE",
"380 714 LINE",
"380 70 LINE",
"155 70 LINE"
);
},
{
closed = 1;
nodes = (
"450 928 LINE",
"450 998 LINE",
"260 998 LINE",
"260 928 LINE"
);
}
);
width = 520;
},
{
associatedMasterId = "8A89AD82-2B0C-40F6-97CA-3AF9ED9FF3A8";
layerId = "175EC1D6-1DFB-48D4-8635-0B6059DF0927";
paths = (
{
closed = 1;
nodes = (
"450 0 LINE",
"450 784 LINE",
"70 784 LINE",
"70 0 LINE"
);
},
{
closed = 1;
nodes = (
"120 734 LINE",
"400 734 LINE",
"400 50 LINE",
"120 50 LINE"
);
},
{
closed = 1;
nodes = (
"450 948 LINE",
"450 998 LINE",
"260 998 LINE",
"260 948 LINE"
);
}
);
width = 520;
},
{
associatedMasterId = "8A89AD82-2B0C-40F6-97CA-3AF9ED9FF3A8";
layerId = "2CD66A9C-B153-4A14-8403-503AAB71A842";
width = 600;
},
{
associatedMasterId = "8A89AD82-2B0C-40F6-97CA-3AF9ED9FF3A8";
layerId = "D5A259FC-BD70-44C4-B3C5-408723CBA272";
paths = (
{
closed = 1;
nodes = (
"450 0 LINE",
"450 784 LINE",
"70 784 LINE",
"70 0 LINE"
);
},
{
closed = 1;
nodes = (
"143 734 LINE",
"400 734 LINE",
"400 50 LINE",
"143 50 LINE"
);
},
{
closed = 1;
nodes = (
"450 948 LINE",
"450 998 LINE",
"260 998 LINE",
"260 948 LINE"
);
}
);
width = 520;
},
{
layerId = "AE502CCD-A4D0-4FF0-92B5-8B29CDC657FD";
paths = (
{
closed = 1;
nodes = (
"450 0 LINE",
"450 784 LINE",
"70 784 LINE",
"70 0 LINE"
);
},
{
closed = 1;
nodes = (
"235 736 LINE",
"435 736 LINE",
"435 48 LINE",
"235 48 LINE"
);
},
{
closed = 1;
nodes = (
"450 950 LINE",
"450 998 LINE",
"260 998 LINE",
"260 950 LINE"
);
}
);
width = 520;
},
{
associatedMasterId = "AE502CCD-A4D0-4FF0-92B5-8B29CDC657FD";
layerId = "A785361A-F9BA-4A76-BFAA-48E8C40A115E";
width = 600;
},
{
associatedMasterId = "AE502CCD-A4D0-4FF0-92B5-8B29CDC657FD";
layerId = "16F1A168-6154-4BBF-B604-D031400FCEE6";
width = 600;
},
{
associatedMasterId = "AE502CCD-A4D0-4FF0-92B5-8B29CDC657FD";
layerId = "2526034E-8B34-4301-B1C9-1C67BEE983DD";
paths = (
{
closed = 1;
nodes = (
"450 0 LINE",
"450 784 LINE",
"70 784 LINE",
"70 0 LINE"
);
},
{
closed = 1;
nodes = (
"120 734 LINE",
"400 734 LINE",
"400 50 LINE",
"120 50 LINE"
);
},
{
closed = 1;
nodes = (
"450 948 LINE",
"450 998 LINE",
"260 998 LINE",
"260 948 LINE"
);
}
);
width = 520;
},
{
associatedMasterId = "AE502CCD-A4D0-4FF0-92B5-8B29CDC657FD";
layerId = "1916A939-24C6-4654-9925-7A9F4BAF1F78";
width = 600;
},
{
associatedMasterId = "AE502CCD-A4D0-4FF0-92B5-8B29CDC657FD";
layerId = "D83DC5B1-B702-4EAF-B259-8B6F5F1336E2";
paths = (
{
closed = 1;
nodes = (
"450 0 LINE",
"450 784 LINE",
"70 784 LINE",
"70 0 LINE"
);
},
{
closed = 1;
nodes = (
"143 734 LINE",
"400 734 LINE",
"400 50 LINE",
"143 50 LINE"
);
},
{
closed = 1;
nodes = (
"450 948 LINE",
"450 998 LINE",
"260 998 LINE",
"260 948 LINE"
);
}
);
width = 520;
},
{
associatedMasterId = "8A89AD82-2B0C-40F6-97CA-3AF9ED9FF3A8";
layerId = "909388F7-88C2-4DA9-AB96-B13A0726FCBB";
paths = (
{
closed = 1;
nodes = (
"450 1624 LINE",
"450 1159 LINE",
"403 1159 LINE",
"403 1624 LINE"
);
},
{
closed = 1;
nodes = (
"669 -549 LINE",
"523 824 LINE",
"-143 1333 LINE",
"4 -40 LINE"
);
},
{
closed = 1;
nodes = (
"-66 541 LINE",
"328 501 LINE",
"470 -626 LINE",
"76 -587 LINE"
);
}
);
width = 520;
},
{
associatedMasterId = "8A89AD82-2B0C-40F6-97CA-3AF9ED9FF3A8";
layerId = "F87D14C9-5903-481B-804C-33DC195335B4";
width = 600;
},
{
associatedMasterId = "8A89AD82-2B0C-40F6-97CA-3AF9ED9FF3A8";
layerId = "8FB96A4E-229E-4098-A78A-4F2B3CDE8744";
width = 600;
},
{
associatedMasterId = "8A89AD82-2B0C-40F6-97CA-3AF9ED9FF3A8";
layerId = "01CD86E2-79E2-4EB2-AFCC-7332063034AB";
paths = (
{
closed = 1;
nodes = (
"450 0 LINE",
"450 784 LINE",
"70 784 LINE",
"70 0 LINE"
);
},
{
closed = 1;
nodes = (
"235 696 LINE",
"395 696 LINE",
"395 88 LINE",
"235 88 LINE"
);
},
{
closed = 1;
nodes = (
"450 910 LINE",
"450 998 LINE",
"260 998 LINE",
"260 910 LINE"
);
}
);
width = 520;
}
);
unicode = 00D3;
},
{
glyphname = Ocircumflex;
lastChange = "2021-07-18 16:05:34 +0000";
layers = (
{
layerId = "8A89AD82-2B0C-40F6-97CA-3AF9ED9FF3A8";
paths = (
{
closed = 1;
nodes = (
"450 0 LINE",
"450 784 LINE",
"70 784 LINE",
"70 0 LINE"
);
},
{
closed = 1;
nodes = (
"153 736 LINE",
"435 736 LINE",
"435 48 LINE",
"153 48 LINE"
);
},
{
closed = 1;
nodes = (
"450 950 LINE",
"450 998 LINE",
"70 998 LINE",
"70 950 LINE"
);
}
);
width = 520;
},
{
layerId = "18468F94-9FC9-4171-B83A-16111EF84EF0";
paths = (
{
closed = 1;
nodes = (
"450 0 LINE",
"450 784 LINE",
"70 784 LINE",
"70 0 LINE"
);
},
{
closed = 1;
nodes = (
"155 734 LINE",
"400 734 LINE",
"400 50 LINE",
"155 50 LINE"
);
},
{
closed = 1;
nodes = (
"450 948 LINE",
"450 998 LINE",
"70 998 LINE",
"70 948 LINE"
);
}
);
width = 520;
},
{
associatedMasterId = "8A89AD82-2B0C-40F6-97CA-3AF9ED9FF3A8";
layerId = "0E3C4C3F-E86A-4E48-BA02-70EE699FECFC";
width = 600;
},
{
associatedMasterId = "8A89AD82-2B0C-40F6-97CA-3AF9ED9FF3A8";
layerId = "8877225F-9A4F-4FE9-9298-E786CE3C091C";
width = 600;
},
{
layerId = "5AF9D2C4-93A9-4350-9D2E-611822E0073C";
paths = (
{
closed = 1;
nodes = (
"450 0 LINE",
"450 784 LINE",
"70 784 LINE",
"70 0 LINE"
);
},
{
closed = 1;
nodes = (
"155 714 LINE",
"380 714 LINE",
"380 70 LINE",
"155 70 LINE"
);
},
{
closed = 1;
nodes = (
"450 928 LINE",
"450 998 LINE",
"70 998 LINE",
"70 928 LINE"
);
}
);
width = 520;
},
{
associatedMasterId = "8A89AD82-2B0C-40F6-97CA-3AF9ED9FF3A8";
layerId = "175EC1D6-1DFB-48D4-8635-0B6059DF0927";
paths = (
{
closed = 1;
nodes = (
"450 0 LINE",
"450 784 LINE",
"70 784 LINE",
"70 0 LINE"
);
},
{
closed = 1;
nodes = (
"120 734 LINE",
"400 734 LINE",
"400 50 LINE",
"120 50 LINE"
);
},
{
closed = 1;
nodes = (
"450 948 LINE",
"450 998 LINE",
"70 998 LINE",
"70 948 LINE"
);
}
);
width = 520;
},
{
associatedMasterId = "8A89AD82-2B0C-40F6-97CA-3AF9ED9FF3A8";
layerId = "2CD66A9C-B153-4A14-8403-503AAB71A842";
width = 600;
},
{
associatedMasterId = "8A89AD82-2B0C-40F6-97CA-3AF9ED9FF3A8";
layerId = "D5A259FC-BD70-44C4-B3C5-408723CBA272";
paths = (
{
closed = 1;
nodes = (
"450 0 LINE",
"450 784 LINE",
"70 784 LINE",
"70 0 LINE"
);
},
{
closed = 1;
nodes = (
"143 734 LINE",
"400 734 LINE",
"400 50 LINE",
"143 50 LINE"
);
},
{
closed = 1;
nodes = (
"450 948 LINE",
"450 998 LINE",
"70 998 LINE",
"70 948 LINE"
);
}
);
width = 520;
},
{
layerId = "AE502CCD-A4D0-4FF0-92B5-8B29CDC657FD";
paths = (
{
closed = 1;
nodes = (
"450 0 LINE",
"450 784 LINE",
"70 784 LINE",
"70 0 LINE"
);
},
{
closed = 1;
nodes = (
"235 736 LINE",
"435 736 LINE",
"435 48 LINE",
"235 48 LINE"
);
},
{
closed = 1;
nodes = (
"450 950 LINE",
"450 998 LINE",
"70 998 LINE",
"70 950 LINE"
);
}
);
width = 520;
},
{
associatedMasterId = "AE502CCD-A4D0-4FF0-92B5-8B29CDC657FD";
layerId = "A62315F8-A91C-403D-BDF1-3D7C26A3AABB";
width = 600;
},
{
associatedMasterId = "AE502CCD-A4D0-4FF0-92B5-8B29CDC657FD";
layerId = "78C03086-1593-4706-A7C9-3EFEB2000A55";
width = 600;
},
{
associatedMasterId = "AE502CCD-A4D0-4FF0-92B5-8B29CDC657FD";
layerId = "C97E031D-2440-4CF5-9A6F-92D0ECC91876";
paths = (
{
closed = 1;
nodes = (
"450 0 LINE",
"450 784 LINE",
"70 784 LINE",
"70 0 LINE"
);
},
{
closed = 1;
nodes = (
"120 734 LINE",
"400 734 LINE",
"400 50 LINE",
"120 50 LINE"
);
},
{
closed = 1;
nodes = (
"450 948 LINE",
"450 998 LINE",
"70 998 LINE",
"70 948 LINE"
);
}
);
width = 520;
},
{
associatedMasterId = "AE502CCD-A4D0-4FF0-92B5-8B29CDC657FD";
layerId = "D8FD972C-2670-49E5-A6E5-3FAA7F215131";
width = 600;
},
{
associatedMasterId = "AE502CCD-A4D0-4FF0-92B5-8B29CDC657FD";
layerId = "B66C5047-874F-4F8D-ACD5-6B5A68519D8C";
paths = (
{
closed = 1;
nodes = (
"450 0 LINE",
"450 784 LINE",
"70 784 LINE",
"70 0 LINE"
);
},
{
closed = 1;
nodes = (
"143 734 LINE",
"400 734 LINE",
"400 50 LINE",
"143 50 LINE"
);
},
{
closed = 1;
nodes = (
"450 948 LINE",
"450 998 LINE",
"70 998 LINE",
"70 948 LINE"
);
}
);
width = 520;
},
{
associatedMasterId = "8A89AD82-2B0C-40F6-97CA-3AF9ED9FF3A8";
layerId = "909388F7-88C2-4DA9-AB96-B13A0726FCBB";
paths = (
{
closed = 1;
nodes = (
"450 1624 LINE",
"450 1159 LINE",
"70 1159 LINE",
"70 1624 LINE"
);
},
{
closed = 1;
nodes = (
"669 -549 LINE",
"523 824 LINE",
"-143 1333 LINE",
"4 -40 LINE"
);
},
{
closed = 1;
nodes = (
"-66 541 LINE",
"328 501 LINE",
"613 -626 LINE",
"219 -587 LINE"
);
}
);
width = 520;
},
{
associatedMasterId = "8A89AD82-2B0C-40F6-97CA-3AF9ED9FF3A8";
layerId = "F87D14C9-5903-481B-804C-33DC195335B4";
width = 600;
},
{
associatedMasterId = "8A89AD82-2B0C-40F6-97CA-3AF9ED9FF3A8";
layerId = "8FB96A4E-229E-4098-A78A-4F2B3CDE8744";
width = 600;
},
{
associatedMasterId = "8A89AD82-2B0C-40F6-97CA-3AF9ED9FF3A8";
layerId = "01CD86E2-79E2-4EB2-AFCC-7332063034AB";
paths = (
{
closed = 1;
nodes = (
"450 0 LINE",
"450 784 LINE",
"70 784 LINE",
"70 0 LINE"
);
},
{
closed = 1;
nodes = (
"235 696 LINE",
"395 696 LINE",
"395 88 LINE",
"235 88 LINE"
);
},
{
closed = 1;
nodes = (
"450 910 LINE",
"450 998 LINE",
"70 998 LINE",
"70 910 LINE"
);
}
);
width = 520;
}
);
unicode = 00D4;
},
{
glyphname = Odieresis;
lastChange = "2021-07-18 16:05:34 +0000";
layers = (
{
layerId = "8A89AD82-2B0C-40F6-97CA-3AF9ED9FF3A8";
paths = (
{
closed = 1;
nodes = (
"450 0 LINE",
"450 784 LINE",
"70 784 LINE",
"70 0 LINE"
);
},
{
closed = 1;
nodes = (
"153 736 LINE",
"435 736 LINE",
"435 48 LINE",
"153 48 LINE"
);
},
{
closed = 1;
nodes = (
"218 950 LINE",
"218 998 LINE",
"135 998 LINE",
"135 950 LINE"
);
},
{
closed = 1;
nodes = (
"384 950 LINE",
"384 998 LINE",
"301 998 LINE",
"301 950 LINE"
);
}
);
width = 520;
},
{
layerId = "18468F94-9FC9-4171-B83A-16111EF84EF0";
paths = (
{
closed = 1;
nodes = (
"450 0 LINE",
"450 784 LINE",
"70 784 LINE",
"70 0 LINE"
);
},
{
closed = 1;
nodes = (
"155 734 LINE",
"400 734 LINE",
"400 48 LINE",
"155 48 LINE"
);
},
{
closed = 1;
nodes = (
"217 948 LINE",
"217 998 LINE",
"132 998 LINE",
"132 948 LINE"
);
},
{
closed = 1;
nodes = (
"387 948 LINE",
"387 998 LINE",
"302 998 LINE",
"302 948 LINE"
);
}
);
width = 520;
},
{
associatedMasterId = "8A89AD82-2B0C-40F6-97CA-3AF9ED9FF3A8";
layerId = "0E3C4C3F-E86A-4E48-BA02-70EE699FECFC";
width = 600;
},
{
associatedMasterId = "8A89AD82-2B0C-40F6-97CA-3AF9ED9FF3A8";
layerId = "8877225F-9A4F-4FE9-9298-E786CE3C091C";
width = 600;
},
{
layerId = "5AF9D2C4-93A9-4350-9D2E-611822E0073C";
paths = (
{
closed = 1;
nodes = (
"450 0 LINE",
"450 784 LINE",
"70 784 LINE",
"70 0 LINE"
);
},
{
closed = 1;
nodes = (
"155 714 LINE",
"380 714 LINE",
"380 70 LINE",
"155 70 LINE"
);
},
{
closed = 1;
nodes = (
"217 928 LINE",
"217 998 LINE",
"132 998 LINE",
"132 928 LINE"
);
},
{
closed = 1;
nodes = (
"387 928 LINE",
"387 998 LINE",
"302 998 LINE",
"302 928 LINE"
);
}
);
width = 520;
},
{
associatedMasterId = "8A89AD82-2B0C-40F6-97CA-3AF9ED9FF3A8";
layerId = "175EC1D6-1DFB-48D4-8635-0B6059DF0927";
paths = (
{
closed = 1;
nodes = (
"450 0 LINE",
"450 784 LINE",
"70 784 LINE",
"70 0 LINE"
);
},
{
closed = 1;
nodes = (
"120 734 LINE",
"400 734 LINE",
"400 50 LINE",
"120 50 LINE"
);
},
{
closed = 1;
nodes = (
"235 948 LINE",
"235 998 LINE",
"185 998 LINE",
"185 948 LINE"
);
},
{
closed = 1;
nodes = (
"335 948 LINE",
"335 998 LINE",
"285 998 LINE",
"285 948 LINE"
);
}
);
width = 520;
},
{
associatedMasterId = "8A89AD82-2B0C-40F6-97CA-3AF9ED9FF3A8";
layerId = "2CD66A9C-B153-4A14-8403-503AAB71A842";
width = 600;
},
{
associatedMasterId = "8A89AD82-2B0C-40F6-97CA-3AF9ED9FF3A8";
layerId = "D5A259FC-BD70-44C4-B3C5-408723CBA272";
paths = (
{
closed = 1;
nodes = (
"450 0 LINE",
"450 784 LINE",
"70 784 LINE",
"70 0 LINE"
);
},
{
closed = 1;
nodes = (
"143 734 LINE",
"400 734 LINE",
"400 49 LINE",
"143 49 LINE"
);
},
{
closed = 1;
nodes = (
"223 948 LINE",
"223 998 LINE",
"150 998 LINE",
"150 948 LINE"
);
},
{
closed = 1;
nodes = (
"370 948 LINE",
"370 998 LINE",
"296 998 LINE",
"296 948 LINE"
);
}
);
width = 520;
},
{
layerId = "AE502CCD-A4D0-4FF0-92B5-8B29CDC657FD";
paths = (
{
closed = 1;
nodes = (
"450 0 LINE",
"450 784 LINE",
"70 784 LINE",
"70 0 LINE"
);
},
{
closed = 1;
nodes = (
"235 736 LINE",
"435 736 LINE",
"435 48 LINE",
"235 48 LINE"
);
},
{
closed = 1;
nodes = (
"218 950 LINE",
"218 998 LINE",
"135 998 LINE",
"135 950 LINE"
);
},
{
closed = 1;
nodes = (
"384 950 LINE",
"384 998 LINE",
"301 998 LINE",
"301 950 LINE"
);
}
);
width = 520;
},
{
associatedMasterId = "AE502CCD-A4D0-4FF0-92B5-8B29CDC657FD";
layerId = "9C64DCD8-F8A5-4A11-A127-AD8FA0F7562B";
width = 600;
},
{
associatedMasterId = "AE502CCD-A4D0-4FF0-92B5-8B29CDC657FD";
layerId = "66E8E224-0B51-4DE9-AD57-D32F125C505B";
width = 600;
},
{
associatedMasterId = "AE502CCD-A4D0-4FF0-92B5-8B29CDC657FD";
layerId = "85739744-DFB1-4125-A8E0-79F6463CD72A";
paths = (
{
closed = 1;
nodes = (
"450 0 LINE",
"450 784 LINE",
"70 784 LINE",
"70 0 LINE"
);
},
{
closed = 1;
nodes = (
"120 734 LINE",
"400 734 LINE",
"400 50 LINE",
"120 50 LINE"
);
},
{
closed = 1;
nodes = (
"235 948 LINE",
"235 998 LINE",
"185 998 LINE",
"185 948 LINE"
);
},
{
closed = 1;
nodes = (
"335 948 LINE",
"335 998 LINE",
"285 998 LINE",
"285 948 LINE"
);
}
);
width = 520;
},
{
associatedMasterId = "AE502CCD-A4D0-4FF0-92B5-8B29CDC657FD";
layerId = "952760C5-B878-42CE-8DE1-A38C8098751A";
width = 600;
},
{
associatedMasterId = "AE502CCD-A4D0-4FF0-92B5-8B29CDC657FD";
layerId = "D4D01842-7029-4E64-83B8-4050D46C2F31";
paths = (
{
closed = 1;
nodes = (
"450 0 LINE",
"450 784 LINE",
"70 784 LINE",
"70 0 LINE"
);
},
{
closed = 1;
nodes = (
"143 734 LINE",
"400 734 LINE",
"400 49 LINE",
"143 49 LINE"
);
},
{
closed = 1;
nodes = (
"223 948 LINE",
"223 998 LINE",
"150 998 LINE",
"150 948 LINE"
);
},
{
closed = 1;
nodes = (
"370 948 LINE",
"370 998 LINE",
"296 998 LINE",
"296 948 LINE"
);
}
);
width = 520;
},
{
associatedMasterId = "8A89AD82-2B0C-40F6-97CA-3AF9ED9FF3A8";
layerId = "909388F7-88C2-4DA9-AB96-B13A0726FCBB";
paths = (
{
closed = 1;
nodes = (
"450 0 LINE",
"450 784 LINE",
"70 784 LINE",
"70 0 LINE"
);
},
{
closed = 1;
nodes = (
"153 701 LINE",
"400 701 LINE",
"400 87 LINE",
"153 87 LINE"
);
},
{
closed = 1;
nodes = (
"218 915 LINE",
"218 998 LINE",
"135 998 LINE",
"135 915 LINE"
);
},
{
closed = 1;
nodes = (
"384 915 LINE",
"384 998 LINE",
"301 998 LINE",
"301 915 LINE"
);
}
);
width = 520;
},
{
associatedMasterId = "8A89AD82-2B0C-40F6-97CA-3AF9ED9FF3A8";
layerId = "F87D14C9-5903-481B-804C-33DC195335B4";
width = 600;
},
{
associatedMasterId = "8A89AD82-2B0C-40F6-97CA-3AF9ED9FF3A8";
layerId = "8FB96A4E-229E-4098-A78A-4F2B3CDE8744";
width = 600;
},
{
associatedMasterId = "8A89AD82-2B0C-40F6-97CA-3AF9ED9FF3A8";
layerId = "01CD86E2-79E2-4EB2-AFCC-7332063034AB";
paths = (
{
closed = 1;
nodes = (
"450 0 LINE",
"450 784 LINE",
"70 784 LINE",
"70 0 LINE"
);
},
{
closed = 1;
nodes = (
"235 696 LINE",
"395 696 LINE",
"395 92 LINE",
"235 92 LINE"
);
},
{
closed = 1;
nodes = (
"218 910 LINE",
"218 998 LINE",
"135 998 LINE",
"135 910 LINE"
);
},
{
closed = 1;
nodes = (
"384 910 LINE",
"384 998 LINE",
"301 998 LINE",
"301 910 LINE"
);
}
);
width = 520;
}
);
unicode = 00D6;
},
{
glyphname = Ograve;
lastChange = "2021-07-18 16:05:34 +0000";
layers = (
{
layerId = "8A89AD82-2B0C-40F6-97CA-3AF9ED9FF3A8";
paths = (
{
closed = 1;
nodes = (
"450 0 LINE",
"450 784 LINE",
"70 784 LINE",
"70 0 LINE"
);
},
{
closed = 1;
nodes = (
"153 736 LINE",
"435 736 LINE",
"435 48 LINE",
"153 48 LINE"
);
},
{
closed = 1;
nodes = (
"260 950 LINE",
"260 998 LINE",
"70 998 LINE",
"70 950 LINE"
);
}
);
width = 520;
},
{
layerId = "18468F94-9FC9-4171-B83A-16111EF84EF0";
paths = (
{
closed = 1;
nodes = (
"450 0 LINE",
"450 784 LINE",
"70 784 LINE",
"70 0 LINE"
);
},
{
closed = 1;
nodes = (
"155 734 LINE",
"400 734 LINE",
"400 50 LINE",
"155 50 LINE"
);
},
{
closed = 1;
nodes = (
"260 948 LINE",
"260 998 LINE",
"70 998 LINE",
"70 948 LINE"
);
}
);
width = 520;
},
{
associatedMasterId = "8A89AD82-2B0C-40F6-97CA-3AF9ED9FF3A8";
layerId = "0E3C4C3F-E86A-4E48-BA02-70EE699FECFC";
width = 600;
},
{
associatedMasterId = "8A89AD82-2B0C-40F6-97CA-3AF9ED9FF3A8";
layerId = "8877225F-9A4F-4FE9-9298-E786CE3C091C";
width = 600;
},
{
layerId = "5AF9D2C4-93A9-4350-9D2E-611822E0073C";
paths = (
{
closed = 1;
nodes = (
"450 0 LINE",
"450 784 LINE",
"70 784 LINE",
"70 0 LINE"
);
},
{
closed = 1;
nodes = (
"155 714 LINE",
"380 714 LINE",
"380 70 LINE",
"155 70 LINE"
);
},
{
closed = 1;
nodes = (
"260 928 LINE",
"260 998 LINE",
"70 998 LINE",
"70 928 LINE"
);
}
);
width = 520;
},
{
associatedMasterId = "8A89AD82-2B0C-40F6-97CA-3AF9ED9FF3A8";
layerId = "175EC1D6-1DFB-48D4-8635-0B6059DF0927";
paths = (
{
closed = 1;
nodes = (
"450 0 LINE",
"450 784 LINE",
"70 784 LINE",
"70 0 LINE"
);
},
{
closed = 1;
nodes = (
"120 734 LINE",
"400 734 LINE",
"400 50 LINE",
"120 50 LINE"
);
},
{
closed = 1;
nodes = (
"260 948 LINE",
"260 998 LINE",
"70 998 LINE",
"70 948 LINE"
);
}
);
width = 520;
},
{
associatedMasterId = "8A89AD82-2B0C-40F6-97CA-3AF9ED9FF3A8";
layerId = "2CD66A9C-B153-4A14-8403-503AAB71A842";
width = 600;
},
{
associatedMasterId = "8A89AD82-2B0C-40F6-97CA-3AF9ED9FF3A8";
layerId = "D5A259FC-BD70-44C4-B3C5-408723CBA272";
paths = (
{
closed = 1;
nodes = (
"450 0 LINE",
"450 784 LINE",
"70 784 LINE",
"70 0 LINE"
);
},
{
closed = 1;
nodes = (
"143 734 LINE",
"400 734 LINE",
"400 50 LINE",
"143 50 LINE"
);
},
{
closed = 1;
nodes = (
"260 948 LINE",
"260 998 LINE",
"70 998 LINE",
"70 948 LINE"
);
}
);
width = 520;
},
{
layerId = "AE502CCD-A4D0-4FF0-92B5-8B29CDC657FD";
paths = (
{
closed = 1;
nodes = (
"450 0 LINE",
"450 784 LINE",
"70 784 LINE",
"70 0 LINE"
);
},
{
closed = 1;
nodes = (
"235 736 LINE",
"435 736 LINE",
"435 48 LINE",
"235 48 LINE"
);
},
{
closed = 1;
nodes = (
"260 950 LINE",
"260 998 LINE",
"70 998 LINE",
"70 950 LINE"
);
}
);
width = 520;
},
{
associatedMasterId = "AE502CCD-A4D0-4FF0-92B5-8B29CDC657FD";
layerId = "DBDCBCBC-4CF7-44FD-9A09-AFB838606AD7";
width = 600;
},
{
associatedMasterId = "AE502CCD-A4D0-4FF0-92B5-8B29CDC657FD";
layerId = "EA3748C1-16A0-4EA0-B487-55EA4361F3D1";
width = 600;
},
{
associatedMasterId = "AE502CCD-A4D0-4FF0-92B5-8B29CDC657FD";
layerId = "A4C51E98-7F08-4024-8391-40DEFCB17FE4";
paths = (
{
closed = 1;
nodes = (
"450 0 LINE",
"450 784 LINE",
"70 784 LINE",
"70 0 LINE"
);
},
{
closed = 1;
nodes = (
"120 734 LINE",
"400 734 LINE",
"400 50 LINE",
"120 50 LINE"
);
},
{
closed = 1;
nodes = (
"260 948 LINE",
"260 998 LINE",
"70 998 LINE",
"70 948 LINE"
);
}
);
width = 520;
},
{
associatedMasterId = "AE502CCD-A4D0-4FF0-92B5-8B29CDC657FD";
layerId = "D0597410-AABF-49C0-AD42-14ED4A170DA9";
width = 600;
},
{
associatedMasterId = "AE502CCD-A4D0-4FF0-92B5-8B29CDC657FD";
layerId = "C9281388-5064-4110-85A1-674A0BC9299F";
paths = (
{
closed = 1;
nodes = (
"450 0 LINE",
"450 784 LINE",
"70 784 LINE",
"70 0 LINE"
);
},
{
closed = 1;
nodes = (
"143 734 LINE",
"400 734 LINE",
"400 50 LINE",
"143 50 LINE"
);
},
{
closed = 1;
nodes = (
"260 948 LINE",
"260 998 LINE",
"70 998 LINE",
"70 948 LINE"
);
}
);
width = 520;
},
{
associatedMasterId = "8A89AD82-2B0C-40F6-97CA-3AF9ED9FF3A8";
layerId = "909388F7-88C2-4DA9-AB96-B13A0726FCBB";
paths = (
{
closed = 1;
nodes = (
"118 1624 LINE",
"118 1159 LINE",
"70 1159 LINE",
"70 1624 LINE"
);
},
{
closed = 1;
nodes = (
"669 -549 LINE",
"523 824 LINE",
"-143 1333 LINE",
"4 -40 LINE"
);
},
{
closed = 1;
nodes = (
"76 541 LINE",
"470 501 LINE",
"613 -626 LINE",
"219 -587 LINE"
);
}
);
width = 520;
},
{
associatedMasterId = "8A89AD82-2B0C-40F6-97CA-3AF9ED9FF3A8";
layerId = "F87D14C9-5903-481B-804C-33DC195335B4";
width = 600;
},
{
associatedMasterId = "8A89AD82-2B0C-40F6-97CA-3AF9ED9FF3A8";
layerId = "8FB96A4E-229E-4098-A78A-4F2B3CDE8744";
width = 600;
},
{
associatedMasterId = "8A89AD82-2B0C-40F6-97CA-3AF9ED9FF3A8";
layerId = "01CD86E2-79E2-4EB2-AFCC-7332063034AB";
paths = (
{
closed = 1;
nodes = (
"450 0 LINE",
"450 784 LINE",
"70 784 LINE",
"70 0 LINE"
);
},
{
closed = 1;
nodes = (
"235 696 LINE",
"395 696 LINE",
"395 88 LINE",
"235 88 LINE"
);
},
{
closed = 1;
nodes = (
"260 910 LINE",
"260 998 LINE",
"70 998 LINE",
"70 910 LINE"
);
}
);
width = 520;
}
);
unicode = 00D2;
},
{
glyphname = Otilde;
lastChange = "2021-07-18 16:05:34 +0000";
layers = (
{
layerId = "8A89AD82-2B0C-40F6-97CA-3AF9ED9FF3A8";
paths = (
{
closed = 1;
nodes = (
"450 0 LINE",
"450 784 LINE",
"70 784 LINE",
"70 0 LINE"
);
},
{
closed = 1;
nodes = (
"153 736 LINE",
"435 736 LINE",
"435 48 LINE",
"153 48 LINE"
);
},
{
closed = 1;
nodes = (
"267 903 LINE",
"267 958 LINE",
"350 958 LINE",
"350 998 LINE",
"252 998 LINE",
"252 943 LINE",
"169 943 LINE",
"169 903 LINE"
);
}
);
width = 520;
},
{
layerId = "18468F94-9FC9-4171-B83A-16111EF84EF0";
paths = (
{
closed = 1;
nodes = (
"450 0 LINE",
"450 784 LINE",
"70 784 LINE",
"70 0 LINE"
);
},
{
closed = 1;
nodes = (
"155 734 LINE",
"400 734 LINE",
"400 50 LINE",
"155 50 LINE"
);
},
{
closed = 1;
nodes = (
"270 903 LINE",
"270 958 LINE",
"355 958 LINE",
"355 998 LINE",
"250 998 LINE",
"250 943 LINE",
"165 943 LINE",
"165 903 LINE"
);
}
);
width = 520;
},
{
associatedMasterId = "8A89AD82-2B0C-40F6-97CA-3AF9ED9FF3A8";
layerId = "0E3C4C3F-E86A-4E48-BA02-70EE699FECFC";
width = 600;
},
{
associatedMasterId = "8A89AD82-2B0C-40F6-97CA-3AF9ED9FF3A8";
layerId = "8877225F-9A4F-4FE9-9298-E786CE3C091C";
width = 600;
},
{
layerId = "5AF9D2C4-93A9-4350-9D2E-611822E0073C";
paths = (
{
closed = 1;
nodes = (
"450 0 LINE",
"450 784 LINE",
"70 784 LINE",
"70 0 LINE"
);
},
{
closed = 1;
nodes = (
"155 714 LINE",
"380 714 LINE",
"380 70 LINE",
"155 70 LINE"
);
},
{
closed = 1;
nodes = (
"277 878 LINE",
"277 938 LINE",
"362 938 LINE",
"362 998 LINE",
"242 998 LINE",
"242 938 LINE",
"157 938 LINE",
"157 878 LINE"
);
}
);
width = 520;
},
{
associatedMasterId = "8A89AD82-2B0C-40F6-97CA-3AF9ED9FF3A8";
layerId = "175EC1D6-1DFB-48D4-8635-0B6059DF0927";
paths = (
{
closed = 1;
nodes = (
"450 0 LINE",
"450 784 LINE",
"70 784 LINE",
"70 0 LINE"
);
},
{
closed = 1;
nodes = (
"120 734 LINE",
"400 734 LINE",
"400 50 LINE",
"120 50 LINE"
);
},
{
closed = 1;
nodes = (
"267 898 LINE",
"267 948 LINE",
"367 948 LINE",
"367 998 LINE",
"252 998 LINE",
"252 948 LINE",
"152 948 LINE",
"152 898 LINE"
);
}
);
width = 520;
},
{
associatedMasterId = "8A89AD82-2B0C-40F6-97CA-3AF9ED9FF3A8";
layerId = "2CD66A9C-B153-4A14-8403-503AAB71A842";
width = 600;
},
{
associatedMasterId = "8A89AD82-2B0C-40F6-97CA-3AF9ED9FF3A8";
layerId = "D5A259FC-BD70-44C4-B3C5-408723CBA272";
paths = (
{
closed = 1;
nodes = (
"450 0 LINE",
"450 784 LINE",
"70 784 LINE",
"70 0 LINE"
);
},
{
closed = 1;
nodes = (
"143 734 LINE",
"400 734 LINE",
"400 50 LINE",
"143 50 LINE"
);
},
{
closed = 1;
nodes = (
"267 901 LINE",
"267 955 LINE",
"357 955 LINE",
"357 998 LINE",
"252 998 LINE",
"252 945 LINE",
"162 945 LINE",
"162 901 LINE"
);
}
);
width = 520;
},
{
layerId = "AE502CCD-A4D0-4FF0-92B5-8B29CDC657FD";
paths = (
{
closed = 1;
nodes = (
"450 0 LINE",
"450 784 LINE",
"70 784 LINE",
"70 0 LINE"
);
},
{
closed = 1;
nodes = (
"235 736 LINE",
"435 736 LINE",
"435 48 LINE",
"235 48 LINE"
);
},
{
closed = 1;
nodes = (
"267 903 LINE",
"267 958 LINE",
"350 958 LINE",
"350 998 LINE",
"252 998 LINE",
"252 943 LINE",
"169 943 LINE",
"169 903 LINE"
);
}
);
width = 520;
},
{
associatedMasterId = "AE502CCD-A4D0-4FF0-92B5-8B29CDC657FD";
layerId = "375FEF57-D17A-4026-86B0-693D9948A9E3";
width = 600;
},
{
associatedMasterId = "AE502CCD-A4D0-4FF0-92B5-8B29CDC657FD";
layerId = "83FB8F72-E494-4D6A-9557-0A834AE4A8AE";
width = 600;
},
{
associatedMasterId = "AE502CCD-A4D0-4FF0-92B5-8B29CDC657FD";
layerId = "1AE770D4-4477-4AEA-A725-7893B509AF23";
paths = (
{
closed = 1;
nodes = (
"450 0 LINE",
"450 784 LINE",
"70 784 LINE",
"70 0 LINE"
);
},
{
closed = 1;
nodes = (
"120 734 LINE",
"400 734 LINE",
"400 50 LINE",
"120 50 LINE"
);
},
{
closed = 1;
nodes = (
"267 898 LINE",
"267 948 LINE",
"367 948 LINE",
"367 998 LINE",
"252 998 LINE",
"252 948 LINE",
"152 948 LINE",
"152 898 LINE"
);
}
);
width = 520;
},
{
associatedMasterId = "AE502CCD-A4D0-4FF0-92B5-8B29CDC657FD";
layerId = "55C06381-D321-4C41-8934-92AB7044806F";
width = 600;
},
{
associatedMasterId = "AE502CCD-A4D0-4FF0-92B5-8B29CDC657FD";
layerId = "06C82A63-11CA-48D6-90DE-79258084A969";
paths = (
{
closed = 1;
nodes = (
"450 0 LINE",
"450 784 LINE",
"70 784 LINE",
"70 0 LINE"
);
},
{
closed = 1;
nodes = (
"143 734 LINE",
"400 734 LINE",
"400 50 LINE",
"143 50 LINE"
);
},
{
closed = 1;
nodes = (
"267 901 LINE",
"267 955 LINE",
"357 955 LINE",
"357 998 LINE",
"252 998 LINE",
"252 945 LINE",
"162 945 LINE",
"162 901 LINE"
);
}
);
width = 520;
},
{
associatedMasterId = "8A89AD82-2B0C-40F6-97CA-3AF9ED9FF3A8";
layerId = "909388F7-88C2-4DA9-AB96-B13A0726FCBB";
paths = (
{
closed = 1;
nodes = (
"450 0 LINE",
"450 784 LINE",
"70 784 LINE",
"70 0 LINE"
);
},
{
closed = 1;
nodes = (
"153 701 LINE",
"400 701 LINE",
"400 83 LINE",
"153 83 LINE"
);
},
{
closed = 1;
nodes = (
"285 859 LINE",
"285 923 LINE",
"368 923 LINE",
"368 998 LINE",
"235 998 LINE",
"235 934 LINE",
"152 934 LINE",
"152 859 LINE"
);
}
);
width = 520;
},
{
associatedMasterId = "8A89AD82-2B0C-40F6-97CA-3AF9ED9FF3A8";
layerId = "F87D14C9-5903-481B-804C-33DC195335B4";
width = 600;
},
{
associatedMasterId = "8A89AD82-2B0C-40F6-97CA-3AF9ED9FF3A8";
layerId = "8FB96A4E-229E-4098-A78A-4F2B3CDE8744";
width = 600;
},
{
associatedMasterId = "8A89AD82-2B0C-40F6-97CA-3AF9ED9FF3A8";
layerId = "01CD86E2-79E2-4EB2-AFCC-7332063034AB";
paths = (
{
closed = 1;
nodes = (
"450 0 LINE",
"450 784 LINE",
"70 784 LINE",
"70 0 LINE"
);
},
{
closed = 1;
nodes = (
"235 696 LINE",
"395 696 LINE",
"395 88 LINE",
"235 88 LINE"
);
},
{
closed = 1;
nodes = (
"281 853 LINE",
"281 918 LINE",
"364 918 LINE",
"364 998 LINE",
"236 998 LINE",
"236 933 LINE",
"153 933 LINE",
"153 853 LINE"
);
}
);
width = 520;
}
);
unicode = 00D5;
},
{
glyphname = OE;
lastChange = "2021-07-18 16:05:34 +0000";
layers = (
{
layerId = "8A89AD82-2B0C-40F6-97CA-3AF9ED9FF3A8";
paths = (
{
closed = 1;
nodes = (
"765 0 LINE",
"765 48 LINE",
"518 48 LINE",
"518 522 LINE",
"765 522 LINE",
"765 570 LINE",
"518 570 LINE",
"518 736 LINE",
"765 736 LINE",
"765 784 LINE",
"70 784 LINE",
"70 0 LINE"
);
},
{
closed = 1;
nodes = (
"153 736 LINE",
"435 736 LINE",
"435 48 LINE",
"153 48 LINE"
);
}
);
width = 835;
},
{
layerId = "18468F94-9FC9-4171-B83A-16111EF84EF0";
paths = (
{
closed = 1;
nodes = (
"730 0 LINE",
"730 50 LINE",
"485 50 LINE",
"485 520 LINE",
"730 520 LINE",
"730 570 LINE",
"485 570 LINE",
"485 734 LINE",
"730 734 LINE",
"730 784 LINE",
"70 784 LINE",
"70 0 LINE"
);
},
{
closed = 1;
nodes = (
"155 734 LINE",
"400 734 LINE",
"400 50 LINE",
"155 50 LINE"
);
}
);
width = 800;
},
{
associatedMasterId = "8A89AD82-2B0C-40F6-97CA-3AF9ED9FF3A8";
layerId = "0E3C4C3F-E86A-4E48-BA02-70EE699FECFC";
width = 600;
},
{
associatedMasterId = "8A89AD82-2B0C-40F6-97CA-3AF9ED9FF3A8";
layerId = "8877225F-9A4F-4FE9-9298-E786CE3C091C";
width = 600;
},
{
layerId = "5AF9D2C4-93A9-4350-9D2E-611822E0073C";
paths = (
{
closed = 1;
nodes = (
"710 0 LINE",
"710 70 LINE",
"465 70 LINE",
"465 500 LINE",
"710 500 LINE",
"710 570 LINE",
"465 570 LINE",
"465 714 LINE",
"710 714 LINE",
"710 784 LINE",
"70 784 LINE",
"70 0 LINE"
);
},
{
closed = 1;
nodes = (
"155 714 LINE",
"380 714 LINE",
"380 70 LINE",
"155 70 LINE"
);
}
);
width = 780;
},
{
associatedMasterId = "8A89AD82-2B0C-40F6-97CA-3AF9ED9FF3A8";
layerId = "175EC1D6-1DFB-48D4-8635-0B6059DF0927";
paths = (
{
closed = 1;
nodes = (
"730 0 LINE",
"730 50 LINE",
"450 50 LINE",
"450 520 LINE",
"730 520 LINE",
"730 570 LINE",
"450 570 LINE",
"450 734 LINE",
"730 734 LINE",
"730 784 LINE",
"70 784 LINE",
"70 0 LINE"
);
},
{
closed = 1;
nodes = (
"120 734 LINE",
"400 734 LINE",
"400 50 LINE",
"120 50 LINE"
);
}
);
width = 800;
},
{
associatedMasterId = "8A89AD82-2B0C-40F6-97CA-3AF9ED9FF3A8";
layerId = "2CD66A9C-B153-4A14-8403-503AAB71A842";
width = 600;
},
{
associatedMasterId = "8A89AD82-2B0C-40F6-97CA-3AF9ED9FF3A8";
layerId = "D5A259FC-BD70-44C4-B3C5-408723CBA272";
paths = (
{
closed = 1;
nodes = (
"730 0 LINE",
"730 50 LINE",
"473 50 LINE",
"473 520 LINE",
"730 520 LINE",
"730 570 LINE",
"473 570 LINE",
"473 734 LINE",
"730 734 LINE",
"730 784 LINE",
"70 784 LINE",
"70 0 LINE"
);
},
{
closed = 1;
nodes = (
"143 734 LINE",
"400 734 LINE",
"400 50 LINE",
"143 50 LINE"
);
}
);
width = 800;
},
{
layerId = "AE502CCD-A4D0-4FF0-92B5-8B29CDC657FD";
paths = (
{
closed = 1;
nodes = (
"765 0 LINE",
"765 48 LINE",
"518 48 LINE",
"518 522 LINE",
"765 522 LINE",
"765 570 LINE",
"518 570 LINE",
"518 736 LINE",
"765 736 LINE",
"765 784 LINE",
"70 784 LINE",
"70 0 LINE"
);
},
{
closed = 1;
nodes = (
"235 736 LINE",
"435 736 LINE",
"435 48 LINE",
"235 48 LINE"
);
}
);
width = 835;
},
{
associatedMasterId = "AE502CCD-A4D0-4FF0-92B5-8B29CDC657FD";
layerId = "C4FB34FC-5FDF-4E8E-87F8-62AB811774F7";
width = 600;
},
{
associatedMasterId = "AE502CCD-A4D0-4FF0-92B5-8B29CDC657FD";
layerId = "EDEAE8CF-B129-41F7-BD5E-785065A2F066";
width = 600;
},
{
associatedMasterId = "AE502CCD-A4D0-4FF0-92B5-8B29CDC657FD";
layerId = "4CFA5CAB-3700-4368-97AE-D88F155BAB11";
paths = (
{
closed = 1;
nodes = (
"730 0 LINE",
"730 50 LINE",
"450 50 LINE",
"450 520 LINE",
"730 520 LINE",
"730 570 LINE",
"450 570 LINE",
"450 734 LINE",
"730 734 LINE",
"730 784 LINE",
"70 784 LINE",
"70 0 LINE"
);
},
{
closed = 1;
nodes = (
"120 734 LINE",
"400 734 LINE",
"400 50 LINE",
"120 50 LINE"
);
}
);
width = 800;
},
{
associatedMasterId = "AE502CCD-A4D0-4FF0-92B5-8B29CDC657FD";
layerId = "621D3B4E-6274-4D09-84CF-CD8D85E84D1A";
width = 600;
},
{
associatedMasterId = "AE502CCD-A4D0-4FF0-92B5-8B29CDC657FD";
layerId = "913D6059-6B95-402F-918B-FF0A040E91EA";
paths = (
{
closed = 1;
nodes = (
"730 0 LINE",
"730 50 LINE",
"473 50 LINE",
"473 520 LINE",
"730 520 LINE",
"730 570 LINE",
"473 570 LINE",
"473 734 LINE",
"730 734 LINE",
"730 784 LINE",
"70 784 LINE",
"70 0 LINE"
);
},
{
closed = 1;
nodes = (
"143 734 LINE",
"400 734 LINE",
"400 50 LINE",
"143 50 LINE"
);
}
);
width = 800;
},
{
associatedMasterId = "8A89AD82-2B0C-40F6-97CA-3AF9ED9FF3A8";
layerId = "909388F7-88C2-4DA9-AB96-B13A0726FCBB";
width = 1365;
},
{
associatedMasterId = "8A89AD82-2B0C-40F6-97CA-3AF9ED9FF3A8";
layerId = "F87D14C9-5903-481B-804C-33DC195335B4";
width = 600;
},
{
associatedMasterId = "8A89AD82-2B0C-40F6-97CA-3AF9ED9FF3A8";
layerId = "8FB96A4E-229E-4098-A78A-4F2B3CDE8744";
width = 600;
},
{
associatedMasterId = "8A89AD82-2B0C-40F6-97CA-3AF9ED9FF3A8";
layerId = "01CD86E2-79E2-4EB2-AFCC-7332063034AB";
paths = (
{
closed = 1;
nodes = (
"725 0 LINE",
"725 88 LINE",
"478 88 LINE",
"478 482 LINE",
"725 482 LINE",
"725 570 LINE",
"478 570 LINE",
"478 696 LINE",
"725 696 LINE",
"725 784 LINE",
"70 784 LINE",
"70 0 LINE"
);
},
{
closed = 1;
nodes = (
"235 696 LINE",
"395 696 LINE",
"395 88 LINE",
"235 88 LINE"
);
}
);
width = 795;
}
);
unicode = 0152;
},
{
glyphname = P;
lastChange = "2021-07-18 16:05:34 +0000";
layers = (
{
layerId = "8A89AD82-2B0C-40F6-97CA-3AF9ED9FF3A8";
paths = (
{
closed = 1;
nodes = (
"153 0 LINE",
"153 522 LINE",
"400 522 LINE",
"400 784 LINE",
"70 784 LINE",
"70 0 LINE"
);
},
{
closed = 1;
nodes = (
"153 736 LINE",
"385 736 LINE",
"385 570 LINE",
"153 570 LINE"
);
}
);
width = 430;
},
{
layerId = "18468F94-9FC9-4171-B83A-16111EF84EF0";
paths = (
{
closed = 1;
nodes = (
"155 0 LINE",
"155 520 LINE",
"400 520 LINE",
"400 784 LINE",
"70 784 LINE",
"70 0 LINE"
);
},
{
closed = 1;
nodes = (
"155 734 LINE",
"350 734 LINE",
"350 570 LINE",
"155 570 LINE"
);
}
);
width = 430;
},
{
associatedMasterId = "8A89AD82-2B0C-40F6-97CA-3AF9ED9FF3A8";
layerId = "0E3C4C3F-E86A-4E48-BA02-70EE699FECFC";
width = 600;
},
{
associatedMasterId = "8A89AD82-2B0C-40F6-97CA-3AF9ED9FF3A8";
layerId = "8877225F-9A4F-4FE9-9298-E786CE3C091C";
width = 600;
},
{
layerId = "5AF9D2C4-93A9-4350-9D2E-611822E0073C";
paths = (
{
closed = 1;
nodes = (
"155 0 LINE",
"155 500 LINE",
"400 500 LINE",
"400 784 LINE",
"70 784 LINE",
"70 0 LINE"
);
},
{
closed = 1;
nodes = (
"155 714 LINE",
"330 714 LINE",
"330 570 LINE",
"155 570 LINE"
);
}
);
width = 430;
},
{
associatedMasterId = "8A89AD82-2B0C-40F6-97CA-3AF9ED9FF3A8";
layerId = "175EC1D6-1DFB-48D4-8635-0B6059DF0927";
paths = (
{
closed = 1;
nodes = (
"120 0 LINE",
"120 520 LINE",
"400 520 LINE",
"400 784 LINE",
"70 784 LINE",
"70 0 LINE"
);
},
{
closed = 1;
nodes = (
"120 734 LINE",
"350 734 LINE",
"350 570 LINE",
"120 570 LINE"
);
}
);
width = 430;
},
{
associatedMasterId = "8A89AD82-2B0C-40F6-97CA-3AF9ED9FF3A8";
layerId = "2CD66A9C-B153-4A14-8403-503AAB71A842";
width = 600;
},
{
associatedMasterId = "8A89AD82-2B0C-40F6-97CA-3AF9ED9FF3A8";
layerId = "D5A259FC-BD70-44C4-B3C5-408723CBA272";
paths = (
{
closed = 1;
nodes = (
"143 0 LINE",
"143 520 LINE",
"400 520 LINE",
"400 784 LINE",
"70 784 LINE",
"70 0 LINE"
);
},
{
closed = 1;
nodes = (
"143 734 LINE",
"350 734 LINE",
"350 570 LINE",
"143 570 LINE"
);
}
);
width = 430;
},
{
layerId = "AE502CCD-A4D0-4FF0-92B5-8B29CDC657FD";
paths = (
{
closed = 1;
nodes = (
"235 0 LINE",
"235 522 LINE",
"400 522 LINE",
"400 784 LINE",
"70 784 LINE",
"70 0 LINE"
);
},
{
closed = 1;
nodes = (
"235 736 LINE",
"385 736 LINE",
"385 570 LINE",
"235 570 LINE"
);
}
);
width = 430;
},
{
associatedMasterId = "AE502CCD-A4D0-4FF0-92B5-8B29CDC657FD";
layerId = "F8E94DA8-FBF3-4F49-95C3-8EA05DD3C067";
width = 600;
},
{
associatedMasterId = "AE502CCD-A4D0-4FF0-92B5-8B29CDC657FD";
layerId = "D51FC3B7-6644-475A-94B4-E124CFF236F1";
width = 600;
},
{
associatedMasterId = "AE502CCD-A4D0-4FF0-92B5-8B29CDC657FD";
layerId = "039F9D39-A06A-41A5-9B76-A42496E98CCF";
paths = (
{
closed = 1;
nodes = (
"120 0 LINE",
"120 520 LINE",
"400 520 LINE",
"400 784 LINE",
"70 784 LINE",
"70 0 LINE"
);
},
{
closed = 1;
nodes = (
"120 734 LINE",
"350 734 LINE",
"350 570 LINE",
"120 570 LINE"
);
}
);
width = 430;
},
{
associatedMasterId = "AE502CCD-A4D0-4FF0-92B5-8B29CDC657FD";
layerId = "634F6ABC-3463-4977-94D0-4D326842273A";
width = 600;
},
{
associatedMasterId = "AE502CCD-A4D0-4FF0-92B5-8B29CDC657FD";
layerId = "816418FD-59B1-4288-BA59-9272ACBC472D";
paths = (
{
closed = 1;
nodes = (
"143 0 LINE",
"143 520 LINE",
"400 520 LINE",
"400 784 LINE",
"70 784 LINE",
"70 0 LINE"
);
},
{
closed = 1;
nodes = (
"143 734 LINE",
"350 734 LINE",
"350 570 LINE",
"143 570 LINE"
);
}
);
width = 430;
},
{
associatedMasterId = "8A89AD82-2B0C-40F6-97CA-3AF9ED9FF3A8";
layerId = "909388F7-88C2-4DA9-AB96-B13A0726FCBB";
paths = (
{
closed = 1;
nodes = (
"153 0 LINE",
"153 487 LINE",
"400 487 LINE",
"400 784 LINE",
"70 784 LINE",
"70 0 LINE"
);
},
{
closed = 1;
nodes = (
"153 701 LINE",
"350 701 LINE",
"350 570 LINE",
"153 570 LINE"
);
}
);
width = 430;
},
{
associatedMasterId = "8A89AD82-2B0C-40F6-97CA-3AF9ED9FF3A8";
layerId = "F87D14C9-5903-481B-804C-33DC195335B4";
width = 600;
},
{
associatedMasterId = "8A89AD82-2B0C-40F6-97CA-3AF9ED9FF3A8";
layerId = "8FB96A4E-229E-4098-A78A-4F2B3CDE8744";
width = 600;
},
{
associatedMasterId = "8A89AD82-2B0C-40F6-97CA-3AF9ED9FF3A8";
layerId = "01CD86E2-79E2-4EB2-AFCC-7332063034AB";
paths = (
{
closed = 1;
nodes = (
"235 0 LINE",
"235 482 LINE",
"400 482 LINE",
"400 784 LINE",
"70 784 LINE",
"70 0 LINE"
);
},
{
closed = 1;
nodes = (
"235 696 LINE",
"345 696 LINE",
"345 570 LINE",
"235 570 LINE"
);
}
);
width = 430;
}
);
unicode = 0050;
},
{
glyphname = Q;
lastChange = "2021-07-18 16:05:34 +0000";
layers = (
{
layerId = "8A89AD82-2B0C-40F6-97CA-3AF9ED9FF3A8";
paths = (
{
closed = 1;
nodes = (
"450 0 LINE",
"450 784 LINE",
"70 784 LINE",
"70 0 LINE"
);
},
{
closed = 1;
nodes = (
"153 736 LINE",
"435 736 LINE",
"435 48 LINE",
"153 48 LINE"
);
},
{
closed = 1;
nodes = (
"302 -145 LINE",
"302 0 LINE",
"219 0 LINE",
"219 -145 LINE"
);
}
);
width = 520;
},
{
layerId = "18468F94-9FC9-4171-B83A-16111EF84EF0";
paths = (
{
closed = 1;
nodes = (
"450 0 LINE",
"450 784 LINE",
"70 784 LINE",
"70 0 LINE"
);
},
{
closed = 1;
nodes = (
"155 734 LINE",
"400 734 LINE",
"400 50 LINE",
"155 50 LINE"
);
},
{
closed = 1;
nodes = (
"303 -145 LINE",
"303 0 LINE",
"218 0 LINE",
"218 -145 LINE"
);
}
);
width = 520;
},
{
associatedMasterId = "8A89AD82-2B0C-40F6-97CA-3AF9ED9FF3A8";
layerId = "0E3C4C3F-E86A-4E48-BA02-70EE699FECFC";
width = 600;
},
{
associatedMasterId = "8A89AD82-2B0C-40F6-97CA-3AF9ED9FF3A8";
layerId = "8877225F-9A4F-4FE9-9298-E786CE3C091C";
width = 600;
},
{
layerId = "5AF9D2C4-93A9-4350-9D2E-611822E0073C";
paths = (
{
closed = 1;
nodes = (
"450 0 LINE",
"450 784 LINE",
"70 784 LINE",
"70 0 LINE"
);
},
{
closed = 1;
nodes = (
"155 714 LINE",
"380 714 LINE",
"380 70 LINE",
"155 70 LINE"
);
},
{
closed = 1;
nodes = (
"303 -140 LINE",
"303 0 LINE",
"218 0 LINE",
"218 -140 LINE"
);
}
);
width = 520;
},
{
associatedMasterId = "8A89AD82-2B0C-40F6-97CA-3AF9ED9FF3A8";
layerId = "175EC1D6-1DFB-48D4-8635-0B6059DF0927";
paths = (
{
closed = 1;
nodes = (
"450 -140 LINE",
"450 784 LINE",
"70 784 LINE",
"70 0 LINE",
"400 0 LINE",
"400 -140 LINE"
);
},
{
closed = 1;
nodes = (
"120 734 LINE",
"400 734 LINE",
"400 50 LINE",
"120 50 LINE"
);
}
);
width = 520;
},
{
associatedMasterId = "8A89AD82-2B0C-40F6-97CA-3AF9ED9FF3A8";
layerId = "2CD66A9C-B153-4A14-8403-503AAB71A842";
width = 600;
},
{
associatedMasterId = "8A89AD82-2B0C-40F6-97CA-3AF9ED9FF3A8";
layerId = "D5A259FC-BD70-44C4-B3C5-408723CBA272";
paths = (
{
closed = 1;
nodes = (
"450 -143 LINE",
"450 784 LINE",
"70 784 LINE",
"70 0 LINE",
"377 0 LINE",
"377 -143 LINE"
);
},
{
closed = 1;
nodes = (
"120 734 LINE",
"377 734 LINE",
"377 50 LINE",
"120 50 LINE"
);
}
);
width = 520;
},
{
layerId = "AE502CCD-A4D0-4FF0-92B5-8B29CDC657FD";
paths = (
{
closed = 1;
nodes = (
"450 0 LINE",
"450 784 LINE",
"70 784 LINE",
"70 0 LINE"
);
},
{
closed = 1;
nodes = (
"235 736 LINE",
"435 736 LINE",
"435 48 LINE",
"235 48 LINE"
);
},
{
closed = 1;
nodes = (
"326 -130 LINE",
"326 0 LINE",
"196 0 LINE",
"196 -130 LINE"
);
}
);
width = 520;
},
{
associatedMasterId = "AE502CCD-A4D0-4FF0-92B5-8B29CDC657FD";
layerId = "1C93DEA8-1A44-49BB-998B-6BBB39D03276";
width = 600;
},
{
associatedMasterId = "AE502CCD-A4D0-4FF0-92B5-8B29CDC657FD";
layerId = "D57EBF06-6541-4161-B79D-392492878B54";
width = 600;
},
{
associatedMasterId = "AE502CCD-A4D0-4FF0-92B5-8B29CDC657FD";
layerId = "E9924571-8661-4C67-8E3F-8838CAD757CD";
paths = (
{
closed = 1;
nodes = (
"450 -140 LINE",
"450 784 LINE",
"70 784 LINE",
"70 0 LINE",
"400 0 LINE",
"400 -140 LINE"
);
},
{
closed = 1;
nodes = (
"120 734 LINE",
"400 734 LINE",
"400 50 LINE",
"120 50 LINE"
);
}
);
width = 520;
},
{
associatedMasterId = "AE502CCD-A4D0-4FF0-92B5-8B29CDC657FD";
layerId = "6BF53D0F-02A3-42BA-98C0-477E4324B2F4";
width = 600;
},
{
associatedMasterId = "AE502CCD-A4D0-4FF0-92B5-8B29CDC657FD";
layerId = "F4B5165D-3893-4713-805F-194994DAA896";
paths = (
{
closed = 1;
nodes = (
"450 -143 LINE",
"450 784 LINE",
"70 784 LINE",
"70 0 LINE",
"377 0 LINE",
"377 -143 LINE"
);
},
{
closed = 1;
nodes = (
"120 734 LINE",
"377 734 LINE",
"377 50 LINE",
"120 50 LINE"
);
}
);
width = 520;
},
{
associatedMasterId = "8A89AD82-2B0C-40F6-97CA-3AF9ED9FF3A8";
layerId = "909388F7-88C2-4DA9-AB96-B13A0726FCBB";
paths = (
{
closed = 1;
nodes = (
"450 -136 LINE",
"450 784 LINE",
"70 784 LINE",
"70 0 LINE",
"367 0 LINE",
"367 -136 LINE"
);
},
{
closed = 1;
nodes = (
"120 701 LINE",
"367 701 LINE",
"367 83 LINE",
"120 83 LINE"
);
}
);
width = 520;
},
{
associatedMasterId = "8A89AD82-2B0C-40F6-97CA-3AF9ED9FF3A8";
layerId = "F87D14C9-5903-481B-804C-33DC195335B4";
width = 600;
},
{
associatedMasterId = "8A89AD82-2B0C-40F6-97CA-3AF9ED9FF3A8";
layerId = "8FB96A4E-229E-4098-A78A-4F2B3CDE8744";
width = 600;
},
{
associatedMasterId = "8A89AD82-2B0C-40F6-97CA-3AF9ED9FF3A8";
layerId = "01CD86E2-79E2-4EB2-AFCC-7332063034AB";
paths = (
{
closed = 1;
nodes = (
"450 0 LINE",
"450 784 LINE",
"70 784 LINE",
"70 0 LINE"
);
},
{
closed = 1;
nodes = (
"235 696 LINE",
"395 696 LINE",
"395 88 LINE",
"235 88 LINE"
);
},
{
closed = 1;
nodes = (
"326 -120 LINE",
"326 0 LINE",
"196 0 LINE",
"196 -120 LINE"
);
}
);
width = 520;
}
);
unicode = 0051;
},
{
glyphname = R;
lastChange = "2021-07-18 16:05:34 +0000";
layers = (
{
layerId = "8A89AD82-2B0C-40F6-97CA-3AF9ED9FF3A8";
paths = (
{
closed = 1;
nodes = (
"153 0 LINE",
"153 522 LINE",
"400 522 LINE",
"400 0 LINE",
"450 0 LINE",
"450 570 LINE",
"380 570 LINE",
"380 784 LINE",
"70 784 LINE",
"70 0 LINE"
);
},
{
closed = 1;
nodes = (
"153 736 LINE",
"365 736 LINE",
"365 570 LINE",
"153 570 LINE"
);
}
);
width = 520;
},
{
layerId = "18468F94-9FC9-4171-B83A-16111EF84EF0";
paths = (
{
closed = 1;
nodes = (
"155 0 LINE",
"155 520 LINE",
"400 520 LINE",
"400 0 LINE",
"450 0 LINE",
"450 570 LINE",
"380 570 LINE",
"380 784 LINE",
"70 784 LINE",
"70 0 LINE"
);
},
{
closed = 1;
nodes = (
"155 734 LINE",
"330 734 LINE",
"330 570 LINE",
"155 570 LINE"
);
}
);
width = 520;
},
{
associatedMasterId = "8A89AD82-2B0C-40F6-97CA-3AF9ED9FF3A8";
layerId = "0E3C4C3F-E86A-4E48-BA02-70EE699FECFC";
width = 600;
},
{
associatedMasterId = "8A89AD82-2B0C-40F6-97CA-3AF9ED9FF3A8";
layerId = "8877225F-9A4F-4FE9-9298-E786CE3C091C";
width = 600;
},
{
layerId = "5AF9D2C4-93A9-4350-9D2E-611822E0073C";
paths = (
{
closed = 1;
nodes = (
"155 0 LINE",
"155 500 LINE",
"380 500 LINE",
"380 0 LINE",
"450 0 LINE",
"450 570 LINE",
"380 570 LINE",
"380 784 LINE",
"70 784 LINE",
"70 0 LINE"
);
},
{
closed = 1;
nodes = (
"155 714 LINE",
"310 714 LINE",
"310 570 LINE",
"155 570 LINE"
);
}
);
width = 520;
},
{
associatedMasterId = "8A89AD82-2B0C-40F6-97CA-3AF9ED9FF3A8";
layerId = "175EC1D6-1DFB-48D4-8635-0B6059DF0927";
paths = (
{
closed = 1;
nodes = (
"120 0 LINE",
"120 520 LINE",
"400 520 LINE",
"400 0 LINE",
"450 0 LINE",
"450 570 LINE",
"350 570 LINE",
"350 784 LINE",
"70 784 LINE",
"70 0 LINE"
);
},
{
closed = 1;
nodes = (
"120 734 LINE",
"300 734 LINE",
"300 570 LINE",
"120 570 LINE"
);
}
);
width = 520;
},
{
associatedMasterId = "8A89AD82-2B0C-40F6-97CA-3AF9ED9FF3A8";
layerId = "2CD66A9C-B153-4A14-8403-503AAB71A842";
width = 600;
},
{
associatedMasterId = "8A89AD82-2B0C-40F6-97CA-3AF9ED9FF3A8";
layerId = "D5A259FC-BD70-44C4-B3C5-408723CBA272";
paths = (
{
closed = 1;
nodes = (
"143 0 LINE",
"143 520 LINE",
"400 520 LINE",
"400 0 LINE",
"450 0 LINE",
"450 570 LINE",
"383 570 LINE",
"383 784 LINE",
"70 784 LINE",
"70 0 LINE"
);
},
{
closed = 1;
nodes = (
"143 734 LINE",
"340 734 LINE",
"340 570 LINE",
"143 570 LINE"
);
}
);
width = 520;
},
{
layerId = "AE502CCD-A4D0-4FF0-92B5-8B29CDC657FD";
paths = (
{
closed = 1;
nodes = (
"235 0 LINE",
"235 522 LINE",
"400 522 LINE",
"400 0 LINE",
"450 0 LINE",
"450 570 LINE",
"380 570 LINE",
"380 784 LINE",
"70 784 LINE",
"70 0 LINE"
);
},
{
closed = 1;
nodes = (
"235 736 LINE",
"365 736 LINE",
"365 570 LINE",
"235 570 LINE"
);
}
);
width = 520;
},
{
associatedMasterId = "AE502CCD-A4D0-4FF0-92B5-8B29CDC657FD";
layerId = "F352397E-8C6A-4F0F-A379-81EE5630818C";
width = 600;
},
{
associatedMasterId = "AE502CCD-A4D0-4FF0-92B5-8B29CDC657FD";
layerId = "357E98C2-7762-4D94-A23F-20085DB7898B";
width = 600;
},
{
associatedMasterId = "AE502CCD-A4D0-4FF0-92B5-8B29CDC657FD";
layerId = "62BD1DA5-6A16-4F82-A49C-21EA2DBC7CE0";
paths = (
{
closed = 1;
nodes = (
"120 0 LINE",
"120 520 LINE",
"400 520 LINE",
"400 0 LINE",
"450 0 LINE",
"450 570 LINE",
"350 570 LINE",
"350 784 LINE",
"70 784 LINE",
"70 0 LINE"
);
},
{
closed = 1;
nodes = (
"120 734 LINE",
"300 734 LINE",
"300 570 LINE",
"120 570 LINE"
);
}
);
width = 520;
},
{
associatedMasterId = "AE502CCD-A4D0-4FF0-92B5-8B29CDC657FD";
layerId = "E0190128-D35E-4B29-9F3A-0320571F9C88";
width = 600;
},
{
associatedMasterId = "AE502CCD-A4D0-4FF0-92B5-8B29CDC657FD";
layerId = "27E1B133-5538-4334-8975-2B6F1EBF72B2";
paths = (
{
closed = 1;
nodes = (
"143 0 LINE",
"143 520 LINE",
"400 520 LINE",
"400 0 LINE",
"450 0 LINE",
"450 570 LINE",
"383 570 LINE",
"383 784 LINE",
"70 784 LINE",
"70 0 LINE"
);
},
{
closed = 1;
nodes = (
"143 734 LINE",
"340 734 LINE",
"340 570 LINE",
"143 570 LINE"
);
}
);
width = 520;
},
{
associatedMasterId = "8A89AD82-2B0C-40F6-97CA-3AF9ED9FF3A8";
layerId = "909388F7-88C2-4DA9-AB96-B13A0726FCBB";
paths = (
{
closed = 1;
nodes = (
"153 0 LINE",
"153 487 LINE",
"365 487 LINE",
"365 0 LINE",
"450 0 LINE",
"450 570 LINE",
"365 570 LINE",
"365 784 LINE",
"70 784 LINE",
"70 0 LINE"
);
},
{
closed = 1;
nodes = (
"153 701 LINE",
"298 701 LINE",
"298 570 LINE",
"153 570 LINE"
);
}
);
width = 520;
},
{
associatedMasterId = "8A89AD82-2B0C-40F6-97CA-3AF9ED9FF3A8";
layerId = "F87D14C9-5903-481B-804C-33DC195335B4";
width = 600;
},
{
associatedMasterId = "8A89AD82-2B0C-40F6-97CA-3AF9ED9FF3A8";
layerId = "8FB96A4E-229E-4098-A78A-4F2B3CDE8744";
width = 600;
},
{
associatedMasterId = "8A89AD82-2B0C-40F6-97CA-3AF9ED9FF3A8";
layerId = "01CD86E2-79E2-4EB2-AFCC-7332063034AB";
paths = (
{
closed = 1;
nodes = (
"235 0 LINE",
"235 482 LINE",
"360 482 LINE",
"360 0 LINE",
"450 0 LINE",
"450 570 LINE",
"380 570 LINE",
"380 784 LINE",
"70 784 LINE",
"70 0 LINE"
);
},
{
closed = 1;
nodes = (
"235 696 LINE",
"325 696 LINE",
"325 570 LINE",
"235 570 LINE"
);
}
);
width = 520;
}
);
unicode = 0052;
},
{
glyphname = S;
lastChange = "2021-07-18 16:05:34 +0000";
layers = (
{
layerId = "8A89AD82-2B0C-40F6-97CA-3AF9ED9FF3A8";
paths = (
{
closed = 1;
nodes = (
"400 0 LINE",
"400 570 LINE",
"153 570 LINE",
"153 736 LINE",
"400 736 LINE",
"400 784 LINE",
"70 784 LINE",
"70 522 LINE",
"385 522 LINE",
"385 48 LINE",
"70 48 LINE",
"70 0 LINE"
);
}
);
width = 470;
},
{
layerId = "18468F94-9FC9-4171-B83A-16111EF84EF0";
paths = (
{
closed = 1;
nodes = (
"400 0 LINE",
"400 570 LINE",
"153 570 LINE",
"153 734 LINE",
"400 734 LINE",
"400 784 LINE",
"70 784 LINE",
"70 520 LINE",
"350 520 LINE",
"350 50 LINE",
"70 50 LINE",
"70 0 LINE"
);
}
);
width = 470;
},
{
associatedMasterId = "8A89AD82-2B0C-40F6-97CA-3AF9ED9FF3A8";
layerId = "0E3C4C3F-E86A-4E48-BA02-70EE699FECFC";
width = 600;
},
{
associatedMasterId = "8A89AD82-2B0C-40F6-97CA-3AF9ED9FF3A8";
layerId = "8877225F-9A4F-4FE9-9298-E786CE3C091C";
width = 600;
},
{
layerId = "5AF9D2C4-93A9-4350-9D2E-611822E0073C";
paths = (
{
closed = 1;
nodes = (
"400 0 LINE",
"400 570 LINE",
"155 570 LINE",
"155 714 LINE",
"400 714 LINE",
"400 784 LINE",
"70 784 LINE",
"70 500 LINE",
"330 500 LINE",
"330 70 LINE",
"70 70 LINE",
"70 0 LINE"
);
}
);
width = 470;
},
{
associatedMasterId = "8A89AD82-2B0C-40F6-97CA-3AF9ED9FF3A8";
layerId = "175EC1D6-1DFB-48D4-8635-0B6059DF0927";
paths = (
{
closed = 1;
nodes = (
"400 0 LINE",
"400 570 LINE",
"120 570 LINE",
"120 734 LINE",
"400 734 LINE",
"400 784 LINE",
"70 784 LINE",
"70 520 LINE",
"350 520 LINE",
"350 50 LINE",
"70 50 LINE",
"70 0 LINE"
);
}
);
width = 470;
},
{
associatedMasterId = "8A89AD82-2B0C-40F6-97CA-3AF9ED9FF3A8";
layerId = "2CD66A9C-B153-4A14-8403-503AAB71A842";
width = 600;
},
{
associatedMasterId = "8A89AD82-2B0C-40F6-97CA-3AF9ED9FF3A8";
layerId = "D5A259FC-BD70-44C4-B3C5-408723CBA272";
paths = (
{
closed = 1;
nodes = (
"400 0 LINE",
"400 570 LINE",
"142 570 LINE",
"142 734 LINE",
"400 734 LINE",
"400 784 LINE",
"70 784 LINE",
"70 520 LINE",
"350 520 LINE",
"350 50 LINE",
"70 50 LINE",
"70 0 LINE"
);
}
);
width = 470;
},
{
layerId = "AE502CCD-A4D0-4FF0-92B5-8B29CDC657FD";
paths = (
{
closed = 1;
nodes = (
"400 0 LINE",
"400 570 LINE",
"235 570 LINE",
"235 736 LINE",
"400 736 LINE",
"400 784 LINE",
"70 784 LINE",
"70 522 LINE",
"385 522 LINE",
"385 48 LINE",
"70 48 LINE",
"70 0 LINE"
);
}
);
width = 470;
},
{
associatedMasterId = "AE502CCD-A4D0-4FF0-92B5-8B29CDC657FD";
layerId = "C39EE21C-FED7-4EEE-9F0B-4870C93D0ADF";
width = 600;
},
{
associatedMasterId = "AE502CCD-A4D0-4FF0-92B5-8B29CDC657FD";
layerId = "10606D50-F61E-4253-8F2D-ED8099DDAFDC";
width = 600;
},
{
associatedMasterId = "AE502CCD-A4D0-4FF0-92B5-8B29CDC657FD";
layerId = "25194D61-4BCB-4DC5-AB66-8E2E692F5D38";
paths = (
{
closed = 1;
nodes = (
"400 0 LINE",
"400 570 LINE",
"120 570 LINE",
"120 734 LINE",
"400 734 LINE",
"400 784 LINE",
"70 784 LINE",
"70 520 LINE",
"350 520 LINE",
"350 50 LINE",
"70 50 LINE",
"70 0 LINE"
);
}
);
width = 470;
},
{
associatedMasterId = "AE502CCD-A4D0-4FF0-92B5-8B29CDC657FD";
layerId = "527ECAC9-F400-4909-9BD4-BEFEA1039074";
width = 600;
},
{
associatedMasterId = "AE502CCD-A4D0-4FF0-92B5-8B29CDC657FD";
layerId = "2883B848-BBC7-4886-A8C6-1AC7029D28DA";
paths = (
{
closed = 1;
nodes = (
"400 0 LINE",
"400 570 LINE",
"142 570 LINE",
"142 734 LINE",
"400 734 LINE",
"400 784 LINE",
"70 784 LINE",
"70 520 LINE",
"350 520 LINE",
"350 50 LINE",
"70 50 LINE",
"70 0 LINE"
);
}
);
width = 470;
},
{
associatedMasterId = "8A89AD82-2B0C-40F6-97CA-3AF9ED9FF3A8";
layerId = "909388F7-88C2-4DA9-AB96-B13A0726FCBB";
paths = (
{
closed = 1;
nodes = (
"400 0 LINE",
"400 570 LINE",
"157 570 LINE",
"157 701 LINE",
"400 701 LINE",
"400 784 LINE",
"70 784 LINE",
"70 487 LINE",
"350 487 LINE",
"350 83 LINE",
"70 83 LINE",
"70 0 LINE"
);
}
);
width = 470;
},
{
associatedMasterId = "8A89AD82-2B0C-40F6-97CA-3AF9ED9FF3A8";
layerId = "F87D14C9-5903-481B-804C-33DC195335B4";
width = 600;
},
{
associatedMasterId = "8A89AD82-2B0C-40F6-97CA-3AF9ED9FF3A8";
layerId = "8FB96A4E-229E-4098-A78A-4F2B3CDE8744";
width = 600;
},
{
associatedMasterId = "8A89AD82-2B0C-40F6-97CA-3AF9ED9FF3A8";
layerId = "01CD86E2-79E2-4EB2-AFCC-7332063034AB";
paths = (
{
closed = 1;
nodes = (
"400 0 LINE",
"400 570 LINE",
"239 570 LINE",
"239 696 LINE",
"400 696 LINE",
"400 784 LINE",
"70 784 LINE",
"70 482 LINE",
"345 482 LINE",
"345 88 LINE",
"70 88 LINE",
"70 0 LINE"
);
}
);
width = 470;
}
);
unicode = 0053;
},
{
glyphname = T;
lastChange = "2021-07-18 16:05:34 +0000";
layers = (
{
layerId = "8A89AD82-2B0C-40F6-97CA-3AF9ED9FF3A8";
paths = (
{
closed = 1;
nodes = (
"237 0 LINE",
"237 736 LINE",
"361 736 LINE",
"361 784 LINE",
"30 784 LINE",
"30 736 LINE",
"154 736 LINE",
"154 0 LINE"
);
}
);
width = 391;
},
{
layerId = "18468F94-9FC9-4171-B83A-16111EF84EF0";
paths = (
{
closed = 1;
nodes = (
"238 0 LINE",
"238 734 LINE",
"361 734 LINE",
"361 784 LINE",
"30 784 LINE",
"30 734 LINE",
"153 734 LINE",
"153 0 LINE"
);
}
);
width = 391;
},
{
associatedMasterId = "8A89AD82-2B0C-40F6-97CA-3AF9ED9FF3A8";
layerId = "0E3C4C3F-E86A-4E48-BA02-70EE699FECFC";
width = 600;
},
{
associatedMasterId = "8A89AD82-2B0C-40F6-97CA-3AF9ED9FF3A8";
layerId = "8877225F-9A4F-4FE9-9298-E786CE3C091C";
width = 600;
},
{
layerId = "5AF9D2C4-93A9-4350-9D2E-611822E0073C";
paths = (
{
closed = 1;
nodes = (
"238 0 LINE",
"238 714 LINE",
"361 714 LINE",
"361 784 LINE",
"30 784 LINE",
"30 714 LINE",
"153 714 LINE",
"153 0 LINE"
);
}
);
width = 391;
},
{
associatedMasterId = "8A89AD82-2B0C-40F6-97CA-3AF9ED9FF3A8";
layerId = "175EC1D6-1DFB-48D4-8635-0B6059DF0927";
paths = (
{
closed = 1;
nodes = (
"220 0 LINE",
"220 734 LINE",
"360 734 LINE",
"360 784 LINE",
"30 784 LINE",
"30 734 LINE",
"170 734 LINE",
"170 0 LINE"
);
}
);
width = 390;
},
{
associatedMasterId = "8A89AD82-2B0C-40F6-97CA-3AF9ED9FF3A8";
layerId = "2CD66A9C-B153-4A14-8403-503AAB71A842";
width = 600;
},
{
associatedMasterId = "8A89AD82-2B0C-40F6-97CA-3AF9ED9FF3A8";
layerId = "D5A259FC-BD70-44C4-B3C5-408723CBA272";
paths = (
{
closed = 1;
nodes = (
"232 0 LINE",
"232 734 LINE",
"361 734 LINE",
"361 784 LINE",
"30 784 LINE",
"30 734 LINE",
"159 734 LINE",
"159 0 LINE"
);
}
);
width = 391;
},
{
layerId = "AE502CCD-A4D0-4FF0-92B5-8B29CDC657FD";
paths = (
{
closed = 1;
nodes = (
"278 0 LINE",
"278 736 LINE",
"361 736 LINE",
"361 784 LINE",
"30 784 LINE",
"30 736 LINE",
"113 736 LINE",
"113 0 LINE"
);
}
);
width = 391;
},
{
associatedMasterId = "AE502CCD-A4D0-4FF0-92B5-8B29CDC657FD";
layerId = "CFCA78AC-D230-45F9-A45A-ED89E7805C16";
width = 600;
},
{
associatedMasterId = "AE502CCD-A4D0-4FF0-92B5-8B29CDC657FD";
layerId = "04D5D97A-D7B9-45B9-9273-2F2095602664";
width = 600;
},
{
associatedMasterId = "AE502CCD-A4D0-4FF0-92B5-8B29CDC657FD";
layerId = "BC6D63E3-680C-40A1-92F2-F6579046C543";
paths = (
{
closed = 1;
nodes = (
"220 0 LINE",
"220 734 LINE",
"360 734 LINE",
"360 784 LINE",
"30 784 LINE",
"30 734 LINE",
"170 734 LINE",
"170 0 LINE"
);
}
);
width = 390;
},
{
associatedMasterId = "AE502CCD-A4D0-4FF0-92B5-8B29CDC657FD";
layerId = "7D874FC5-E8E4-4FDB-8621-393BBB2F6C8C";
width = 600;
},
{
associatedMasterId = "AE502CCD-A4D0-4FF0-92B5-8B29CDC657FD";
layerId = "16FFDB52-9131-4AA7-8EE3-2C0DFEE8A967";
paths = (
{
closed = 1;
nodes = (
"232 0 LINE",
"232 734 LINE",
"361 734 LINE",
"361 784 LINE",
"30 784 LINE",
"30 734 LINE",
"159 734 LINE",
"159 0 LINE"
);
}
);
width = 391;
},
{
associatedMasterId = "8A89AD82-2B0C-40F6-97CA-3AF9ED9FF3A8";
layerId = "909388F7-88C2-4DA9-AB96-B13A0726FCBB";
paths = (
{
closed = 1;
nodes = (
"237 0 LINE",
"237 701 LINE",
"361 701 LINE",
"361 784 LINE",
"30 784 LINE",
"30 701 LINE",
"154 701 LINE",
"154 0 LINE"
);
}
);
width = 391;
},
{
associatedMasterId = "8A89AD82-2B0C-40F6-97CA-3AF9ED9FF3A8";
layerId = "F87D14C9-5903-481B-804C-33DC195335B4";
width = 600;
},
{
associatedMasterId = "8A89AD82-2B0C-40F6-97CA-3AF9ED9FF3A8";
layerId = "8FB96A4E-229E-4098-A78A-4F2B3CDE8744";
width = 600;
},
{
associatedMasterId = "8A89AD82-2B0C-40F6-97CA-3AF9ED9FF3A8";
layerId = "01CD86E2-79E2-4EB2-AFCC-7332063034AB";
paths = (
{
closed = 1;
nodes = (
"278 0 LINE",
"278 696 LINE",
"361 696 LINE",
"361 784 LINE",
"30 784 LINE",
"30 696 LINE",
"113 696 LINE",
"113 0 LINE"
);
}
);
width = 391;
}
);
unicode = 0054;
},
